<svg 
            class="w-full"
                width="789"
                height="625"
                viewBox="0 0 789 625"
                fill="none"
                xmlns="http://www.w3.org/2000/svg"
            >
                <path
                    d="M728.688 469.267L786.158 285.948C787.896 280.432 788.526 274.628 788.011 268.868C787.496 263.108 785.847 257.507 783.158 252.387L694.158 82.1277C691.49 76.9984 687.834 72.4467 683.402 68.7347C678.969 65.0227 673.846 62.2232 668.328 60.4974L485.058 3.01738C479.535 1.28591 473.725 0.659856 467.959 1.17461C462.194 1.68936 456.587 3.33483 451.458 6.01738L281.208 95.0174C270.87 100.427 263.104 109.722 259.618 120.858L202.058 304.178C198.579 315.327 199.658 327.401 205.058 337.758L294.058 508.017C299.492 518.358 308.801 526.124 319.948 529.617L503.268 587.097C508.783 588.825 514.585 589.45 520.341 588.935C526.098 588.421 531.697 586.776 536.818 584.097L707.068 495.097C712.201 492.421 716.756 488.759 720.471 484.32C724.186 479.88 726.988 474.752 728.718 469.227"
                    stroke="#E55E1A"
                    stroke-miterlimit="10"
                />
                <path
                    d="M538.968 499.537L597.458 312.967C599.224 307.353 599.863 301.446 599.336 295.585C598.809 289.724 597.127 284.025 594.388 278.817L503.838 105.547C501.12 100.33 497.398 95.7001 492.887 91.9248C488.375 88.1494 483.163 85.3026 477.548 83.5468L290.978 25.0566C285.358 23.2925 279.446 22.6539 273.579 23.1772C267.712 23.7006 262.007 25.3754 256.788 28.1064L83.5079 118.666C72.9771 124.169 65.0635 133.63 61.5079 144.967L3.05791 331.517C-0.495355 342.859 0.583132 355.147 6.05791 365.697L96.618 538.967C102.147 549.492 111.617 557.401 122.958 560.967L309.528 619.456C320.856 623.022 333.136 621.943 343.668 616.456L516.938 525.896C527.471 520.382 535.383 510.912 538.938 499.567"
                    stroke="#F0A219"
                    stroke-miterlimit="10"
                />
                <g filter="url(#filter0_d_22_842)">
                    <path
                        d="M674.394 269.64L582.734 101.72C579.975 96.6708 576.245 92.2164 571.759 88.6126C567.273 85.0088 562.12 82.3266 556.594 80.72L373.054 26.8001C367.534 25.1634 361.744 24.6354 356.019 25.2464C350.293 25.8574 344.745 27.5953 339.694 30.3602L171.764 122.02C166.705 124.781 162.239 128.513 158.624 133.002C155.008 137.491 152.314 142.648 150.694 148.18L96.7744 331.72C95.1531 337.241 94.6357 343.027 95.2517 348.747C95.8677 354.468 97.605 360.012 100.364 365.06L192.034 532.99C197.61 543.2 207.001 550.786 218.154 554.09L401.694 608.01C412.862 611.263 424.864 609.961 435.074 604.39L603.004 512.72C608.055 509.967 612.513 506.246 616.125 501.769C619.737 497.293 622.431 492.148 624.054 486.63L677.974 303.08C679.604 297.551 680.126 291.755 679.512 286.023C678.898 280.292 677.159 274.738 674.394 269.68"
                        fill="white"
                    />
                </g>
                <path
                    d="M527.589 174.242C475.159 134.832 394.229 135.842 349.589 189.612C337.359 204.392 330.989 220.742 311.699 228.112C294.119 234.842 276.609 229.242 258.649 230.692C223.569 233.452 194.789 259.832 184.989 292.982C171.179 339.662 186.869 389.472 221.829 422.602C254.129 453.242 301.099 463.242 344.319 464.722C373.549 465.722 402.729 462.872 431.709 459.292C457.259 456.122 482.139 451.242 503.599 436.002C570.199 388.742 602.909 284.552 560.679 211.432C552.271 196.93 541.015 184.279 527.589 174.242Z"
                    fill="#F4AA00"
                />
                <path
                    d="M285.238 183.46C294.895 173.802 294.895 158.144 285.238 148.487C275.58 138.829 259.922 138.829 250.264 148.487C240.607 158.144 240.607 173.802 250.264 183.46C259.922 193.118 275.58 193.118 285.238 183.46Z"
                    fill="#F4AA00"
                />
                <path
                    d="M233.229 443.942L548.119 443.942V195.152L233.229 195.152L233.229 443.942Z"
                    fill="white"
                />
                <path
                    d="M548.119 444.882H233.229C232.979 444.882 232.74 444.783 232.564 444.607C232.388 444.431 232.289 444.192 232.289 443.942V195.152C232.289 194.903 232.388 194.664 232.564 194.488C232.74 194.311 232.979 194.212 233.229 194.212H548.119C548.368 194.212 548.607 194.311 548.783 194.488C548.96 194.664 549.059 194.903 549.059 195.152V443.942C549.059 444.192 548.96 444.431 548.783 444.607C548.607 444.783 548.368 444.882 548.119 444.882ZM234.179 442.992H547.179V196.102H234.179V442.992Z"
                    fill="black"
                />
                <path
                    d="M546.989 221.423H233.379C233.228 221.475 233.067 221.49 232.909 221.467C232.751 221.445 232.601 221.385 232.471 221.292C232.342 221.2 232.236 221.077 232.163 220.936C232.09 220.794 232.052 220.637 232.052 220.478C232.052 220.318 232.09 220.161 232.163 220.019C232.236 219.878 232.342 219.755 232.471 219.663C232.601 219.57 232.751 219.51 232.909 219.488C233.067 219.465 233.228 219.48 233.379 219.533H546.989C547.139 219.48 547.3 219.465 547.458 219.488C547.616 219.51 547.766 219.57 547.896 219.663C548.026 219.755 548.131 219.878 548.205 220.019C548.278 220.161 548.316 220.318 548.316 220.478C548.316 220.637 548.278 220.794 548.205 220.936C548.131 221.077 548.026 221.2 547.896 221.292C547.766 221.385 547.616 221.445 547.458 221.467C547.3 221.49 547.139 221.475 546.989 221.423Z"
                    fill="black"
                />
                <path
                    d="M251.619 206.953C251.619 207.817 251.362 208.662 250.882 209.38C250.402 210.099 249.719 210.659 248.921 210.99C248.122 211.321 247.244 211.407 246.396 211.239C245.548 211.07 244.77 210.654 244.159 210.043C243.547 209.431 243.131 208.653 242.963 207.805C242.794 206.957 242.88 206.079 243.211 205.28C243.542 204.482 244.102 203.799 244.821 203.319C245.539 202.839 246.384 202.583 247.249 202.583C247.822 202.583 248.391 202.696 248.921 202.915C249.451 203.135 249.933 203.457 250.339 203.862C250.744 204.268 251.066 204.75 251.286 205.28C251.506 205.81 251.619 206.379 251.619 206.953Z"
                    fill="#00586E"
                />
                <path
                    d="M267.749 206.953C267.749 207.817 267.492 208.662 267.012 209.38C266.532 210.099 265.849 210.659 265.051 210.99C264.252 211.321 263.374 211.407 262.526 211.239C261.678 211.07 260.9 210.654 260.289 210.043C259.677 209.431 259.261 208.653 259.093 207.805C258.924 206.957 259.011 206.079 259.341 205.28C259.672 204.482 260.232 203.799 260.951 203.319C261.669 202.839 262.514 202.583 263.379 202.583C264.538 202.583 265.649 203.043 266.469 203.862C267.288 204.682 267.749 205.794 267.749 206.953Z"
                    fill="#CE492C"
                />
                <path
                    d="M587.63 402.383C596.81 363.488 572.721 324.516 533.827 315.336C494.932 306.156 455.96 330.245 446.78 369.139C437.6 408.034 461.688 447.006 500.583 456.186C539.478 465.366 578.45 441.278 587.63 402.383Z"
                    fill="white"
                    stroke="black"
                    stroke-width="0.5"
                    stroke-miterlimit="10"
                />
                <path
                    d="M517.219 458.772C502.781 458.772 488.667 454.491 476.662 446.47C464.657 438.448 455.301 427.047 449.775 413.708C444.25 400.369 442.805 385.692 445.621 371.531C448.438 357.37 455.391 344.363 465.6 334.154C475.809 323.944 488.816 316.992 502.977 314.175C517.138 311.358 531.815 312.804 545.155 318.329C558.494 323.854 569.895 333.211 577.916 345.216C585.937 357.221 590.219 371.334 590.219 385.772C590.197 405.127 582.5 423.682 568.814 437.368C555.128 451.053 536.573 458.751 517.219 458.772ZM517.219 314.062C503.035 314.072 489.174 318.287 477.386 326.174C465.598 334.062 456.413 345.267 450.993 358.373C445.572 371.48 444.16 385.899 446.934 399.809C449.707 413.718 456.543 426.493 466.576 436.517C476.609 446.542 489.39 453.367 503.301 456.129C517.213 458.891 531.631 457.467 544.733 452.035C557.835 446.604 569.033 437.41 576.91 425.616C584.787 413.821 588.991 399.956 588.989 385.772C588.967 366.75 581.397 348.513 567.941 335.068C554.484 321.623 536.241 314.068 517.219 314.062Z"
                    fill="black"
                    stroke="black"
                    stroke-width="0.5"
                    stroke-miterlimit="10"
                />
                <path
                    d="M517.219 458.132C534.571 458.131 551.345 451.895 564.484 440.56C577.623 429.225 586.252 413.547 588.799 396.382C577.289 376.472 560.229 367.812 537.729 366.772L511.909 366.872C497.479 367.652 481.019 373.192 473.609 384.732C470.609 389.342 445.749 384.432 445.749 384.432C443.029 392.052 448.569 410.502 452.749 418.722C458.82 430.594 468.053 440.558 479.43 447.512C490.807 454.467 503.884 458.142 517.219 458.132Z"
                    fill="black"
                />
                <path
                    d="M519.469 380.512C528.779 380.512 541.389 373.402 548.219 367.892C544.749 367.296 541.246 366.922 537.729 366.772L511.909 366.872C508.793 367.044 505.693 367.425 502.629 368.012C503.989 371.922 508.339 380.492 519.469 380.512Z"
                    fill="white"
                />
                <path
                    d="M517.219 458.772C503.768 458.802 490.572 455.102 479.097 448.083C467.622 441.064 458.318 431.001 452.219 419.012C448.219 411.182 442.219 392.342 445.149 384.222C445.197 384.077 445.297 383.955 445.43 383.879C445.563 383.804 445.719 383.78 445.869 383.812C455.329 385.672 471.079 387.482 473.069 384.382C480.949 372.122 498.279 366.962 511.879 366.232L537.719 366.132C549.509 366.672 559.309 369.232 567.719 373.942C576.549 378.942 583.639 386.142 589.369 396.062C589.444 396.185 589.472 396.33 589.449 396.472C586.883 413.79 578.179 429.608 564.924 441.044C551.669 452.48 534.745 458.772 517.239 458.772H517.219ZM446.219 385.172C444.079 392.612 449.019 409.902 453.389 418.432C460.299 431.948 471.319 442.922 484.863 449.776C498.408 456.629 513.777 459.009 528.76 456.572C543.742 454.135 557.565 447.008 568.239 436.215C578.913 425.422 585.888 411.521 588.159 396.512C577.239 377.742 561.209 368.512 537.729 367.412L511.939 367.512C498.699 368.232 481.799 373.212 474.169 385.082C471.189 389.662 450.529 386.002 446.189 385.172H446.219Z"
                    fill="black"
                />
                <path
                    d="M497.049 441.442C496.909 441.443 496.774 441.397 496.663 441.312C496.553 441.226 496.474 441.107 496.439 440.972C485.509 401.972 481.769 378.832 481.729 378.602C481.702 378.434 481.744 378.262 481.844 378.124C481.944 377.986 482.095 377.894 482.264 377.867C482.432 377.841 482.604 377.882 482.742 377.983C482.88 378.083 482.972 378.234 482.999 378.402C482.999 378.632 486.769 401.762 497.669 440.632C497.715 440.796 497.695 440.97 497.612 441.118C497.53 441.267 497.392 441.376 497.229 441.422L497.049 441.442Z"
                    fill="white"
                />
                <path
                    d="M565.039 441.442C564.902 441.442 564.77 441.398 564.66 441.317C564.55 441.236 564.469 441.123 564.429 440.992L551.669 398.892C551.622 398.729 551.64 398.554 551.721 398.405C551.801 398.255 551.937 398.143 552.099 398.092C552.26 398.046 552.434 398.065 552.582 398.145C552.73 398.226 552.84 398.361 552.889 398.522L565.649 440.622C565.673 440.702 565.682 440.785 565.674 440.868C565.666 440.951 565.642 441.032 565.603 441.105C565.564 441.178 565.511 441.243 565.447 441.296C565.382 441.349 565.308 441.388 565.229 441.412L565.039 441.442Z"
                    fill="white"
                />
                <path
                    d="M541.846 344.096C544.441 333.104 537.633 322.09 526.641 319.495C515.649 316.901 504.635 323.709 502.04 334.701C499.446 345.693 506.254 356.707 517.246 359.302C528.238 361.896 539.252 355.088 541.846 344.096Z"
                    fill="black"
                />
                <path
                    d="M534.689 354.373C529.059 352.563 524.249 344.093 524.139 343.663C523.269 340.163 524.709 329.883 524.709 329.883C524.709 329.883 511.579 326.513 507.649 328.213C505.439 329.163 503.209 334.033 503.109 336.033C502.428 340.192 502.223 344.416 502.499 348.623C503.269 358.203 502.809 364.183 512.969 364.183L513.089 370.343H535.179L534.689 354.373Z"
                    fill="white"
                />
                <path
                    d="M513.089 369.562C512.921 369.562 512.759 369.496 512.64 369.378C512.52 369.261 512.451 369.1 512.449 368.932L512.349 364.822C503.019 364.592 502.629 359.112 502.029 350.922C501.979 350.192 501.929 349.442 501.869 348.672C501.543 344.701 501.496 340.711 501.729 336.732C501.742 336.563 501.822 336.405 501.951 336.294C502.081 336.184 502.249 336.129 502.419 336.142C502.588 336.156 502.746 336.236 502.857 336.365C502.967 336.495 503.022 336.663 503.009 336.832C502.775 340.741 502.819 344.66 503.139 348.562C503.199 349.342 503.259 350.102 503.309 350.822C503.899 359.032 504.229 363.542 512.969 363.542C513.137 363.542 513.298 363.608 513.418 363.726C513.537 363.844 513.606 364.004 513.609 364.172L513.729 368.902C513.731 369.073 513.667 369.238 513.549 369.361C513.431 369.485 513.269 369.557 513.099 369.562H513.089Z"
                    fill="black"
                />
                <path
                    d="M535.179 369.562C535.013 369.56 534.855 369.495 534.736 369.379C534.617 369.264 534.546 369.108 534.539 368.942L534.049 354.392C534.045 354.308 534.058 354.224 534.087 354.144C534.116 354.065 534.161 353.993 534.219 353.931C534.277 353.869 534.346 353.82 534.423 353.786C534.501 353.752 534.584 353.734 534.669 353.732C534.752 353.727 534.837 353.739 534.916 353.767C534.995 353.795 535.068 353.839 535.129 353.896C535.191 353.953 535.241 354.022 535.275 354.099C535.309 354.175 535.327 354.258 535.329 354.342L535.819 368.892C535.823 368.977 535.81 369.061 535.782 369.14C535.753 369.219 535.709 369.292 535.653 369.354C535.596 369.416 535.527 369.467 535.451 369.502C535.375 369.538 535.293 369.559 535.209 369.562H535.179Z"
                    fill="black"
                />
                <path
                    d="M512.989 364.822C512.825 364.82 512.668 364.756 512.549 364.643C512.43 364.53 512.359 364.376 512.349 364.212C512.346 364.042 512.409 363.878 512.524 363.753C512.64 363.628 512.799 363.553 512.969 363.542C515.8 363.51 518.602 362.965 521.239 361.932C521.394 361.861 521.571 361.854 521.731 361.913C521.892 361.972 522.022 362.092 522.094 362.247C522.165 362.403 522.172 362.58 522.113 362.74C522.054 362.9 521.934 363.031 521.779 363.102C518.988 364.206 516.019 364.789 513.019 364.822H512.989Z"
                    fill="black"
                />
                <path
                    d="M508.789 350.683H508.719C508.55 350.663 508.397 350.577 508.292 350.443C508.187 350.31 508.139 350.141 508.159 349.973L509.159 341.423C509.185 341.26 509.273 341.113 509.405 341.014C509.537 340.915 509.702 340.87 509.865 340.889C510.029 340.909 510.179 340.99 510.284 341.118C510.389 341.245 510.441 341.408 510.429 341.573L509.429 350.123C509.407 350.277 509.33 350.419 509.213 350.522C509.095 350.625 508.945 350.682 508.789 350.683Z"
                    fill="black"
                />
                <path
                    d="M528.069 351.183C531.062 351.183 533.489 348.756 533.489 345.763C533.489 342.769 531.062 340.343 528.069 340.343C525.075 340.343 522.649 342.769 522.649 345.763C522.649 348.756 525.075 351.183 528.069 351.183Z"
                    fill="white"
                />
                <path
                    d="M527.079 347.372C526.963 347.371 526.85 347.338 526.752 347.277C526.653 347.217 526.573 347.13 526.52 347.028C526.467 346.925 526.442 346.81 526.449 346.695C526.456 346.579 526.494 346.468 526.559 346.372L528.559 343.592C528.659 343.457 528.808 343.366 528.975 343.339C529.142 343.313 529.312 343.354 529.449 343.452C529.518 343.5 529.577 343.562 529.622 343.633C529.667 343.704 529.697 343.783 529.711 343.866C529.725 343.949 529.723 344.034 529.703 344.116C529.684 344.197 529.648 344.275 529.599 344.342L527.599 347.112C527.539 347.194 527.461 347.261 527.37 347.306C527.28 347.351 527.18 347.374 527.079 347.372Z"
                    fill="black"
                />
                <path
                    d="M509.569 354.243C509.42 354.196 509.294 354.097 509.213 353.964C509.133 353.832 509.103 353.674 509.13 353.521C509.157 353.368 509.239 353.23 509.36 353.133C509.481 353.035 509.633 352.986 509.789 352.993C510.24 352.955 510.68 352.828 511.081 352.618C511.483 352.409 511.839 352.121 512.129 351.773C512.239 351.657 512.388 351.587 512.547 351.576C512.706 351.565 512.863 351.613 512.988 351.712C513.113 351.811 513.197 351.953 513.223 352.11C513.249 352.268 513.215 352.429 513.129 352.563C512.719 353.069 512.207 353.483 511.626 353.778C511.046 354.073 510.409 354.241 509.759 354.273C509.694 354.273 509.63 354.263 509.569 354.243Z"
                    fill="black"
                />
                <path
                    d="M516.229 343.493C516.255 343.746 516.357 343.985 516.519 344.181C516.682 344.377 516.899 344.52 517.143 344.593C517.387 344.666 517.647 344.665 517.89 344.59C518.134 344.515 518.349 344.37 518.51 344.173C518.672 343.976 518.771 343.735 518.795 343.482C518.82 343.228 518.769 342.973 518.649 342.749C518.529 342.524 518.346 342.34 518.121 342.22C517.897 342.1 517.642 342.048 517.389 342.073C517.219 342.089 517.054 342.138 516.904 342.219C516.753 342.299 516.62 342.408 516.512 342.541C516.405 342.673 516.324 342.825 516.275 342.988C516.226 343.152 516.211 343.323 516.229 343.493Z"
                    fill="black"
                />
                <path
                    d="M506.219 343.493C506.245 343.746 506.347 343.985 506.509 344.181C506.672 344.377 506.889 344.52 507.133 344.593C507.377 344.666 507.637 344.665 507.88 344.59C508.124 344.515 508.339 344.37 508.5 344.173C508.662 343.976 508.761 343.735 508.785 343.482C508.81 343.228 508.759 342.973 508.639 342.749C508.519 342.524 508.336 342.34 508.111 342.22C507.887 342.1 507.632 342.048 507.379 342.073C507.209 342.089 507.044 342.138 506.894 342.219C506.743 342.299 506.61 342.408 506.502 342.541C506.395 342.673 506.314 342.825 506.265 342.988C506.216 343.152 506.201 343.323 506.219 343.493Z"
                    fill="black"
                />
                <path
                    d="M457.079 359.612C476.083 359.612 491.489 344.207 491.489 325.202C491.489 306.198 476.083 290.792 457.079 290.792C438.074 290.792 422.669 306.198 422.669 325.202C422.669 344.207 438.074 359.612 457.079 359.612Z"
                    fill="#FB5F2F"
                    stroke="black"
                    stroke-width="2"
                    stroke-miterlimit="10"
                />
                <path
                    d="M463.179 337.243C463.179 338.51 462.803 339.75 462.098 340.804C461.394 341.858 460.393 342.679 459.222 343.165C458.05 343.65 456.762 343.777 455.518 343.529C454.275 343.282 453.133 342.672 452.236 341.775C451.34 340.879 450.729 339.736 450.482 338.493C450.234 337.25 450.361 335.961 450.847 334.79C451.332 333.618 452.153 332.617 453.207 331.913C454.262 331.208 455.501 330.833 456.769 330.833C458.469 330.833 460.099 331.508 461.301 332.71C462.503 333.912 463.179 335.542 463.179 337.243Z"
                    fill="white"
                    stroke="black"
                    stroke-width="1.25"
                    stroke-miterlimit="10"
                />
                <path
                    d="M472.819 330.812C471.79 330.812 470.803 330.404 470.075 329.676C469.347 328.948 468.939 327.961 468.939 326.932V318.312C468.966 315.124 467.761 312.048 465.576 309.727C463.39 307.405 460.393 306.017 457.209 305.852C455.573 305.793 453.943 306.064 452.415 306.649C450.886 307.234 449.492 308.121 448.314 309.257C447.136 310.393 446.199 311.755 445.559 313.261C444.919 314.767 444.589 316.386 444.589 318.022V326.932C444.589 327.961 444.18 328.948 443.452 329.676C442.725 330.404 441.738 330.812 440.709 330.812C439.858 330.798 439.035 331.114 438.412 331.694C437.789 332.274 437.415 333.073 437.369 333.922C437.355 334.351 437.428 334.778 437.583 335.178C437.738 335.578 437.971 335.942 438.27 336.25C438.568 336.558 438.926 336.803 439.321 336.97C439.715 337.137 440.14 337.223 440.569 337.222H472.989C473.417 337.223 473.842 337.137 474.237 336.97C474.632 336.803 474.989 336.558 475.287 336.25C475.586 335.942 475.82 335.578 475.974 335.178C476.129 334.778 476.202 334.351 476.189 333.922C476.142 333.067 475.764 332.264 475.135 331.684C474.505 331.103 473.675 330.79 472.819 330.812Z"
                    fill="white"
                />
                <path
                    d="M472.989 337.863H440.569C440.051 337.863 439.538 337.759 439.061 337.556C438.585 337.353 438.154 337.056 437.795 336.682C437.436 336.308 437.157 335.866 436.974 335.381C436.79 334.897 436.707 334.38 436.729 333.863C436.783 332.844 437.23 331.886 437.976 331.19C438.722 330.495 439.709 330.116 440.729 330.133C441.587 330.13 442.41 329.788 443.017 329.181C443.624 328.574 443.966 327.751 443.969 326.893V317.983C443.977 316.268 444.329 314.572 445.005 312.996C445.681 311.42 446.667 309.995 447.903 308.807C449.14 307.619 450.603 306.691 452.204 306.079C453.806 305.467 455.515 305.182 457.229 305.243C460.573 305.429 463.718 306.892 466.016 309.33C468.314 311.767 469.589 314.993 469.579 318.343V326.963C469.581 327.821 469.923 328.644 470.531 329.251C471.138 329.858 471.96 330.2 472.819 330.203C473.839 330.186 474.825 330.565 475.571 331.26C476.317 331.956 476.764 332.914 476.819 333.933C476.84 334.45 476.757 334.967 476.574 335.451C476.39 335.936 476.111 336.378 475.752 336.752C475.393 337.126 474.963 337.423 474.486 337.626C474.009 337.829 473.497 337.933 472.979 337.933L472.989 337.863ZM456.789 306.493C455.274 306.491 453.774 306.789 452.375 307.368C450.975 307.946 449.704 308.796 448.633 309.867C447.562 310.938 446.713 312.209 446.134 313.609C445.555 315.008 445.257 316.508 445.259 318.023V326.933C445.256 328.131 444.779 329.279 443.932 330.126C443.085 330.973 441.937 331.45 440.739 331.453C440.056 331.438 439.394 331.688 438.891 332.15C438.388 332.612 438.082 333.251 438.039 333.933C438.025 334.277 438.082 334.62 438.206 334.942C438.329 335.263 438.518 335.556 438.759 335.803C438.997 336.049 439.283 336.245 439.599 336.379C439.915 336.513 440.255 336.583 440.599 336.583H472.989C473.332 336.583 473.672 336.513 473.988 336.379C474.304 336.245 474.59 336.049 474.829 335.803C475.07 335.556 475.258 335.263 475.382 334.942C475.505 334.62 475.562 334.277 475.549 333.933C475.505 333.251 475.2 332.612 474.697 332.15C474.194 331.688 473.532 331.438 472.849 331.453C471.651 331.45 470.503 330.973 469.655 330.126C468.808 329.279 468.331 328.131 468.329 326.933V318.313C468.344 315.294 467.2 312.385 465.132 310.186C463.065 307.986 460.232 306.664 457.219 306.493H456.789Z"
                    fill="black"
                />
                <path
                    d="M466.149 398.562C468.658 398.248 471.077 397.426 473.258 396.145C475.44 394.865 477.337 393.153 478.834 391.115C480.331 389.076 481.398 386.754 481.968 384.29C482.537 381.826 482.599 379.271 482.149 376.782C481.629 373.952 481.149 371.582 480.879 370.342C479.189 363.342 475.069 358.342 465.969 359.172C465.492 356.215 464.749 353.306 463.749 350.482C460.009 341.482 453.309 341.482 453.229 347.632C453.229 347.632 450.009 340.872 445.669 341.822C441.329 342.772 442.079 348.882 442.079 348.882C442.079 348.882 438.239 340.822 432.899 343.072C427.249 345.462 433.009 355.792 433.009 355.792C433.009 355.792 426.719 345.232 421.339 349.492C417.869 352.242 421.949 358.952 427.459 368.272C430.559 373.492 436.339 374.802 444.219 374.202L445.439 382.732C446.125 387.562 448.682 391.928 452.558 394.889C456.434 397.851 461.319 399.17 466.159 398.562H466.149Z"
                    fill="white"
                />
                <path
                    d="M463.859 399.343C459.229 399.325 454.76 397.649 451.261 394.618C447.762 391.587 445.466 387.402 444.789 382.823L443.659 374.883C434.979 375.443 429.799 373.493 426.899 368.593L426.549 367.993C421.059 358.723 417.099 351.993 420.939 348.993C421.498 348.525 422.154 348.188 422.86 348.004C423.565 347.821 424.302 347.797 425.019 347.933C427.147 348.521 429.048 349.742 430.469 351.433C429.849 349.433 429.469 347.053 430.099 345.203C430.297 344.591 430.629 344.03 431.07 343.562C431.511 343.093 432.05 342.728 432.649 342.493C436.649 340.793 439.819 344.183 441.439 346.563C441.709 344.333 442.749 341.823 445.519 341.213C448.859 340.483 451.519 343.633 452.849 345.703C453.003 344.983 453.361 344.323 453.881 343.801C454.4 343.28 455.059 342.919 455.779 342.763C458.289 342.283 461.899 344.403 464.329 350.243C465.304 352.919 466.027 355.681 466.489 358.493C474.439 357.953 479.489 361.893 481.489 370.203C481.759 371.343 482.189 373.523 482.769 376.673C483.244 379.249 483.187 381.896 482.602 384.451C482.018 387.005 480.917 389.413 479.368 391.526C477.819 393.64 475.855 395.414 473.595 396.741C471.336 398.068 468.829 398.919 466.229 399.243C465.441 399.325 464.65 399.358 463.859 399.343ZM444.209 373.563C444.363 373.561 444.512 373.617 444.628 373.718C444.744 373.819 444.819 373.96 444.839 374.113L446.059 382.643C446.735 387.298 449.206 391.503 452.944 394.359C456.682 397.215 461.389 398.494 466.059 397.923C468.476 397.613 470.806 396.817 472.906 395.58C475.007 394.344 476.834 392.694 478.278 390.73C479.721 388.767 480.751 386.53 481.305 384.157C481.859 381.783 481.925 379.322 481.499 376.923C480.929 373.793 480.499 371.643 480.229 370.523C478.329 362.613 473.679 359.113 466.009 359.833C465.847 359.85 465.686 359.804 465.557 359.706C465.429 359.607 465.343 359.463 465.319 359.303C464.851 356.393 464.122 353.531 463.139 350.753C460.999 345.613 457.939 343.673 456.009 344.043C454.689 344.303 453.879 345.653 453.849 347.663C453.849 347.808 453.8 347.949 453.709 348.062C453.618 348.175 453.491 348.253 453.349 348.283C453.207 348.313 453.059 348.295 452.928 348.232C452.798 348.168 452.692 348.063 452.629 347.933C452.629 347.873 449.629 341.653 445.789 342.483C441.949 343.313 442.689 348.783 442.689 348.833C442.707 348.983 442.672 349.135 442.589 349.262C442.506 349.388 442.381 349.481 442.236 349.525C442.091 349.568 441.935 349.558 441.796 349.497C441.658 349.437 441.545 349.329 441.479 349.193C441.479 349.113 437.839 341.713 433.129 343.693C432.694 343.869 432.305 344.14 431.988 344.486C431.672 344.832 431.436 345.244 431.299 345.693C430.069 349.253 433.509 355.493 433.549 355.563C433.633 355.71 433.656 355.885 433.612 356.049C433.568 356.213 433.461 356.353 433.314 356.438C433.166 356.522 432.992 356.545 432.827 356.501C432.663 356.457 432.523 356.35 432.439 356.203C432.439 356.133 428.689 349.983 424.779 349.263C424.24 349.158 423.686 349.177 423.156 349.318C422.626 349.458 422.135 349.716 421.719 350.073C418.719 352.413 422.719 359.073 427.639 367.423L427.999 368.023C430.679 372.553 435.659 374.293 444.149 373.643L444.209 373.563Z"
                    fill="black"
                />
                <path
                    d="M438.369 369.562C438.242 369.562 438.118 369.523 438.013 369.452C437.908 369.381 437.826 369.28 437.779 369.162L432.409 356.032C432.363 355.88 432.376 355.716 432.445 355.573C432.514 355.43 432.634 355.317 432.781 355.257C432.928 355.197 433.092 355.195 433.242 355.249C433.391 355.304 433.515 355.412 433.589 355.552L438.989 368.672C439.021 368.75 439.038 368.834 439.038 368.919C439.038 369.003 439.021 369.087 438.989 369.165C438.956 369.244 438.909 369.314 438.849 369.374C438.788 369.434 438.717 369.481 438.639 369.512C438.553 369.547 438.461 369.564 438.369 369.562Z"
                    fill="black"
                />
                <path
                    d="M448.989 368.242C448.857 368.244 448.729 368.204 448.621 368.129C448.514 368.053 448.432 367.946 448.389 367.822L441.479 349.142C441.448 349.064 441.434 348.981 441.436 348.897C441.438 348.814 441.457 348.731 441.491 348.655C441.526 348.578 441.575 348.51 441.637 348.453C441.698 348.396 441.77 348.351 441.849 348.322C442.009 348.264 442.186 348.271 442.342 348.342C442.497 348.413 442.618 348.543 442.679 348.702L449.589 367.372C449.647 367.533 449.64 367.71 449.569 367.865C449.498 368.021 449.368 368.142 449.209 368.202C449.137 368.225 449.063 368.238 448.989 368.242Z"
                    fill="black"
                />
                <path
                    d="M460.989 368.242C460.859 368.242 460.733 368.202 460.626 368.129C460.519 368.056 460.436 367.953 460.389 367.832L452.659 347.902C452.6 347.743 452.605 347.567 452.674 347.412C452.744 347.257 452.871 347.135 453.029 347.072C453.186 347.01 453.362 347.013 453.518 347.081C453.674 347.148 453.796 347.275 453.859 347.432L461.579 367.372C461.609 367.45 461.624 367.533 461.623 367.616C461.621 367.699 461.603 367.781 461.57 367.858C461.536 367.934 461.488 368.003 461.428 368.06C461.367 368.118 461.296 368.163 461.219 368.192C461.145 368.222 461.068 368.239 460.989 368.242Z"
                    fill="black"
                />
                <path
                    d="M460.989 374.842H444.209C444.039 374.842 443.876 374.775 443.756 374.655C443.636 374.535 443.569 374.372 443.569 374.202C443.569 374.033 443.636 373.87 443.756 373.75C443.876 373.63 444.039 373.562 444.209 373.562H460.989C461.158 373.562 461.321 373.63 461.441 373.75C461.561 373.87 461.629 374.033 461.629 374.202C461.629 374.372 461.561 374.535 461.441 374.655C461.321 374.775 461.158 374.842 460.989 374.842Z"
                    fill="black"
                />
                <path
                    d="M524.709 329.882C524.709 329.882 509.989 337.242 507.659 334.772C505.959 332.982 508.799 329.882 508.799 329.882C508.799 329.882 501.599 333.762 499.249 331.112C496.899 328.462 500.249 324.352 508.789 320.942C508.789 320.942 504.649 319.232 507.509 316.992C510.369 314.752 526.589 319.492 526.589 319.492L524.709 329.882Z"
                    fill="black"
                />
                <path
                    d="M277.137 309.438C288.191 306.329 294.087 292.909 290.305 279.463C286.524 266.017 274.497 257.638 263.442 260.747C252.388 263.856 246.492 277.276 250.273 290.722C254.055 304.168 266.082 312.547 277.137 309.438Z"
                    fill="white"
                />
                <path
                    d="M248.903 326.242C249.332 324.131 247.6 321.998 245.034 321.477C242.469 320.956 240.041 322.245 239.613 324.356C239.184 326.466 240.916 328.6 243.482 329.121C246.047 329.642 248.474 328.353 248.903 326.242Z"
                    fill="white"
                />
                <path
                    d="M361.989 361.722L369.559 373.082C370.559 374.502 371.559 376.662 373.559 375.592C375.101 374.615 376.431 373.336 377.469 371.832C382.535 365.406 388.304 359.566 394.669 354.422C394.82 354.306 394.941 354.154 395.017 353.979C395.094 353.804 395.126 353.613 395.109 353.422C396.654 352.755 398.071 351.824 399.299 350.672C400.5 349.122 401.461 347.399 402.149 345.562C403.027 343.744 403.74 341.849 404.279 339.902C404.703 338.073 405.223 336.267 405.839 334.492C406.389 333.154 407.148 331.912 408.089 330.812C410.022 329.244 411.871 327.575 413.629 325.812C415.289 324.152 416.759 322.392 416.529 319.912C416.515 319.78 416.476 319.652 416.412 319.535C416.349 319.418 416.262 319.315 416.159 319.232C416.208 318.829 416.12 318.42 415.909 318.072C415.459 317.322 413.969 317.272 413.289 317.442C412.11 318.247 411.093 319.264 410.289 320.442C408.958 322.879 407.148 325.022 404.969 326.742C404.129 327.512 401.439 328.942 401.079 326.862C401.082 325.914 401.304 324.98 401.729 324.132L402.839 320.942C403.519 318.942 404.199 316.942 404.899 314.942C405.683 313.109 406.321 311.216 406.809 309.282C407.01 308.55 407.002 307.776 406.787 307.048C406.571 306.32 406.156 305.667 405.589 305.162C405.023 304.704 404.316 304.457 403.589 304.462C403.589 302.752 403.199 300.682 401.589 300.302C400.469 300.042 399.909 301.002 399.449 301.832L397.349 305.602C395.235 309.362 393.115 313.129 390.989 316.902C391.409 314.212 391.929 311.542 392.239 308.822C392.459 307.001 392.519 305.164 392.419 303.332C392.349 302.172 392.179 300.752 391.129 300.032C390.904 299.886 390.652 299.787 390.387 299.744C390.122 299.7 389.852 299.712 389.592 299.779C389.332 299.846 389.089 299.966 388.879 300.132C388.668 300.298 388.494 300.506 388.369 300.742C387.659 301.932 387.609 303.632 387.369 304.972C386.249 311.562 385.369 318.452 382.939 324.722C380.507 320.32 377.57 316.215 374.189 312.492C374.061 312.333 373.888 312.216 373.692 312.158C373.496 312.101 373.287 312.104 373.093 312.168C372.9 312.232 372.73 312.354 372.608 312.518C372.485 312.681 372.416 312.878 372.409 313.082C371.839 316.482 373.559 319.572 374.679 322.662C375.819 326.038 376.688 329.499 377.279 333.012C377.316 333.238 377.438 333.442 377.619 333.582C377.189 335.092 376.699 336.582 376.149 338.072C376.082 338.259 376.071 338.461 376.119 338.653C376.167 338.846 376.272 339.019 376.419 339.152L376.159 339.572C374.775 341.967 372.973 344.094 370.839 345.852C367.539 348.442 363.259 349.992 360.839 353.522L360.579 353.912C360.406 354.188 360.253 354.476 360.119 354.772C360.044 354.932 360.013 355.109 360.029 355.284C360.045 355.46 360.107 355.628 360.209 355.772C360.209 355.872 360.129 355.962 360.089 356.072C359.559 358.242 360.819 359.982 361.989 361.722Z"
                    fill="white"
                />
                <path
                    d="M210.329 444.752C216.849 445.112 223.365 445.409 229.879 445.642C252.779 446.452 275.719 446.252 298.609 445.262C298.758 445.265 298.905 445.234 299.041 445.173C299.176 445.111 299.297 445.02 299.392 444.906C299.488 444.792 299.557 444.658 299.595 444.514C299.632 444.369 299.637 444.219 299.609 444.072C299.149 439.572 298.859 435.072 298.249 430.582C297.331 422.807 295.508 415.165 292.819 407.812C291.466 404.218 289.679 400.803 287.499 397.642C286.139 395.732 283.129 393.352 280.849 395.062C277.429 394.732 273.989 394.672 270.579 394.602C262.999 394.452 255.429 394.412 247.849 394.302C244.099 394.252 240.349 394.182 236.599 394.152C234.439 394.152 230.979 394.012 230.079 396.482C226.779 396.692 224.079 398.792 221.929 401.282C217.469 406.442 215.839 413.542 214.379 420.022C213.479 424.022 212.639 427.942 211.749 431.892C211.309 433.892 210.819 435.892 210.489 437.892C210.309 438.962 210.149 440.022 209.949 441.082C209.779 441.69 209.708 442.322 209.739 442.952C209.571 443.078 209.448 443.252 209.385 443.452C209.322 443.651 209.323 443.865 209.388 444.064C209.453 444.263 209.579 444.436 209.748 444.559C209.916 444.683 210.12 444.75 210.329 444.752Z"
                    fill="black"
                />
                <path
                    d="M245.339 402.822C240.988 402.871 236.641 402.57 232.339 401.922H232.129C228.519 401.352 224.779 400.762 222.909 397.712C222.799 397.522 222.709 397.322 222.609 397.132L222.509 396.912L222.299 396.722C222.051 396.529 221.814 396.322 221.589 396.102C221.409 395.942 221.239 395.782 221.079 395.652C220.079 394.772 219.079 393.832 218.179 393.032C217.069 392.032 215.959 390.893 214.879 389.812C214.189 389.113 213.509 388.402 212.819 387.682C212.819 386.792 212.819 385.892 212.819 385.002C212.899 382.162 213.209 379.312 213.509 376.552L213.609 375.642C214.539 367.182 215.689 359.592 217.139 352.452C218.589 345.312 220.219 338.692 224.809 333.532C228.155 329.972 232.141 327.071 236.559 324.982C237.129 324.692 237.669 324.422 238.199 324.172C238.859 324.472 239.529 324.752 240.199 325.022C240.299 325.072 240.429 325.112 240.559 325.162C245.228 326.959 250.091 328.207 255.049 328.882C258.843 329.402 262.669 329.663 266.499 329.662C267.899 329.662 269.319 329.663 270.719 329.562C277.389 329.203 282.829 327.882 287.379 325.562C290.145 324.137 292.653 322.257 294.799 320.002C295.507 319.249 296.175 318.458 296.799 317.632L298.119 317.563C298.609 317.563 299.119 317.563 299.599 317.563C300.299 317.563 300.939 317.562 301.599 317.632C304.563 317.766 307.457 318.577 310.059 320.002C312.614 321.606 314.896 323.608 316.819 325.932C321.759 331.392 326.239 336.302 331.019 341.042C335.799 345.782 344.019 353.292 349.399 358.192L350.859 359.502L351.469 360.062L354.409 357.872L357.989 355.042C358.369 354.772 358.759 354.482 359.139 354.192L359.729 355.042L363.069 359.852L364.789 362.332L368.709 367.972C370.369 370.346 372.019 372.719 373.659 375.092C373.859 375.403 374.079 375.712 374.289 376.032C373.859 376.442 373.419 376.842 372.979 377.232C371.669 378.452 370.359 379.622 369.049 380.792L368.609 381.192C361.799 387.342 352.479 395.752 342.879 395.752C340.82 395.755 338.781 395.351 336.879 394.562C332.949 392.933 329.599 390.082 326.349 387.332C324.729 385.942 323.149 384.612 321.579 383.282C319.132 381.222 316.695 379.152 314.269 377.072L309.839 373.242L308.299 371.932L308.079 371.732L306.759 370.572L306.429 372.302C305.429 377.362 304.219 382.522 302.729 387.622C302.159 389.622 301.509 391.682 300.729 394.212C300.639 394.482 300.559 394.762 300.469 395.052C300.119 396.545 299.48 397.955 298.589 399.202C298.047 399.768 297.397 400.219 296.677 400.526C295.957 400.834 295.182 400.992 294.399 400.992C292.869 401.112 291.289 401.162 289.769 401.212L287.849 401.272L280.729 401.562C273.855 401.829 266.989 402.099 260.129 402.372L253.829 402.622C251.299 402.722 248.329 402.822 245.339 402.822Z"
                    fill="white"
                />
                <path
                    d="M299.559 318.472C300.229 318.472 300.849 318.472 301.469 318.532C304.27 318.672 307.005 319.441 309.469 320.782C311.927 322.337 314.124 324.271 315.979 326.512C320.979 331.992 325.429 336.912 330.219 341.662C335.009 346.412 343.219 353.942 348.639 358.852L349.189 359.342C349.399 359.542 349.609 359.732 349.799 359.892L349.949 360.032L350.089 360.152L351.309 361.272L352.629 360.272L354.879 358.592L358.559 355.852L358.909 355.602C360.035 357.216 361.159 358.836 362.279 360.462L363.949 362.862C365.249 364.752 366.559 366.622 367.879 368.502C369.499 370.832 371.189 373.242 372.809 375.602C372.809 375.692 372.919 375.772 372.969 375.852L372.269 376.482C370.989 377.672 369.659 378.862 368.379 380.022L368.279 380.102L367.929 380.422C361.239 386.422 352.079 394.722 342.869 394.722C340.944 394.725 339.037 394.348 337.259 393.612C333.479 392.042 330.189 389.242 326.999 386.542L326.939 386.492C325.389 385.162 323.819 383.842 322.259 382.492C319.839 380.492 317.349 378.342 314.889 376.232C313.469 375.002 312.039 373.782 310.599 372.552L310.499 372.462L308.989 371.242L308.829 371.102L308.759 371.042L306.119 368.682L305.459 372.162C304.509 377.162 303.269 382.312 301.779 387.392C301.209 389.392 300.569 391.392 299.779 393.952L299.509 394.802C299.196 396.168 298.626 397.461 297.829 398.612C297.371 399.076 296.823 399.441 296.22 399.687C295.617 399.933 294.97 400.054 294.319 400.042C292.819 400.162 291.259 400.212 289.749 400.262L287.809 400.322L281.079 400.592L260.079 401.422H259.409H258.339L257.229 401.472H256.849L255.309 401.532L253.779 401.592C251.279 401.692 248.319 401.792 245.349 401.792C241.039 401.839 236.732 401.545 232.469 400.912H232.259C228.869 400.382 225.359 399.822 223.729 397.162C223.644 397.017 223.567 396.867 223.499 396.712V396.642L223.289 396.202L222.899 395.912C222.679 395.737 222.468 395.551 222.269 395.352C222.079 395.182 221.899 395.012 221.729 394.872C220.729 394.002 219.729 393.072 218.869 392.292C217.769 391.292 216.659 390.172 215.589 389.092L213.769 387.242C213.769 386.502 213.769 385.742 213.769 384.992C213.849 382.192 214.159 379.352 214.459 376.602L214.559 375.722C215.479 367.282 216.629 359.722 218.069 352.622C219.509 345.522 221.069 339.142 225.509 334.172C228.78 330.701 232.674 327.875 236.989 325.842L238.199 325.242C238.749 325.482 239.279 325.702 239.809 325.912L240.229 326.072C244.96 327.901 249.891 329.166 254.919 329.842C258.759 330.371 262.632 330.635 266.509 330.632C267.919 330.632 269.359 330.632 270.779 330.532C277.579 330.162 283.159 328.812 287.839 326.392C290.709 324.908 293.312 322.955 295.539 320.612C296.159 319.942 296.749 319.252 297.289 318.542H298.119C298.599 318.542 299.119 318.542 299.569 318.542M299.569 316.542H298.039C297.439 316.542 296.829 316.602 296.229 316.652C295.567 317.579 294.845 318.46 294.069 319.292C292.003 321.468 289.586 323.28 286.919 324.652C281.84 327.093 276.301 328.429 270.669 328.572C269.279 328.642 267.889 328.672 266.509 328.672C262.722 328.672 258.94 328.414 255.189 327.902C250.305 327.248 245.515 326.019 240.919 324.242L240.549 324.102C239.739 323.782 238.949 323.442 238.159 323.102C237.459 323.422 236.769 323.772 236.079 324.102C231.57 326.263 227.502 329.239 224.079 332.882C219.179 338.242 217.539 345.242 216.129 352.242C214.569 359.952 213.439 367.712 212.589 375.522C212.259 378.582 211.879 381.772 211.789 384.952C211.789 386.002 211.789 387.052 211.789 388.092C212.569 388.902 213.349 389.712 214.129 390.502C215.219 391.602 216.329 392.692 217.459 393.752C218.459 394.652 219.389 395.552 220.399 396.402C220.769 396.722 221.189 397.162 221.649 397.512C221.769 397.752 221.879 397.992 222.019 398.222C224.169 401.732 228.399 402.342 232.139 402.932C236.508 403.58 240.922 403.885 245.339 403.842C248.179 403.842 251.019 403.752 253.849 403.642L256.949 403.522H257.289L259.469 403.432H260.149C269.389 403.092 278.629 402.712 287.869 402.342C290.059 402.262 292.269 402.232 294.459 402.062C295.373 402.053 296.275 401.858 297.112 401.49C297.949 401.122 298.703 400.589 299.329 399.922C300.589 398.432 301.079 396.392 301.659 394.592C302.359 392.392 303.039 390.192 303.659 387.972C305.145 382.879 306.389 377.739 307.389 372.552L307.619 372.752L309.319 374.202L313.619 377.892C317.619 381.332 321.619 384.702 325.619 388.112C328.959 390.952 332.369 393.852 336.459 395.552C338.479 396.398 340.648 396.83 342.839 396.822C352.989 396.822 362.719 387.892 369.589 381.692C370.929 380.482 372.279 379.282 373.589 378.052C374.259 377.462 374.899 376.852 375.589 376.242L374.469 374.592C371.539 370.322 368.539 366.092 365.599 361.832C363.909 359.402 362.239 356.972 360.539 354.552C360.149 353.972 359.759 353.412 359.359 352.842C358.692 353.342 358.025 353.832 357.359 354.312C355.359 355.802 353.359 357.262 351.359 358.752L351.079 358.492C350.689 358.152 350.299 357.792 349.899 357.432C343.899 352.052 336.159 344.852 331.559 340.312C326.649 335.452 322.019 330.312 317.389 325.242C315.397 322.839 313.034 320.769 310.389 319.112C307.649 317.618 304.606 316.763 301.489 316.612C300.819 316.562 300.139 316.542 299.489 316.542H299.569Z"
                    fill="black"
                />
                <path
                    d="M267.639 304.243C268.991 305.118 270.477 305.766 272.039 306.162L273.639 306.662C274.219 306.842 274.799 307.003 275.399 307.153C275.999 307.303 276.649 307.442 277.289 307.552C280.315 308.16 283.455 307.829 286.289 306.603C291.629 304.083 292.479 298.242 292.869 292.972C292.969 291.572 292.959 290.072 293.939 288.972C294.715 288.282 295.389 287.484 295.939 286.603C296.195 286.086 296.294 285.505 296.223 284.932C296.152 284.36 295.914 283.821 295.539 283.382C294.811 282.669 293.928 282.135 292.959 281.823C290.769 280.903 289.909 279.263 289.289 277.043C288.796 274.708 288.086 272.425 287.169 270.222C286.044 267.961 284.457 265.961 282.509 264.353C280.657 262.746 278.342 261.769 275.899 261.562C275.329 261.562 275.289 262.273 275.679 262.562C276.769 263.303 277.949 263.822 279.019 264.562C279.998 265.259 280.927 266.024 281.799 266.853C283.611 268.592 284.982 270.738 285.799 273.112C287.019 276.732 287.109 281.462 290.919 283.493C291.856 283.827 292.757 284.256 293.609 284.772C294.359 285.422 293.719 286.053 293.189 286.603C292.308 287.398 291.623 288.388 291.189 289.493C291.028 289.994 290.918 290.51 290.859 291.032C290.799 291.422 290.759 291.833 290.719 292.233L290.669 292.722C290.559 293.822 290.439 294.963 290.249 296.103C290.189 296.533 290.119 296.963 290.019 297.403C289.369 300.553 288.019 303.403 284.679 304.683C282.322 305.492 279.786 305.623 277.359 305.063L276.149 304.802C275.699 304.692 275.259 304.572 274.819 304.442C274.219 304.276 273.629 304.096 273.049 303.903C271.762 303.614 270.53 303.121 269.399 302.442C268.059 301.552 266.399 303.303 267.639 304.243Z"
                    fill="black"
                />
                <path
                    d="M282.219 276.832C282.312 276.726 282.416 276.629 282.529 276.542C282.681 276.444 282.857 276.388 283.039 276.382C283.129 276.387 283.219 276.387 283.309 276.382C283.483 276.447 283.647 276.534 283.799 276.642L283.979 276.862C283.979 276.932 284.059 277.062 284.099 277.122C284.139 277.182 284.099 277.392 284.169 277.472C284.185 277.658 284.219 277.842 284.269 278.022C284.364 278.158 284.432 278.311 284.469 278.472C284.517 278.658 284.54 278.85 284.539 279.042V279.272C284.517 279.388 284.469 279.498 284.399 279.592C284.355 279.661 284.297 279.719 284.229 279.762C284.143 279.848 284.036 279.91 283.919 279.942C283.767 279.972 283.61 279.972 283.459 279.942C283.222 279.881 283.015 279.735 282.879 279.532C282.689 279.102 282.539 278.642 282.369 278.192C282.199 277.742 282.019 277.392 282.069 277.192C282.086 277.061 282.138 276.937 282.219 276.832Z"
                    fill="black"
                />
                <path
                    d="M275.839 274.672C275.839 274.572 275.909 274.473 275.949 274.383C275.989 274.293 276.119 274.133 276.039 274.273C276.127 274.086 276.227 273.906 276.339 273.733C276.4 273.648 276.467 273.568 276.539 273.493C276.726 273.305 276.923 273.129 277.129 272.963C277.847 272.415 278.661 272.005 279.529 271.752C280.419 271.486 281.356 271.408 282.279 271.523C282.684 271.582 283.083 271.683 283.469 271.823C283.919 271.999 284.34 272.242 284.719 272.543C285.229 272.923 284.719 273.683 284.169 273.543C283.487 273.411 282.792 273.364 282.099 273.403C281.418 273.425 280.744 273.546 280.099 273.763L279.619 273.942L279.259 274.112C278.94 274.283 278.633 274.474 278.339 274.683L278.089 274.862C277.919 274.992 277.809 275.092 277.689 275.172C277.569 275.252 277.469 275.313 277.369 275.373L277.039 275.612L276.579 275.942C276.129 276.252 275.579 275.772 275.689 275.302C275.715 275.088 275.765 274.876 275.839 274.672Z"
                    fill="black"
                />
                <path
                    d="M283.879 288.802C286.669 289.672 289.449 290.582 292.199 291.582C292.275 291.595 292.349 291.623 292.415 291.665C292.48 291.706 292.537 291.761 292.58 291.826C292.624 291.89 292.654 291.963 292.668 292.039C292.683 292.116 292.681 292.195 292.664 292.27C292.647 292.346 292.615 292.418 292.569 292.481C292.523 292.544 292.465 292.597 292.398 292.636C292.331 292.676 292.256 292.701 292.179 292.711C292.102 292.721 292.023 292.714 291.949 292.692C289.609 291.912 287.275 291.152 284.949 290.412C285.6 291.619 286.407 292.735 287.349 293.732C287.969 294.388 288.638 294.996 289.349 295.552C289.699 295.822 290.059 296.072 290.439 296.312L291.009 296.662C291.221 296.802 291.422 296.96 291.609 297.132C291.683 297.209 291.73 297.306 291.745 297.411C291.76 297.516 291.741 297.623 291.691 297.717C291.641 297.811 291.562 297.886 291.466 297.932C291.371 297.978 291.263 297.992 291.159 297.972C290.917 297.918 290.683 297.838 290.459 297.732L289.809 297.352C289.379 297.082 288.969 296.792 288.559 296.492C287.782 295.912 287.062 295.259 286.409 294.542C285.057 293.072 283.968 291.381 283.189 289.542C283.166 289.445 283.168 289.344 283.194 289.247C283.219 289.151 283.269 289.062 283.337 288.989C283.405 288.916 283.49 288.861 283.584 288.828C283.679 288.796 283.78 288.787 283.879 288.802Z"
                    fill="black"
                />
                <path
                    d="M276.389 317.932C276.915 318.495 277.547 318.948 278.249 319.265C278.951 319.583 279.709 319.759 280.479 319.782C285.009 320.342 289.539 319.682 294.059 319.252C294.835 318.42 295.557 317.539 296.219 316.612C291.519 316.962 286.829 317.822 282.109 317.492C281.049 317.422 279.029 317.492 278.369 316.432C277.939 315.782 278.229 314.722 278.299 314.002C278.409 313.092 278.509 312.192 278.609 311.292C278.839 309.292 279.429 307.722 279.529 306.922C279.059 306.922 278.609 306.842 278.159 306.782C277.899 307.552 277.159 306.022 277.069 306.512C276.599 308.512 276.229 310.512 275.939 312.592C275.689 314.322 275.219 316.422 276.389 317.932Z"
                    fill="black"
                />
                <path
                    d="M234.989 287.292C235.659 289.382 236.989 292.292 239.279 292.862C239.452 292.914 239.639 292.897 239.799 292.812C240.799 293.642 241.929 294.452 242.969 295.282C244.719 296.672 246.489 298.052 248.259 299.442C250.939 301.552 253.869 303.632 257.389 303.832C258.781 303.967 260.185 303.715 261.443 303.102C262.701 302.49 263.766 301.542 264.519 300.362C265.869 297.982 265.519 295.102 265.179 292.512C264.909 290.372 264.449 287.792 265.669 285.912C266.339 286.492 266.989 287.082 267.669 287.692C267.809 287.857 267.999 287.971 268.211 288.018C268.422 288.065 268.643 288.043 268.84 287.954C269.037 287.865 269.2 287.714 269.304 287.524C269.409 287.335 269.449 287.117 269.419 286.902C269.359 285.143 268.952 283.413 268.221 281.812C267.49 280.21 266.449 278.77 265.159 277.572C265.942 277.002 266.576 276.25 267.006 275.381C267.435 274.512 267.648 273.551 267.625 272.582C267.602 271.613 267.345 270.664 266.876 269.816C266.406 268.968 265.738 268.246 264.929 267.712C267.215 266.425 269.572 265.267 271.989 264.242C274.459 263.242 278.269 261.812 280.709 263.642C280.786 263.7 280.874 263.741 280.969 263.762C280.904 263.973 280.821 264.177 280.719 264.372C280.389 264.992 281.299 265.442 281.719 264.872C282.292 263.886 282.546 262.745 282.446 261.609C282.345 260.472 281.896 259.394 281.159 258.522C280.376 257.596 279.293 256.973 278.099 256.762C276.379 256.442 274.589 256.762 272.929 256.082C270.509 255.082 268.579 253.422 265.819 254.452C264.51 255.061 263.152 255.556 261.759 255.932C260.359 256.192 258.959 256.352 257.569 256.692C252.271 258.057 247.456 260.864 243.659 264.802C241.587 267.003 239.744 269.409 238.159 271.982C236.492 274.484 235.299 277.27 234.639 280.202C234.175 282.559 234.295 284.993 234.989 287.292Z"
                    fill="black"
                />
                <path
                    d="M243.289 275.302C243.629 276.898 244.128 278.456 244.779 279.952C245.339 281.242 245.969 283.102 247.069 284.032C248.799 285.472 251.149 283.302 252.209 281.232C253.209 282.232 254.729 280.562 253.749 279.462C252.328 277.855 251.28 275.955 250.678 273.896C250.077 271.837 249.937 269.671 250.269 267.552C250.682 265.161 251.555 262.872 252.839 260.812C253.314 259.946 253.965 259.187 254.751 258.587C255.536 257.986 256.438 257.555 257.399 257.322C257.999 257.202 257.819 256.322 257.309 256.322C257.289 256.232 257.242 256.15 257.174 256.087C257.106 256.025 257.02 255.985 256.929 255.972C255.321 255.82 253.699 256.021 252.177 256.562C250.655 257.102 249.27 257.97 248.119 259.102C245.97 261.147 244.395 263.718 243.547 266.559C242.7 269.401 242.611 272.415 243.289 275.302Z"
                    fill="#E55E1A"
                />
                <path
                    d="M241.759 292.993C241.81 295.172 242.392 297.307 243.453 299.212C244.513 301.117 246.022 302.736 247.848 303.928C249.674 305.12 251.762 305.849 253.933 306.054C256.104 306.259 258.292 305.932 260.309 305.103C263.19 303.779 265.577 301.577 267.129 298.813C267.959 297.453 268.979 295.883 269.069 294.243C269.025 292.563 268.749 290.897 268.249 289.293C267.647 286.129 266.033 283.247 263.649 281.083C261.306 279.022 258.278 277.913 255.159 277.973C254.539 278.008 253.924 278.095 253.319 278.233C253.084 278.163 252.834 278.163 252.599 278.233C246.229 280.113 241.369 286.243 241.759 292.993Z"
                    fill="#F0A219"
                />
                <path
                    d="M242.409 317.972C243.179 319.212 244.049 320.403 244.919 321.563C245.219 321.983 245.539 322.392 245.849 322.802C245.876 322.915 245.92 323.023 245.979 323.123C248.865 327.656 251.759 332.186 254.659 336.712C254.332 337.9 253.938 339.069 253.479 340.212C252.752 342.132 252.025 344.056 251.299 345.983L249.299 351.352C248.56 352.971 247.945 354.642 247.459 356.353C246.829 359.353 249.679 360.233 252.029 360.703C255.259 361.353 258.029 363.153 261.029 364.493C264.127 365.843 267.46 366.574 270.839 366.642C271.079 366.656 271.317 366.591 271.517 366.458C271.717 366.324 271.869 366.129 271.949 365.903C273.577 360.942 274.699 355.829 275.299 350.642C275.971 345.669 276.345 340.66 276.419 335.642C276.789 333.792 277.519 331.972 277.819 330.132C278.197 328.416 277.884 326.62 276.949 325.132C276.627 324.208 276.183 323.33 275.629 322.522C273.769 319.722 271.629 317.242 270.019 314.242C268.409 311.242 267.089 307.843 265.749 304.593L263.589 299.433C263.173 298.049 262.44 296.783 261.449 295.733C261.035 295.357 260.521 295.109 259.969 295.018C259.417 294.928 258.851 294.999 258.339 295.222C258.114 294.402 257.598 293.691 256.889 293.222C256.581 293.033 256.243 292.901 255.889 292.832C255.433 292.756 254.966 292.785 254.523 292.919C254.081 293.053 253.676 293.286 253.339 293.602C253.076 293.254 252.74 292.967 252.355 292.761C251.97 292.556 251.545 292.437 251.109 292.412C250.946 292.397 250.782 292.397 250.619 292.412C250.556 292.337 250.476 292.276 250.386 292.237C250.295 292.197 250.197 292.178 250.099 292.183H249.899C249.443 292.202 248.997 292.318 248.59 292.523C248.184 292.729 247.825 293.018 247.539 293.373C246.959 293.882 246.515 294.528 246.249 295.252C246.046 295.186 245.83 295.166 245.619 295.192C245.471 295.04 245.275 294.946 245.064 294.926C244.853 294.905 244.642 294.961 244.469 295.082C243.775 295.596 243.227 296.281 242.876 297.069C242.526 297.858 242.385 298.724 242.469 299.582C242.469 299.802 242.469 300.022 242.469 300.252C242.469 300.404 242.51 300.553 242.589 300.683C242.823 302.144 243.158 303.587 243.589 305.002C244.449 308.112 245.239 311.243 246.089 314.373C244.849 313.693 243.489 313.452 242.359 314.462C241.229 315.472 241.749 316.902 242.409 317.972Z"
                    fill="white"
                />
                <path
                    d="M277.229 343.582C277.139 344.362 277.059 345.142 276.959 345.922C276.109 352.97 274.816 359.957 273.089 366.842C272.259 366.612 271.429 366.352 270.609 366.092C272.269 359.322 273.609 352.472 274.809 345.602C274.949 344.822 275.079 344.042 275.209 343.262C275.389 342.262 275.569 341.352 275.729 340.392C276.039 338.532 276.279 336.672 276.559 334.802C276.879 332.672 277.629 330.672 277.559 328.472C277.559 326.062 276.299 324.112 274.869 322.262C272.082 318.851 269.65 315.166 267.609 311.262C265.731 307.345 264.267 303.243 263.239 299.022C262.799 297.382 261.519 294.192 259.239 295.122C257.239 295.902 258.339 299.052 258.739 300.482C260.275 305.616 262.527 310.508 265.429 315.012C265.989 315.882 264.489 316.882 263.909 316.012C260.937 311.503 258.665 306.571 257.169 301.382C256.589 299.432 255.879 297.092 256.849 295.142C257.077 294.714 257.39 294.337 257.767 294.032C258.145 293.728 258.58 293.503 259.047 293.37C259.514 293.237 260.002 293.2 260.484 293.261C260.965 293.321 261.429 293.478 261.849 293.722C263.899 294.722 264.679 296.932 265.219 299.002C265.828 301.503 266.599 303.962 267.529 306.362C269.495 311.248 272.159 315.822 275.439 319.942C277.079 322.012 278.769 324.152 279.259 326.812C279.629 329.022 277.529 340.792 277.229 343.582Z"
                    fill="black"
                />
                <path
                    d="M253.769 291.672C255.769 290.672 258.769 291.953 258.349 294.483C258.324 294.62 258.249 294.743 258.139 294.83C258.03 294.916 257.892 294.958 257.752 294.95C257.613 294.941 257.482 294.882 257.383 294.783C257.285 294.684 257.226 294.552 257.219 294.412C257.192 294.109 257.082 293.818 256.901 293.573C256.72 293.328 256.474 293.138 256.191 293.024C255.909 292.91 255.6 292.877 255.299 292.928C254.999 292.979 254.718 293.112 254.489 293.313C254.056 293.657 253.699 294.087 253.441 294.575C253.183 295.064 253.029 295.601 252.989 296.153C252.766 298.505 252.98 300.878 253.619 303.153C254.203 305.411 254.997 307.611 255.989 309.722C256.479 310.802 256.989 311.882 257.509 312.942C257.939 313.832 258.759 314.882 258.389 315.882C258.329 316.055 258.205 316.197 258.043 316.279C257.88 316.361 257.692 316.377 257.519 316.323C256.759 316.093 256.579 315.553 256.229 314.873C255.879 314.193 255.479 313.333 255.119 312.563C254.449 311.133 253.819 309.683 253.269 308.203C252.1 305.276 251.368 302.193 251.099 299.052C250.989 296.442 251.089 293.022 253.769 291.672Z"
                    fill="black"
                />
                <path
                    d="M247.989 291.332C249.809 290.502 252.899 291.162 253.379 293.402C253.394 293.502 253.377 293.604 253.33 293.693C253.283 293.782 253.209 293.853 253.118 293.897C253.027 293.941 252.925 293.954 252.826 293.935C252.727 293.917 252.637 293.866 252.569 293.792C252.274 293.395 251.882 293.08 251.43 292.878C250.978 292.677 250.481 292.595 249.989 292.642C249.504 292.74 249.046 292.939 248.644 293.227C248.243 293.515 247.907 293.885 247.659 294.312C246.239 296.492 246.889 299.392 247.399 301.752C247.942 304.215 248.695 306.628 249.649 308.962C250.139 310.172 250.649 311.342 251.309 312.502C251.809 313.502 252.849 314.642 252.689 315.752C252.679 315.879 252.642 316.001 252.578 316.111C252.515 316.221 252.428 316.315 252.323 316.386C252.218 316.457 252.098 316.504 251.973 316.522C251.847 316.541 251.719 316.53 251.599 316.492C250.269 315.992 249.599 313.932 249.049 312.722C248.339 311.182 247.659 309.632 247.049 308.032C245.842 304.945 245.058 301.709 244.719 298.412C244.539 295.752 245.369 292.542 247.989 291.332Z"
                    fill="black"
                />
                <path
                    d="M241.299 299.932C241.479 297.762 242.709 294.932 244.869 294.092C245.239 293.942 245.759 294.382 245.439 294.752C244.682 295.516 244.099 296.433 243.729 297.442C243.415 298.464 243.293 299.536 243.369 300.602C243.714 303.204 244.439 305.741 245.519 308.132C246.519 310.702 247.429 313.292 248.399 315.862C248.919 317.222 249.399 318.582 249.909 319.942C250.38 320.88 250.671 321.898 250.769 322.942C250.827 323.048 250.858 323.167 250.858 323.287C250.858 323.408 250.827 323.527 250.769 323.632C250.159 324.632 249.009 323.682 248.639 322.972C248.294 322.175 247.99 321.361 247.729 320.532C247.419 319.712 247.109 318.912 246.809 318.092C245.629 314.892 244.409 311.712 243.239 308.522C242.199 305.762 241.049 302.922 241.299 299.932Z"
                    fill="black"
                />
                <path
                    d="M255.209 337.883C254.946 339.065 254.554 340.216 254.039 341.313C253.039 343.653 252.319 346.073 251.429 348.453C250.202 351.679 248.965 354.906 247.719 358.133L245.379 357.313C246.585 354.086 247.822 350.869 249.089 347.663C250.509 344.113 252.279 340.763 253.919 337.333C250.285 331.999 246.712 326.619 243.199 321.193C242.049 319.433 240.059 316.643 241.439 314.473C242.819 312.303 245.669 313.713 247.039 315.123C247.479 315.563 246.839 316.123 246.359 315.893C245.539 315.413 244.209 314.473 243.279 315.153C242.349 315.833 243.279 317.463 243.629 318.203C244.769 320.293 246.259 322.203 247.629 324.203C249.229 326.603 250.829 328.993 252.419 331.393C253.209 332.603 253.999 333.803 254.779 335.013C255.287 335.878 255.441 336.906 255.209 337.883Z"
                    fill="black"
                />
                <path
                    d="M239.239 411.153C235.211 411.108 231.23 410.28 227.519 408.713C221.049 406.033 216.389 401.713 214.399 396.563C213.417 393.985 212.746 391.299 212.399 388.563C212.069 385.923 211.829 382.073 213.399 379.083C215.559 375.003 218.399 370.653 222.959 369.363C225.024 368.798 227.157 368.519 229.299 368.533C230.809 368.523 232.317 368.667 233.799 368.963C235.955 369.338 237.963 370.308 239.599 371.763L240.599 372.833L241.199 371.483C241.247 371.383 241.287 371.279 241.319 371.173C242.319 368.463 243.319 365.813 244.269 363.173L245.989 358.583L247.409 359.083L257.789 362.643C261.175 363.809 264.575 365.009 267.989 366.243C268.799 366.533 269.569 366.803 270.349 367.063C270.859 367.233 271.349 367.413 271.939 367.573C271.859 367.853 271.789 368.133 271.709 368.423C270.809 371.853 269.799 375.223 268.709 378.423C266.477 385.175 263.555 391.68 259.989 397.833C259.409 398.833 258.919 399.573 258.429 400.263C257.849 401.113 257.199 401.983 256.429 402.843C253.776 406.19 250.218 408.706 246.179 410.093C243.915 410.81 241.553 411.168 239.179 411.153H239.239Z"
                    fill="white"
                />
                <path
                    d="M246.579 359.853L247.029 360.013H247.159H247.229L257.419 363.513C261.109 364.783 264.419 365.943 267.569 367.073C268.359 367.353 269.149 367.643 269.959 367.913L270.639 368.133C269.759 371.513 268.759 374.843 267.639 378.023C265.462 384.703 262.6 391.141 259.099 397.233C258.529 398.233 258.039 398.943 257.559 399.633C257.007 400.535 256.406 401.406 255.759 402.243C253.236 405.438 249.843 407.834 245.989 409.143C243.814 409.824 241.547 410.161 239.269 410.143C235.371 410.095 231.519 409.29 227.929 407.773C221.689 405.243 217.229 401.103 215.329 396.243C214.357 393.744 213.685 391.139 213.329 388.483C213.019 385.983 212.779 382.343 214.229 379.603C216.289 375.713 218.959 371.603 223.169 370.373C225.147 369.836 227.189 369.57 229.239 369.583C230.682 369.571 232.123 369.708 233.539 369.993C235.501 370.311 237.332 371.182 238.819 372.503L240.819 374.633L242.039 371.953C242.099 371.823 242.149 371.683 242.199 371.553V371.503C243.199 368.863 244.139 366.213 245.119 363.573L246.309 360.343L246.379 360.173C246.379 360.083 246.449 359.993 246.469 359.913M245.279 357.373C245.039 358.003 244.809 358.623 244.579 359.253L244.419 359.703C243.049 363.413 241.669 367.123 240.309 370.843C240.309 370.943 240.239 371.043 240.199 371.143C238.47 369.524 236.316 368.431 233.989 367.993C232.441 367.688 230.866 367.537 229.289 367.543C227.056 367.531 224.832 367.824 222.679 368.413C217.739 369.803 214.779 374.333 212.509 378.633C210.909 381.633 210.989 385.383 211.399 388.693C211.755 391.509 212.45 394.273 213.469 396.923C215.819 403.023 221.239 407.203 227.129 409.633C230.964 411.248 235.077 412.104 239.239 412.153C241.728 412.17 244.205 411.795 246.579 411.043C250.8 409.603 254.518 406.978 257.289 403.483C258 402.634 258.668 401.75 259.289 400.833C259.859 400.023 260.379 399.183 260.889 398.343C264.455 392.125 267.374 385.557 269.599 378.743C270.725 375.409 271.725 372.046 272.599 368.653C272.769 368.053 272.929 367.453 273.069 366.843C272.239 366.623 271.419 366.363 270.599 366.093L268.279 365.243C264.889 364.023 261.499 362.843 258.099 361.673L247.909 358.243L247.719 358.173C246.939 357.913 246.169 357.633 245.389 357.353L245.279 357.373Z"
                    fill="black"
                />
                <path
                    d="M359.399 352.773C359.799 353.343 360.189 353.903 360.579 354.483L362.969 352.683C367.569 349.263 372.769 345.853 375.639 340.683C377.034 338.253 377.726 335.483 377.639 332.683C377.406 329.799 376.749 326.965 375.689 324.273C374.526 321.362 373.639 318.349 373.039 315.273C372.909 314.423 372.849 311.603 374.399 313.003C375.565 314.298 376.597 315.708 377.479 317.213C379.129 319.563 380.879 321.893 382.479 324.293C382.779 324.773 383.089 325.293 383.389 325.713C383.469 325.863 383.559 326.003 383.649 326.143C385.209 328.773 386.389 331.683 386.059 334.793C386.048 334.931 386.089 335.069 386.173 335.18C386.258 335.291 386.38 335.367 386.516 335.394C386.653 335.421 386.795 335.397 386.915 335.327C387.035 335.257 387.125 335.145 387.169 335.013C388.289 331.393 386.859 327.843 384.979 324.733C384.789 324.413 384.589 324.093 384.389 323.783C383.979 323.123 383.539 322.473 383.099 321.783C381.439 319.323 379.649 316.943 377.949 314.543C377.069 313.313 376.229 311.673 374.819 310.973C374.3 310.698 373.699 310.623 373.129 310.764C372.559 310.904 372.061 311.249 371.729 311.733C371.142 312.796 370.951 314.032 371.189 315.223C371.406 316.891 371.781 318.535 372.309 320.133C374.199 326.073 377.519 332.463 374.399 338.603C371.499 344.283 365.529 348.043 360.579 351.763L359.399 352.773Z"
                    fill="black"
                />
                <path
                    d="M382.479 324.372C382.779 324.852 383.089 325.372 383.389 325.792C383.469 325.942 383.559 326.082 383.649 326.222C383.97 325.461 384.218 324.671 384.389 323.862C384.689 322.692 384.939 321.622 385.159 320.542C385.579 318.542 385.919 316.472 386.209 314.422C386.499 312.372 386.799 310.192 387.089 308.072C387.268 306.054 387.578 304.05 388.019 302.072C388.143 301.303 388.549 300.608 389.159 300.122C390.159 299.542 391.239 300.322 391.719 301.182C392.719 302.992 391.979 305.742 391.719 307.672C391.339 310.672 390.839 313.672 390.349 316.722C390.129 318.012 389.919 319.302 389.709 320.592C389.683 320.67 389.683 320.754 389.709 320.832C389.755 320.939 389.832 321.031 389.93 321.095C390.028 321.158 390.142 321.193 390.259 321.193C390.375 321.193 390.49 321.158 390.587 321.095C390.685 321.031 390.762 320.939 390.809 320.832C390.999 320.142 391.179 319.462 391.349 318.762C391.899 316.532 392.349 314.282 392.689 312.012C392.939 310.472 393.149 308.932 393.349 307.372C393.709 304.492 394.519 300.102 391.139 298.642C388.139 297.332 386.559 300.512 386.139 302.942C385.439 306.792 385.019 310.692 384.429 314.552C384.119 316.552 383.769 318.622 383.349 320.642C383.259 321.072 383.159 321.512 383.059 321.952C382.959 322.392 382.799 323.092 382.659 323.662C382.629 323.872 382.559 324.122 382.479 324.372Z"
                    fill="black"
                />
                <path
                    d="M389.739 320.572C389.713 320.65 389.713 320.734 389.739 320.812C389.854 320.81 389.967 320.78 390.068 320.724C390.169 320.668 390.255 320.589 390.319 320.492C390.721 319.933 391.075 319.341 391.379 318.722C391.969 317.542 392.459 316.282 393.009 315.152C393.879 313.352 394.749 311.562 395.609 309.762C396.469 307.962 397.309 306.152 398.169 304.362C398.779 303.092 399.579 300.102 401.519 300.812C403.459 301.522 402.949 304.402 402.369 305.942C401.689 307.722 400.849 309.462 400.069 311.212C398.449 314.772 396.599 318.212 395.069 321.802C394.829 322.342 395.669 322.732 395.979 322.252C398.167 318.679 400.108 314.961 401.789 311.122C403.049 308.412 405.269 304.922 404.269 301.812C403.519 299.502 400.539 298.162 398.719 300.162C397.765 301.477 396.997 302.917 396.439 304.442C395.589 306.172 394.719 307.892 393.869 309.622L392.729 311.972C392.299 312.862 391.869 313.742 391.449 314.622C391.119 315.302 390.729 315.992 390.369 316.702C390.159 317.992 389.989 319.242 389.739 320.572Z"
                    fill="black"
                />
                <path
                    d="M417.539 320.102C416.899 322.812 414.859 324.392 413.049 326.322C412.369 327.042 411.719 327.792 411.049 328.562C409.208 330.812 407.724 333.332 406.649 336.032C405.229 339.572 403.819 343.202 402.099 346.532C400.835 348.88 399.212 351.016 397.289 352.862C395.289 354.862 393.719 356.502 391.489 358.352C389.092 360.484 386.936 362.872 385.059 365.472C382.866 368.403 380.502 371.201 377.979 373.852C377.189 374.632 376.399 375.412 375.579 376.162C375.209 375.612 374.839 375.082 374.469 374.522C375.169 373.852 375.859 373.162 376.539 372.462C379.153 369.712 381.604 366.81 383.879 363.772C387.519 359.042 392.269 355.472 396.529 351.352C398.477 349.543 400.086 347.399 401.279 345.022C402.819 341.812 404.039 338.442 405.339 335.122C406.615 332.156 408.331 329.398 410.429 326.942C411.229 325.917 412.087 324.939 412.999 324.012C413.94 323.201 414.747 322.246 415.389 321.182C415.653 320.679 415.854 320.145 415.989 319.592C416.064 319.308 416.111 319.016 416.129 318.722C416.129 318.292 416.039 318.172 415.609 318.112C414.982 318.095 414.36 318.218 413.787 318.472C413.214 318.727 412.706 319.106 412.299 319.582C410.459 321.382 409.019 323.582 407.239 325.442C406.408 326.492 405.391 327.38 404.239 328.062C403.66 328.341 403.01 328.439 402.375 328.343C401.74 328.246 401.149 327.96 400.679 327.522C400.422 327.19 400.244 326.803 400.159 326.392C399.983 325.405 400.108 324.388 400.519 323.472C401.519 321.072 402.609 318.712 403.659 316.342C404.786 314.128 405.761 311.839 406.579 309.492C407.199 307.402 406.489 304.642 403.899 304.592C403.359 304.592 403.329 303.902 403.709 303.652C405.409 302.592 407.399 303.812 408.269 305.362C409.509 307.562 408.529 310.222 407.609 312.362C406.499 314.952 405.359 317.542 404.199 320.112C403.619 321.382 403.029 322.652 402.519 323.952C402.227 324.544 402.103 325.205 402.159 325.862C402.179 325.97 402.206 326.077 402.239 326.182C403.389 326.722 404.179 325.662 404.929 324.912C405.929 323.912 406.929 322.912 407.929 321.912C409.619 320.042 411.259 317.642 413.779 316.832C414.313 316.608 414.893 316.514 415.47 316.559C416.048 316.604 416.606 316.787 417.099 317.092C418.039 317.812 417.769 319.122 417.539 320.102Z"
                    fill="black"
                />
                <path
                    d="M238.159 323.042C238.949 323.402 239.739 323.742 240.549 324.042L240.919 324.182C242.249 323.552 243.569 322.942 244.919 322.332C246.269 321.722 245.249 319.972 244.019 320.462C242.559 321.062 241.099 321.682 239.659 322.332C239.139 322.582 238.639 322.802 238.159 323.042Z"
                    fill="black"
                />
                <path
                    d="M305.629 371.672L307.329 373.123C307.889 369.533 308.489 366.122 309.139 362.642C309.574 359.557 310.291 356.518 311.279 353.563C311.79 352.186 312.565 350.923 313.559 349.843C314.309 349.053 315.469 348.113 315.439 346.933C315.444 346.827 315.419 346.722 315.366 346.631C315.312 346.539 315.233 346.466 315.139 346.419C315.044 346.372 314.938 346.354 314.833 346.367C314.728 346.38 314.629 346.424 314.549 346.493C313.999 346.933 313.599 347.552 313.059 348.032C312.519 348.512 312.059 348.902 311.659 349.392C310.746 350.457 310.019 351.667 309.509 352.972C308.5 355.867 307.783 358.855 307.369 361.892C306.739 365.152 306.149 368.402 305.629 371.672Z"
                    fill="black"
                />
                <path
                    d="M345.319 364.853C345.331 364.969 345.377 365.08 345.452 365.171C345.527 365.261 345.626 365.328 345.739 365.363C346.026 365.468 346.341 365.468 346.629 365.363C346.851 365.265 347.057 365.133 347.239 364.973C347.539 364.733 347.839 364.503 348.129 364.253C348.719 363.773 349.299 363.253 349.859 362.763C350.419 362.273 351.009 361.693 351.539 361.113C351.759 360.883 351.969 360.643 352.179 360.403C351.789 360.063 351.399 359.703 350.999 359.343L350.279 359.923C349.699 360.413 349.119 360.923 348.539 361.403C347.959 361.883 347.329 362.403 346.719 362.893C346.429 363.133 346.109 363.343 345.819 363.603C345.624 363.741 345.473 363.932 345.384 364.154C345.295 364.376 345.273 364.618 345.319 364.853Z"
                    fill="black"
                />
                <path
                    d="M233.149 384.243C233.789 382.973 234.419 381.703 235.039 380.423C236.289 377.853 237.509 375.253 238.689 372.643C239.869 370.033 240.949 367.543 242.039 364.963C243.065 362.343 244.258 359.791 245.609 357.323C246.139 356.413 247.349 357.193 247.149 358.083C246.475 360.793 245.558 363.437 244.409 365.983C243.309 368.623 242.159 371.253 240.979 373.853C239.799 376.453 238.629 378.933 237.409 381.443C236.809 382.669 236.199 383.899 235.579 385.133C235.009 386.263 234.579 387.683 233.239 388.013C233.062 388.044 232.879 388.017 232.718 387.936C232.558 387.855 232.428 387.724 232.349 387.563C231.859 386.363 232.609 385.343 233.149 384.243Z"
                    fill="black"
                />
                <path
                    d="M256.989 403.502H257.329L259.509 403.412H260.189C260.709 402.592 261.189 401.762 261.659 400.902C263.421 397.656 264.916 394.271 266.129 390.782C267.499 386.912 268.609 382.962 269.669 379.012C270.219 377.012 270.759 375.012 271.289 373.012C271.579 371.932 271.879 370.862 272.109 369.772C272.413 368.834 272.522 367.844 272.429 366.862C272.401 366.737 272.342 366.62 272.257 366.524C272.172 366.428 272.063 366.355 271.942 366.313C271.82 366.271 271.69 366.26 271.563 366.283C271.437 366.306 271.318 366.361 271.219 366.442C269.899 367.712 269.449 370.072 268.959 371.792C268.389 373.792 267.859 375.792 267.309 377.792C266.309 381.702 265.179 385.612 263.849 389.442C262.678 392.89 261.223 396.235 259.499 399.442C258.738 400.841 257.9 402.197 256.989 403.502Z"
                    fill="black"
                />
                <path
                    d="M424.509 172.242H349.729C339.345 172.242 329.387 176.367 322.045 183.709C314.703 191.051 310.579 201.009 310.579 211.392C310.579 221.776 314.703 231.734 322.045 239.076C329.387 246.418 339.345 250.542 349.729 250.542H373.989L387.079 270.672L400.169 250.542H424.469C434.852 250.542 444.81 246.418 452.152 239.076C459.494 231.734 463.619 221.776 463.619 211.392C463.619 201.016 459.499 191.064 452.166 183.723C444.833 176.382 434.885 172.253 424.509 172.242Z"
                    fill="#FB5F2F"
                    stroke="black"
                    stroke-width="2"
                    stroke-miterlimit="10"
                />
                <path
                    d="M387.119 271.242C387.01 271.243 386.904 271.216 386.809 271.163C386.715 271.111 386.635 271.035 386.579 270.942L373.679 251.112H349.729C339.284 250.947 329.322 246.681 321.994 239.236C314.667 231.791 310.559 221.764 310.559 211.317C310.559 200.871 314.667 190.844 321.994 183.399C329.322 175.954 339.284 171.688 349.729 171.522H424.509C434.954 171.688 444.915 175.954 452.243 183.399C459.571 190.844 463.678 200.871 463.678 211.317C463.678 221.764 459.571 231.791 452.243 239.236C444.915 246.681 434.954 250.947 424.509 251.112H400.509L387.609 270.942C387.557 271.028 387.485 271.099 387.4 271.152C387.315 271.204 387.218 271.235 387.119 271.242ZM349.729 172.852C344.599 172.736 339.498 173.645 334.724 175.527C329.951 177.409 325.602 180.227 321.932 183.813C318.263 187.4 315.348 191.684 313.357 196.413C311.366 201.142 310.341 206.221 310.341 211.352C310.341 216.484 311.366 221.563 313.357 226.292C315.348 231.021 318.263 235.305 321.932 238.892C325.602 242.478 329.951 245.295 334.724 247.178C339.498 249.06 344.599 249.969 349.729 249.852H373.989C374.096 249.854 374.202 249.882 374.297 249.934C374.391 249.987 374.471 250.062 374.529 250.152L387.079 269.452L399.629 250.152C399.685 250.06 399.765 249.984 399.859 249.932C399.954 249.879 400.06 249.852 400.169 249.852H424.469C434.528 249.623 444.097 245.466 451.13 238.271C458.163 231.076 462.101 221.414 462.101 211.352C462.101 201.291 458.163 191.629 451.13 184.434C444.097 177.239 434.528 173.082 424.469 172.852H349.729Z"
                    fill="black"
                />
                <path
                    d="M395.114 213.237C396.156 208.818 393.42 204.391 389.002 203.348C384.583 202.305 380.156 205.042 379.113 209.46C378.07 213.879 380.807 218.306 385.225 219.349C389.644 220.391 394.071 217.655 395.114 213.237Z"
                    fill="white"
                />
                <path
                    d="M356.438 213.243C357.481 208.824 354.745 204.397 350.326 203.354C345.908 202.311 341.481 205.048 340.438 209.466C339.395 213.885 342.132 218.312 346.55 219.355C350.968 220.397 355.396 217.661 356.438 213.243Z"
                    fill="white"
                />
                <path
                    d="M431.617 217.173C434.827 213.963 434.827 208.759 431.617 205.548C428.407 202.338 423.203 202.338 419.992 205.548C416.782 208.759 416.782 213.963 419.992 217.173C423.203 220.383 428.407 220.383 431.617 217.173Z"
                    fill="white"
                />
                <path
                    d="M603.249 419.423C603.253 419.446 603.253 419.469 603.249 419.493C603.253 419.516 603.253 419.539 603.249 419.563C603.244 419.586 603.244 419.609 603.249 419.633C603.253 419.649 603.253 419.666 603.249 419.683C603.225 419.739 603.194 419.793 603.159 419.843L571.819 464.792C571.734 464.904 571.626 464.996 571.501 465.06C571.376 465.124 571.239 465.159 571.099 465.163C570.935 465.163 570.775 465.114 570.639 465.023L562.419 459.913L560.789 458.913L549.589 451.913L548.589 451.313C548.422 451.213 548.293 451.06 548.224 450.879C548.155 450.697 548.15 450.498 548.209 450.313C548.221 450.268 548.238 450.224 548.259 450.183C548.286 450.123 548.32 450.066 548.359 450.013C548.427 449.924 548.512 449.849 548.609 449.793C548.741 449.722 548.889 449.684 549.039 449.684C549.189 449.684 549.336 449.722 549.469 449.793L550.699 450.553L562.749 458.243L570.749 463.243L599.339 422.243L600.109 421.133L600.489 420.602L598.189 420.913L593.449 421.543L519.449 431.352L534.989 440.953L535.349 441.163C535.446 441.223 535.53 441.302 535.597 441.395C535.663 441.488 535.711 441.593 535.737 441.705C535.763 441.816 535.767 441.931 535.748 442.044C535.73 442.157 535.689 442.265 535.629 442.363C535.568 442.46 535.489 442.544 535.396 442.611C535.303 442.677 535.198 442.725 535.087 442.751C534.975 442.777 534.86 442.781 534.747 442.762C534.634 442.744 534.526 442.703 534.429 442.643L534.139 442.463L516.479 431.463C516.327 431.368 516.208 431.229 516.138 431.065C516.068 430.9 516.051 430.718 516.088 430.543C516.125 430.369 516.215 430.209 516.346 430.088C516.477 429.966 516.642 429.887 516.819 429.863L602.169 418.563H602.219C602.285 418.553 602.352 418.553 602.419 418.563C602.482 418.552 602.546 418.552 602.609 418.563C602.651 418.552 602.696 418.552 602.739 418.563C602.769 418.572 602.797 418.589 602.819 418.613L602.899 418.673C602.938 418.692 602.969 418.724 602.989 418.763C603.027 418.798 603.061 418.838 603.089 418.883C603.089 418.883 603.089 418.933 603.089 418.943C603.115 418.968 603.136 418.998 603.149 419.033C603.216 419.151 603.25 419.286 603.249 419.423Z"
                    fill="black"
                    stroke="black"
                    stroke-width="0.25"
                    stroke-miterlimit="10"
                />
                <path
                    d="M599.379 422.182L570.789 463.202L562.749 458.202L550.669 450.682L599.379 422.182Z"
                    fill="white"
                    stroke="black"
                    stroke-width="0.25"
                    stroke-miterlimit="10"
                />
                <path
                    d="M560.719 458.982L544.729 469.242L549.509 452.002L560.709 458.972L560.719 458.982Z"
                    fill="white"
                    stroke="black"
                    stroke-width="0.25"
                    stroke-miterlimit="10"
                />
                <path
                    d="M603.249 419.422C603.253 419.445 603.253 419.469 603.249 419.492C603.253 419.516 603.253 419.539 603.249 419.562C603.244 419.586 603.244 419.609 603.249 419.632V419.682C603.225 419.739 603.194 419.793 603.159 419.842C603.115 419.919 603.053 419.985 602.979 420.032L602.859 420.112H602.799L599.459 422.112L550.749 450.612L549.799 451.162L549.589 451.932L544.729 469.242L560.729 458.982L561.879 458.242C562.012 458.164 562.164 458.123 562.319 458.123C562.473 458.123 562.625 458.164 562.759 458.242C562.888 458.315 562.998 458.418 563.079 458.542C563.203 458.736 563.245 458.971 563.196 459.196C563.148 459.421 563.012 459.617 562.819 459.742L562.359 460.032L543.759 471.942H543.699C543.647 471.976 543.589 472 543.529 472.012H543.289C543.212 472.023 543.135 472.023 543.059 472.012C542.956 471.98 542.858 471.933 542.769 471.872L542.599 471.702C542.575 471.665 542.555 471.624 542.539 471.582C542.539 471.582 542.539 471.582 542.539 471.522V471.462C542.504 471.318 542.504 471.167 542.539 471.022L543.359 468.022L548.229 450.462C548.241 450.418 548.258 450.374 548.279 450.332C548.306 450.273 548.34 450.216 548.379 450.162C548.447 450.074 548.532 449.999 548.629 449.942L594.849 422.942L598.269 420.942L601.979 418.772C602.02 418.742 602.068 418.722 602.119 418.712C602.155 418.704 602.192 418.704 602.229 418.712C602.295 418.703 602.362 418.703 602.429 418.712C602.492 418.702 602.556 418.702 602.619 418.712C602.692 418.73 602.762 418.757 602.829 418.792L602.909 418.852C602.948 418.872 602.979 418.903 602.999 418.942C603.037 418.978 603.071 419.018 603.099 419.062C603.126 419.11 603.149 419.161 603.169 419.212C603.205 419.278 603.232 419.349 603.249 419.422Z"
                    fill="black"
                    stroke="black"
                    stroke-width="0.25"
                    stroke-miterlimit="10"
                />
                <path
                    d="M593.479 421.482L534.979 440.952L519.449 431.292L593.479 421.482Z"
                    fill="white"
                />
                <path
                    d="M594.799 422.862L548.579 449.862C548.482 449.919 548.397 449.994 548.329 450.082C548.29 450.136 548.256 450.192 548.229 450.252C548.208 450.294 548.191 450.337 548.179 450.382L543.309 467.942L535.989 442.462L594.799 422.872V422.862Z"
                    fill="white"
                    stroke="black"
                    stroke-width="0.25"
                    stroke-miterlimit="10"
                />
                <path
                    d="M603.229 419.562C603.233 419.602 603.233 419.643 603.229 419.682C603.205 419.739 603.174 419.793 603.139 419.842C603.095 419.919 603.033 419.985 602.959 420.032L602.839 420.112C602.803 420.137 602.762 420.154 602.719 420.162L600.209 420.992L594.859 422.782L535.989 442.462L543.309 467.992L544.149 470.992C544.199 471.165 544.194 471.35 544.135 471.52C544.076 471.69 543.965 471.838 543.819 471.942L543.729 472.002C543.677 472.036 543.619 472.06 543.559 472.072H543.329C543.252 472.083 543.175 472.083 543.099 472.072C542.996 472.04 542.898 471.993 542.809 471.932L542.639 471.762C542.615 471.725 542.595 471.684 542.579 471.642C542.579 471.642 542.579 471.642 542.579 471.582V471.522L534.269 442.572L534.179 442.252C534.118 442.035 534.144 441.803 534.25 441.604C534.356 441.405 534.535 441.254 534.749 441.182L535.119 441.062L593.619 421.592L602.219 418.732C602.255 418.724 602.292 418.724 602.329 418.732C602.395 418.723 602.462 418.723 602.529 418.732C602.591 418.722 602.656 418.722 602.719 418.732C602.761 418.722 602.806 418.722 602.849 418.732C602.879 418.742 602.907 418.759 602.929 418.782L603.009 418.842C603.048 418.862 603.079 418.893 603.099 418.932C603.137 418.968 603.171 419.008 603.199 419.052C603.199 419.052 603.199 419.102 603.199 419.112C603.225 419.137 603.246 419.168 603.259 419.202C603.274 419.323 603.263 419.446 603.229 419.562Z"
                    fill="black"
                    stroke="black"
                    stroke-width="0.25"
                    stroke-miterlimit="10"
                />
                <path
                    d="M471.989 502.003C467.477 502.045 462.998 501.234 458.789 499.613C452.789 497.263 448.459 493.343 446.509 488.563C446.478 488.494 446.451 488.424 446.429 488.353C441.972 489.921 437.243 490.571 432.529 490.263C425.529 489.613 419.399 485.663 416.929 480.263C413.489 472.663 417.139 463.913 420.819 457.913C426.639 448.473 434.405 440.383 443.599 434.183C443.693 434.118 443.799 434.073 443.911 434.05C444.023 434.026 444.139 434.025 444.251 434.047C444.364 434.068 444.471 434.111 444.566 434.174C444.662 434.237 444.744 434.318 444.809 434.413C444.936 434.604 444.984 434.838 444.941 435.064C444.898 435.291 444.768 435.491 444.579 435.623C435.587 441.684 427.992 449.593 422.299 458.823C418.839 464.463 415.379 472.643 418.509 479.543C420.729 484.433 426.299 487.983 432.699 488.543C437.17 488.826 441.653 488.203 445.879 486.713C444.529 481.713 445.499 475.823 448.659 470.243C450.555 466.642 453.401 463.63 456.889 461.533C458.68 460.466 460.685 459.81 462.76 459.611C464.834 459.413 466.928 459.676 468.889 460.383C470.63 461.002 472.082 462.241 472.969 463.863C474.539 467.133 472.499 470.783 471.149 472.663C466.999 478.423 460.599 482.893 450.989 486.663C450.079 487.023 449.119 487.393 448.099 487.753L448.149 487.863C450.539 493.713 456.259 496.693 459.449 497.953C469.619 501.953 482.079 500.683 497.529 494.083C510.267 488.635 522.163 481.399 532.859 472.593C532.946 472.519 533.048 472.463 533.157 472.428C533.267 472.394 533.382 472.381 533.497 472.391C533.611 472.402 533.722 472.434 533.824 472.488C533.925 472.541 534.015 472.614 534.089 472.703C534.234 472.882 534.303 473.112 534.281 473.342C534.258 473.572 534.146 473.784 533.969 473.933C523.143 482.843 511.102 490.163 498.209 495.673C488.359 499.913 479.689 502.003 471.989 502.003ZM464.269 461.243C461.979 461.264 459.734 461.873 457.749 463.013C454.541 464.94 451.921 467.706 450.169 471.013C447.259 476.153 446.339 481.533 447.529 486.073C448.529 485.733 449.439 485.373 450.319 485.073C459.599 481.373 465.759 477.073 469.709 471.613C470.839 470.043 472.549 467.043 471.369 464.613C470.68 463.379 469.557 462.445 468.219 461.993C466.961 461.494 465.621 461.24 464.269 461.243Z"
                    fill="#E55E1A"
                    stroke="#E55E1A"
                    stroke-width="0.25"
                    stroke-miterlimit="10"
                />
                <defs>
                    <filter
                        id="filter0_d_22_842"
                        x="80"
                        y="10"
                        width="614.762"
                        height="614.766"
                        filterUnits="userSpaceOnUse"
                        color-interpolation-filters="sRGB"
                    >
                        <feFlood
                            flood-opacity="0"
                            result="BackgroundImageFix"
                        />
                        <feColorMatrix
                            in="SourceAlpha"
                            type="matrix"
                            values="0 0 0 0 0 0 0 0 0 0 0 0 0 0 0 0 0 0 127 0"
                            result="hardAlpha"
                        />
                        <feOffset />
                        <feGaussianBlur stdDeviation="7.5" />
                        <feComposite
                            in2="hardAlpha"
                            operator="out"
                        />
                        <feColorMatrix
                            type="matrix"
                            values="0 0 0 0 0 0 0 0 0 0 0 0 0 0 0 0 0 0 0.25 0"
                        />
                        <feBlend
                            mode="normal"
                            in2="BackgroundImageFix"
                            result="effect1_dropShadow_22_842"
                        />
                        <feBlend
                            mode="normal"
                            in="SourceGraphic"
                            in2="effect1_dropShadow_22_842"
                            result="shape"
                        />
                    </filter>
                </defs>
            </svg>