<svg width="1920" height="1285" viewBox="0 0 1920 1285" fill="none" xmlns="http://www.w3.org/2000/svg">
<g opacity="0.63">
<path opacity="0.69" d="M1678.98 1279.79L1997.86 1158.9C2007.46 1155.27 2016.25 1149.78 2023.72 1142.75C2031.19 1135.71 2037.19 1127.27 2041.38 1117.9L2181.38 806.971C2185.62 797.621 2187.96 787.525 2188.28 777.266C2188.59 767.007 2186.88 756.786 2183.23 747.191L2062.33 428.291C2058.7 418.689 2053.2 409.897 2046.17 402.418C2039.13 394.938 2030.69 388.918 2021.33 384.701L1710.4 244.701C1691.51 236.211 1670.02 235.571 1650.65 242.921L1331.77 363.811C1312.38 371.17 1296.7 385.913 1288.15 404.811L1148.15 715.751C1139.69 734.673 1139.06 756.177 1146.4 775.561L1267.29 1094.44C1270.92 1104.03 1276.4 1112.82 1283.43 1120.29C1290.45 1127.76 1298.88 1133.78 1308.23 1137.99L1619.16 1277.99C1628.53 1282.21 1638.64 1284.55 1648.91 1284.86C1659.17 1285.18 1669.41 1283.46 1679.01 1279.82" fill="#F9EDD5"/>
<path opacity="0.69" d="M730.753 711.411L948.462 628.881C955.016 626.403 961.014 622.653 966.113 617.848C971.212 613.042 975.31 607.276 978.172 600.881L1073.75 388.601C1076.64 382.217 1078.24 375.326 1078.46 368.322C1078.67 361.319 1077.5 354.341 1075.01 347.791L992.482 130.071C987.466 116.828 977.394 106.119 964.482 100.301L752.172 4.69131C745.787 1.81916 738.898 0.23316 731.899 0.0238302C724.9 -0.1855 717.929 0.985965 711.383 3.47134L493.672 86.0113C480.43 91.0375 469.719 101.105 463.882 114.011L368.312 326.301C362.529 339.221 362.097 353.905 367.112 367.141L449.652 584.851C454.66 598.074 464.714 608.767 477.602 614.581L689.892 710.151C696.286 713.038 703.186 714.634 710.198 714.849C717.21 715.063 724.195 713.891 730.753 711.401" fill="#F9EDD5"/>
</g>
<path d="M255.692 123.551L159.912 88.0212C157.031 86.9496 153.966 86.4589 150.893 86.5774C147.821 86.6958 144.803 87.421 142.012 88.7113L49.1624 131.311C46.3683 132.591 43.8542 134.41 41.7641 136.663C39.6741 138.916 38.0491 141.559 36.9824 144.441L1.46241 240.221C-0.697783 246.051 -0.456821 252.499 2.13241 258.151L44.7424 350.991C47.3361 356.629 52.0624 361.007 57.8824 363.161L153.652 398.691C159.477 400.853 165.92 400.619 171.572 398.041L264.412 355.431C270.052 352.831 274.431 348.103 276.592 342.281L312.112 246.491C314.271 240.676 314.034 234.242 311.452 228.601L268.842 135.761C267.563 132.961 265.742 130.442 263.486 128.348C261.229 126.254 258.58 124.628 255.692 123.561" stroke="#EEEEEE" stroke-width="2" stroke-miterlimit="10"/>
<path d="M743.302 62.2213L533.372 107.841C527.053 109.209 521.066 111.813 515.757 115.505C510.449 119.197 505.924 123.903 502.442 129.351L386.272 310.031C382.763 315.462 380.362 321.533 379.207 327.894C378.052 334.256 378.166 340.784 379.542 347.101L425.172 557.031C426.543 563.359 429.148 569.355 432.839 574.674C436.53 579.994 441.234 584.533 446.682 588.031L627.372 704.201C638.351 711.253 651.682 713.656 664.432 710.881L874.352 665.251C887.116 662.478 898.263 654.762 905.352 643.791L1021.52 463.101C1028.56 452.101 1030.95 438.762 1028.18 426.001L982.562 216.071C981.193 209.756 978.593 203.772 974.911 198.462C971.229 193.151 966.537 188.618 961.102 185.121L780.422 68.9313C774.979 65.429 768.899 63.0338 762.53 61.8824C756.161 60.7311 749.627 60.8462 743.302 62.2213" stroke="#EEEEEE" stroke-width="2" stroke-miterlimit="10"/>
</svg>
