<svg width="52" height="49" viewBox="0 0 52 49" fill="none" xmlns="http://www.w3.org/2000/svg">
<path d="M51.3954 21.7314V24.5076C51.354 24.6307 51.3237 24.7572 51.305 24.8857C51.0634 28.2101 49.9871 31.42 48.1754 34.219C43.3962 41.5547 36.4366 45.1943 27.8386 45.8828C23.8011 46.1935 19.7455 45.5878 15.9755 44.1109C15.7641 44.0497 15.5378 44.0657 15.3372 44.1561C14.6028 44.4833 13.8967 44.8896 13.1623 45.2113C9.54399 46.75 5.74915 47.836 1.86409 48.4446C1.41216 48.5236 0.994131 48.5067 0.734272 48.0553C0.474414 47.6038 0.700378 47.2822 0.954587 46.9267C1.48185 46.2542 1.95772 45.5431 2.37816 44.7993C3.63791 42.3221 4.14068 39.6361 4.47962 36.8993C4.67255 36.1332 4.55479 35.322 4.15198 34.6422C0.728623 29.4226 -0.271267 23.712 1.38957 17.6459C3.02781 11.6871 6.75621 7.26874 12.0042 4.13132C17.1739 1.02251 23.2436 -0.250136 29.2283 0.519894C35.0169 1.09745 40.4399 3.61307 44.6165 7.6581C47.8302 10.6745 50.0388 14.6042 50.9434 18.9156C51.1355 19.841 51.2428 20.789 51.3954 21.7314ZM14.1622 26.5052C14.8342 26.5052 15.4911 26.3056 16.0493 25.9318C16.6075 25.558 17.0419 25.0268 17.2972 24.4059C17.5526 23.7849 17.6173 23.1021 17.4833 22.4443C17.3493 21.7865 17.0225 21.1833 16.5445 20.7114C16.0666 20.2396 15.4589 19.9203 14.7989 19.7941C14.1388 19.668 13.4561 19.7407 12.8375 20.003C12.2188 20.2653 11.6923 20.7054 11.3246 21.2674C10.957 21.8293 10.7649 22.4878 10.7727 23.159C10.7831 24.0501 11.1448 24.9011 11.7793 25.5276C12.4139 26.154 13.27 26.5053 14.1622 26.5052ZM37.7754 26.5052C38.2205 26.5134 38.6629 26.434 39.0773 26.2714C39.4917 26.1088 39.8699 25.8663 40.1905 25.5576C40.511 25.249 40.7675 24.8803 40.9454 24.4726C41.1232 24.0649 41.2189 23.6262 41.227 23.1816C41.2392 22.5121 41.0523 21.8541 40.6901 21.2906C40.3279 20.7272 39.8066 20.2837 39.1921 20.0163C38.5776 19.7488 37.8975 19.6693 37.2378 19.7879C36.578 19.9065 35.9683 20.2178 35.4857 20.6825C35.0031 21.1473 34.6693 21.7445 34.5265 22.3987C34.3836 23.0529 34.4382 23.7347 34.6833 24.3579C34.9284 24.9811 35.3529 25.5178 35.9033 25.9C36.4537 26.2822 37.1052 26.4928 37.7754 26.5052V26.5052ZM26.0253 26.5052C26.9242 26.5052 27.7863 26.1485 28.422 25.5136C29.0576 24.8786 29.4147 24.0175 29.4147 23.1195C29.4147 22.2216 29.0576 21.3604 28.422 20.7255C27.7863 20.0905 26.9242 19.7338 26.0253 19.7338C25.1263 19.7338 24.2642 20.0905 23.6286 20.7255C22.9929 21.3604 22.6358 22.2216 22.6358 23.1195C22.6358 24.0175 22.9929 24.8786 23.6286 25.5136C24.2642 26.1485 25.1263 26.5052 26.0253 26.5052V26.5052Z" fill="white"/>
</svg>
