<svg width="375" height="413" viewBox="0 0 375 413" fill="none" xmlns="http://www.w3.org/2000/svg">
<path d="M712.574 943.927L828.424 574.377C831.924 563.259 833.189 551.559 832.147 539.95C831.106 528.342 827.777 517.054 822.354 506.737L642.984 163.537C637.609 153.194 630.241 144.016 621.305 136.531C612.369 129.047 602.04 123.404 590.914 119.927L221.375 4.06702C210.241 0.576358 198.529 -0.685915 186.907 0.352179C175.286 1.39027 163.983 4.70819 153.645 10.1168L-189.555 189.447C-199.875 194.845 -209.031 202.224 -216.498 211.162C-223.965 220.1 -229.598 230.421 -233.076 241.537L-348.936 611.087C-355.97 633.559 -353.813 657.902 -342.936 678.787L-163.566 1021.99C-152.614 1042.83 -133.852 1058.49 -111.385 1065.54L258.125 1181.45C280.565 1188.49 304.884 1186.33 325.734 1175.45L668.935 996.077C679.278 990.678 688.456 983.293 695.944 974.344C703.432 965.396 709.083 955.061 712.574 943.927" fill="url(#paint0_linear_274_3344)"/>
<defs>
<linearGradient id="paint0_linear_274_3344" x1="342" y1="440" x2="94" y2="60.9999" gradientUnits="userSpaceOnUse">
<stop stop-color="#F2A419"/>
<stop offset="0.3" stop-color="#F19E17"/>
<stop offset="0.68" stop-color="#ED8E10"/>
<stop offset="1" stop-color="#E87B09"/>
</linearGradient>
</defs>
</svg>
