<svg width="376" height="450" viewBox="0 0 376 450" fill="none" xmlns="http://www.w3.org/2000/svg">
<path d="M351.318 97.9481L343.665 95.1159C343.434 95.0308 343.189 94.9919 342.943 95.0014C342.697 95.011 342.456 95.069 342.232 95.1719L334.812 98.566C334.589 98.6681 334.387 98.8135 334.22 98.9934C334.053 99.1734 333.923 99.3846 333.837 99.6148L330.998 107.249C330.912 107.479 330.872 107.723 330.881 107.969C330.89 108.214 330.947 108.455 331.049 108.678L334.457 116.08C334.559 116.303 334.705 116.503 334.885 116.67C335.066 116.837 335.277 116.967 335.508 117.052L343.162 119.884C343.392 119.969 343.638 120.008 343.883 119.999C344.129 119.989 344.371 119.931 344.594 119.828L352.019 116.434C352.467 116.224 352.816 115.848 352.989 115.385L355.828 107.746C355.914 107.516 355.954 107.272 355.945 107.026C355.937 106.781 355.88 106.54 355.777 106.317L352.369 98.9155C352.267 98.6923 352.121 98.4917 351.941 98.3248C351.761 98.1579 351.549 98.028 351.318 97.9429" fill="#E86833"/>
<path d="M351.337 25.5308L355.317 24.0619C355.436 24.0171 355.563 23.9962 355.69 24.0006C355.817 24.0049 355.942 24.0343 356.058 24.0871L359.916 25.8551C360.033 25.9064 360.138 25.9808 360.226 26.074C360.313 26.1671 360.38 26.2771 360.424 26.397L361.901 30.3682C361.946 30.487 361.967 30.614 361.962 30.7411C361.957 30.8683 361.925 30.993 361.87 31.1077L360.104 34.9574C360.052 35.0737 359.977 35.1784 359.883 35.2654C359.79 35.3524 359.68 35.4199 359.561 35.464L355.581 36.9381C355.461 36.983 355.333 37.0038 355.205 36.9994C355.077 36.9951 354.951 36.9658 354.835 36.9129L350.982 35.1449C350.747 35.0366 350.564 34.8399 350.474 34.5978L349.002 30.6316C348.953 30.5135 348.928 30.3871 348.928 30.2593C348.928 30.1316 348.953 30.0051 349.002 29.8871L350.774 26.0423C350.882 25.8091 351.077 25.6273 351.317 25.5358" fill="#E86833"/>
<path d="M321.49 76.588L317.502 77.944C317.26 78.0263 316.992 78.0176 316.757 77.9198L312.896 76.2866C312.777 76.2426 312.669 76.177 312.578 76.0935C312.487 76.0099 312.415 75.9102 312.368 75.8006L310.887 72.136C310.842 72.0256 310.822 71.9081 310.828 71.7905C310.833 71.6728 310.864 71.5574 310.919 71.4509L312.69 67.9027C312.738 67.7931 312.81 67.6937 312.9 67.6101C312.991 67.5266 313.1 67.4607 313.219 67.4167L317.206 66.056C317.449 65.9737 317.716 65.9824 317.952 66.0802L321.817 67.7134C322.048 67.8085 322.228 67.9831 322.32 68.1994L323.8 71.8638C323.89 72.0865 323.88 72.3328 323.774 72.5491L322.003 76.102C321.902 76.3211 321.712 76.4954 321.474 76.588" fill="#DD492A"/>
<path d="M336.608 0.830707L334.47 0.0421467C334.407 0.0144046 334.339 0 334.269 0C334.2 0 334.132 0.0144046 334.069 0.0421467L331.989 0.995912C331.864 1.05464 331.766 1.15962 331.717 1.28886L330.92 3.42013C330.867 3.54985 330.867 3.69549 330.92 3.82521L331.877 5.89768C331.936 6.02285 332.041 6.12043 332.171 6.16955L334.31 6.95811C334.373 6.98586 334.441 7 334.51 7C334.579 7 334.647 6.98586 334.711 6.95811L336.79 6.00435C336.916 5.94562 337.014 5.84038 337.063 5.71114L337.86 3.57987C337.912 3.45171 337.912 3.30842 337.86 3.18026L336.903 1.10778C336.845 0.980599 336.739 0.881099 336.608 0.830707Z" fill="#FFAA00"/>
<path d="M720.491 1038.93L836.65 669.377C840.158 658.259 841.427 646.559 840.382 634.95C839.338 623.342 836.001 612.054 830.563 601.737L650.715 258.537C645.326 248.194 637.938 239.016 628.978 231.531C620.018 224.047 609.662 218.404 598.506 214.927L227.981 99.067C216.818 95.5764 205.074 94.3141 193.422 95.3522C181.769 96.3903 170.436 99.7082 160.07 105.117L-184.045 284.447C-194.392 289.845 -203.572 297.224 -211.059 306.162C-218.546 315.1 -224.195 325.421 -227.681 336.537L-343.85 706.087C-350.903 728.559 -348.74 752.902 -337.834 773.787L-157.986 1116.99C-147.005 1137.83 -128.193 1153.49 -105.666 1160.54L264.829 1276.45C287.33 1283.49 311.713 1281.33 332.619 1270.45L676.734 1091.08C687.106 1085.68 696.308 1078.29 703.816 1069.34C711.324 1060.4 716.99 1050.06 720.491 1038.93Z" fill="url(#paint0_linear_0_1)"/>
<defs>
<linearGradient id="paint0_linear_0_1" x1="348.928" y1="535" x2="101.193" y2="155.395" gradientUnits="userSpaceOnUse">
<stop stop-color="#F2A419"/>
<stop offset="0.3" stop-color="#F19E17"/>
<stop offset="0.68" stop-color="#ED8E10"/>
<stop offset="1" stop-color="#E87B09"/>
</linearGradient>
</defs>
</svg>
