<svg width="1909" height="833" viewBox="0 0 1909 833" fill="none" xmlns="http://www.w3.org/2000/svg">
<path d="M1880.9 1666.15L2085.41 1013.84C2091.58 994.225 2093.8 973.58 2091.96 953.097C2090.12 932.614 2084.25 912.698 2074.68 894.494L1758.07 288.694C1748.59 270.432 1735.59 254.227 1719.81 241.012C1704.04 227.797 1685.81 217.833 1666.17 211.694L1013.86 7.1835C994.211 1.01875 973.539 -1.2111 953.027 0.62149C932.515 2.45408 912.566 8.31333 894.32 17.8637L288.52 334.494C251.734 353.744 224.101 386.82 211.7 426.444L7.19045 1078.72C-5.23564 1118.38 -1.44954 1161.34 17.7204 1198.21L334.33 1804.02C353.662 1840.81 386.777 1868.45 426.43 1880.88L1078.74 2085.39C1118.35 2097.83 1161.28 2094.02 1198.08 2074.81L1803.88 1758.2C1822.14 1748.67 1838.33 1735.64 1851.54 1719.84C1864.76 1704.05 1874.73 1685.8 1880.88 1666.15" fill="url(#paint0_linear_22_844)"/>
<defs>
<linearGradient id="paint0_linear_22_844" x1="1810.83" y1="2090.82" x2="493.06" y2="290.584" gradientUnits="userSpaceOnUse">
<stop stop-color="#F0A219"/>
<stop offset="0.3" stop-color="#EF9C17"/>
<stop offset="0.7" stop-color="#EA8C10"/>
<stop offset="1" stop-color="#E67B09"/>
</linearGradient>
</defs>
</svg>
