<svg width="619" height="1146" viewBox="0 0 619 1146" fill="none" xmlns="http://www.w3.org/2000/svg">
<path opacity="0.69" d="M357.624 377.051L403.904 229.44C405.296 225.001 405.798 220.331 405.381 215.698C404.964 211.065 403.636 206.559 401.474 202.44L329.824 65.3406C327.677 61.2101 324.733 57.5454 321.163 54.5574C317.594 51.5694 313.468 49.317 309.024 47.9304L161.444 1.62037C152.48 -1.18823 142.768 -0.321176 134.444 4.03052L-2.64612 75.6804C-10.9697 80.0406 -17.2238 87.5247 -20.0361 96.4905L-66.3761 244.12C-69.1729 253.082 -68.3175 262.786 -63.9961 271.12L7.66388 408.21C12.038 416.543 19.535 422.803 28.5139 425.62L176.124 471.9C185.086 474.708 194.795 473.849 203.124 469.51L340.224 397.861C348.551 393.502 354.808 386.018 357.624 377.051Z" fill="#F7EBD3"/>
<path opacity="0.69" d="M571.064 802.94L617.344 655.331C618.741 650.893 619.246 646.222 618.829 641.587C618.412 636.953 617.081 632.448 614.914 628.331L543.274 491.23C541.124 487.101 538.18 483.436 534.611 480.447C531.041 477.457 526.917 475.202 522.474 473.811L374.854 427.531C370.407 426.137 365.729 425.634 361.088 426.049C356.447 426.465 351.933 427.79 347.804 429.951L210.704 501.621C206.582 503.777 202.925 506.725 199.943 510.296C196.96 513.867 194.711 517.99 193.324 522.431L147.044 670.051C144.243 679.012 145.098 688.718 149.424 697.051L221.074 834.141C225.449 842.466 232.941 848.721 241.914 851.541L389.534 897.821C398.496 900.63 408.207 899.767 416.534 895.42L553.624 823.771C557.757 821.617 561.425 818.668 564.416 815.094C567.407 811.519 569.663 807.389 571.054 802.94" fill="#F7EBD3"/>
<path opacity="0.69" d="M135.624 1048.76L181.904 901.141C183.296 896.702 183.798 892.032 183.381 887.399C182.964 882.765 181.636 878.26 179.474 874.141L107.834 737.021C105.687 732.891 102.743 729.228 99.1736 726.241C95.6036 723.255 91.4778 721.005 87.0339 719.621L-60.5761 673.331C-65.0235 671.933 -69.7028 671.427 -74.3461 671.841C-78.9895 672.255 -83.5056 673.58 -87.6361 675.741L-224.726 747.391C-233.049 751.749 -239.301 759.234 -242.106 768.201L-288.376 915.821C-291.183 924.782 -290.327 934.489 -285.996 942.821L-214.346 1079.92C-209.969 1088.24 -202.477 1094.49 -193.506 1097.31L-45.8961 1143.62C-36.9345 1146.43 -27.2251 1145.57 -18.8961 1141.23L118.204 1069.62C122.337 1067.46 126.002 1064.51 128.992 1060.93C131.981 1057.35 134.235 1053.21 135.624 1048.76Z" fill="#F7EBD3"/>
<path d="M133.824 632.961L156.314 561.221C156.991 559.062 157.235 556.791 157.033 554.538C156.83 552.285 156.185 550.094 155.134 548.091L120.314 481.471C119.269 479.463 117.838 477.681 116.104 476.228C114.369 474.774 112.364 473.677 110.204 473.001L38.4639 450.511C34.0988 449.142 29.3687 449.563 25.3139 451.681L-41.3061 486.501C-45.3523 488.621 -48.3915 492.261 -49.7561 496.621L-72.2461 568.361C-73.6131 572.721 -73.1997 577.444 -71.0961 581.501L-36.2661 648.121C-34.1515 652.182 -30.5119 655.239 -26.1461 656.621L45.6239 679.071C47.7814 679.749 50.0514 679.996 52.3043 679.797C54.5572 679.598 56.7487 678.957 58.7539 677.911L125.374 643.081C127.384 642.035 129.167 640.602 130.622 638.866C132.077 637.129 133.176 635.122 133.854 632.961" fill="url(#paint0_linear_0_1)"/>
<defs>
<linearGradient id="paint0_linear_0_1" x1="-37.4261" y1="442.571" x2="91.2737" y2="640.561" gradientUnits="userSpaceOnUse">
<stop stop-color="#E55E1A"/>
<stop offset="0.22" stop-color="#E6641A"/>
<stop offset="0.5" stop-color="#E9741A"/>
<stop offset="0.81" stop-color="#ED8F19"/>
<stop offset="1" stop-color="#F0A219"/>
</linearGradient>
</defs>
</svg>
