<svg width="1906" height="819" viewBox="0 0 1906 819" fill="none" xmlns="http://www.w3.org/2000/svg">
<path d="M1880.9 1785.15L2085.41 1132.84C2091.58 1113.22 2093.8 1092.58 2091.96 1072.1C2090.12 1051.61 2084.25 1031.7 2074.68 1013.49L1758.07 407.694C1748.59 389.432 1735.59 373.227 1719.81 360.012C1704.04 346.797 1685.81 336.833 1666.17 330.694L1013.86 126.184C994.211 120.019 973.539 117.789 953.027 119.621C932.515 121.454 912.566 127.313 894.32 136.864L288.52 453.494C251.734 472.744 224.101 505.82 211.7 545.444L7.19045 1197.72C-5.23564 1237.38 -1.44954 1280.34 17.7204 1317.21L334.33 1923.02C353.662 1959.81 386.777 1987.45 426.43 1999.88L1078.74 2204.39C1118.35 2216.83 1161.28 2213.02 1198.08 2193.81L1803.88 1877.2C1822.14 1867.67 1838.33 1854.64 1851.54 1838.84C1864.76 1823.05 1874.73 1804.8 1880.88 1785.15" fill="url(#paint0_linear_147_840)"/>
<path d="M1854.37 345.678L1827.75 335.808C1826.95 335.505 1826.09 335.366 1825.24 335.398C1824.38 335.431 1823.53 335.635 1822.75 335.998L1796.96 347.838C1796.19 348.188 1795.49 348.691 1794.9 349.316C1794.32 349.941 1793.87 350.676 1793.57 351.478L1783.7 378.088C1783.4 378.892 1783.26 379.748 1783.3 380.607C1783.33 381.465 1783.53 382.309 1783.89 383.088L1795.72 408.887C1796.45 410.45 1797.76 411.665 1799.37 412.268L1825.99 422.137C1827.62 422.743 1829.42 422.678 1830.99 421.958L1856.79 410.117C1858.36 409.388 1859.57 408.074 1860.17 406.458L1870.04 379.848C1870.34 379.044 1870.48 378.188 1870.45 377.33C1870.42 376.472 1870.22 375.629 1869.86 374.848L1858.02 349.108C1857.67 348.33 1857.16 347.631 1856.54 347.049C1855.91 346.467 1855.18 346.015 1854.37 345.718" fill="#E66833"/>
<path d="M1856.16 89.9581L1869.99 84.8282C1870.84 84.5204 1871.77 84.5559 1872.58 84.9278L1885.99 91.0879C1886.81 91.4619 1887.44 92.1411 1887.75 92.9781L1892.87 106.808C1893.03 107.224 1893.1 107.667 1893.09 108.112C1893.07 108.556 1892.97 108.994 1892.78 109.398L1886.63 122.798C1886.45 123.202 1886.19 123.565 1885.86 123.867C1885.53 124.169 1885.15 124.404 1884.73 124.558L1870.9 129.688C1870.06 129.999 1869.13 129.967 1868.31 129.598L1854.91 123.438C1854.51 123.255 1854.14 122.993 1853.84 122.667C1853.54 122.34 1853.31 121.957 1853.15 121.538L1848.02 107.708C1847.71 106.87 1847.75 105.942 1848.11 105.128L1854.27 91.7281C1854.65 90.9112 1855.33 90.2747 1856.16 89.9581Z" fill="#E66833"/>
<path d="M1749.51 270.468L1736.21 275.408C1735.4 275.706 1734.51 275.67 1733.72 275.308L1720.82 269.388C1720.44 269.211 1720.09 268.96 1719.8 268.648C1719.51 268.335 1719.28 267.968 1719.13 267.568L1714.2 254.258C1714.06 253.859 1713.99 253.434 1714 253.009C1714.02 252.583 1714.12 252.165 1714.29 251.778L1720.21 238.878C1720.57 238.096 1721.23 237.488 1722.03 237.188L1735.34 232.248C1736.15 231.952 1737.05 231.984 1737.83 232.338L1750.72 238.258C1751.11 238.436 1751.47 238.689 1751.76 239.003C1752.05 239.317 1752.28 239.686 1752.42 240.088L1757.35 253.398C1757.5 253.797 1757.57 254.221 1757.56 254.647C1757.54 255.073 1757.44 255.491 1757.26 255.878L1751.34 268.778C1750.98 269.561 1750.32 270.168 1749.51 270.468Z" fill="#DB492A"/>
<path d="M1803.62 2.76785L1796.51 0.107693C1796.08 -0.0514558 1795.6 -0.0336835 1795.18 0.157498L1788.32 3.30789C1788.11 3.40494 1787.92 3.54331 1787.77 3.71512C1787.61 3.88692 1787.49 4.08865 1787.41 4.30789L1784.79 11.3977C1784.71 11.6082 1784.66 11.8343 1784.66 12.0628C1784.66 12.2912 1784.71 12.5174 1784.79 12.7278L1787.94 19.5877C1788.04 19.7987 1788.18 19.988 1788.35 20.1443C1788.52 20.3007 1788.73 20.4211 1788.94 20.4978L1796.03 23.1175C1796.25 23.1987 1796.47 23.2364 1796.7 23.2278C1796.93 23.2192 1797.15 23.1647 1797.35 23.0677L1804.22 19.9178C1804.43 19.8201 1804.62 19.6814 1804.78 19.5095C1804.93 19.3377 1805.05 19.1364 1805.12 18.9178L1807.75 11.8279C1807.93 11.4052 1807.93 10.9303 1807.75 10.5076L1804.6 3.63748C1804.51 3.42796 1804.37 3.24035 1804.2 3.08572C1804.02 2.93109 1803.82 2.8127 1803.6 2.73758" fill="#F4AA00"/>
<defs>
<linearGradient id="paint0_linear_147_840" x1="1810.83" y1="2209.82" x2="493.06" y2="409.584" gradientUnits="userSpaceOnUse">
<stop stop-color="#F0A219"/>
<stop offset="0.3" stop-color="#EF9C17"/>
<stop offset="0.7" stop-color="#EA8C10"/>
<stop offset="1" stop-color="#E67B09"/>
</linearGradient>
</defs>
</svg>
