<svg width="180" height="423" viewBox="0 0 180 423" fill="none" xmlns="http://www.w3.org/2000/svg">
<path d="M140.375 345.678L113.755 335.808C112.951 335.505 112.094 335.366 111.236 335.398C110.377 335.431 109.534 335.635 108.755 335.998L82.9648 347.838C82.186 348.188 81.4851 348.691 80.903 349.316C80.3209 349.941 79.8694 350.676 79.5749 351.478L69.7047 378.088C69.4029 378.892 69.2643 379.748 69.2969 380.607C69.3295 381.465 69.5328 382.309 69.8948 383.088L81.7248 408.887C82.4496 410.45 83.761 411.665 85.3748 412.268L111.995 422.137C113.619 422.743 115.418 422.678 116.995 421.958L142.795 410.117C144.358 409.388 145.572 408.074 146.175 406.458L156.045 379.848C156.345 379.044 156.484 378.188 156.453 377.33C156.422 376.472 156.222 375.629 155.865 374.848L144.025 349.108C143.669 348.33 143.164 347.631 142.537 347.049C141.911 346.467 141.176 346.015 140.375 345.718" fill="#E66833"/>
<path d="M142.165 89.9581L155.995 84.8282C156.838 84.5204 157.768 84.5559 158.585 84.9278L171.995 91.0879C172.807 91.4619 173.44 92.1411 173.755 92.9781L178.875 106.808C179.031 107.224 179.104 107.667 179.089 108.112C179.073 108.556 178.97 108.994 178.785 109.398L172.635 122.798C172.449 123.202 172.186 123.565 171.86 123.867C171.534 124.169 171.152 124.404 170.735 124.558L156.905 129.688C156.063 129.999 155.133 129.967 154.315 129.598L140.915 123.438C140.509 123.255 140.144 122.993 139.842 122.667C139.54 122.34 139.306 121.957 139.155 121.538L134.025 107.708C133.713 106.87 133.746 105.942 134.115 105.128L140.275 91.7281C140.646 90.9112 141.325 90.2747 142.165 89.9581Z" fill="#E66833"/>
<path d="M35.5148 270.468L22.2148 275.408C21.4043 275.706 20.5088 275.67 19.7248 275.308L6.82488 269.388C6.43672 269.211 6.0874 268.96 5.79729 268.648C5.50718 268.335 5.28199 267.968 5.13482 267.568L0.204763 254.258C0.0555198 253.859 -0.01332 253.434 0.00212591 253.009C0.0175718 252.583 0.117086 252.165 0.294851 251.778L6.21477 238.878C6.57378 238.096 7.22836 237.488 8.03484 237.188L21.3448 232.248C22.1546 231.952 23.0484 231.984 23.8348 232.338L36.7248 238.258C37.1148 238.436 37.4659 238.689 37.7576 239.003C38.0494 239.317 38.2762 239.686 38.4249 240.088L43.3548 253.398C43.504 253.797 43.573 254.221 43.5575 254.647C43.5421 255.073 43.4426 255.491 43.2648 255.878L37.3448 268.778C36.9816 269.561 36.3239 270.168 35.5148 270.468Z" fill="#DB492A"/>
<path d="M89.6248 2.76785L82.5148 0.107693C82.0822 -0.0514558 81.6043 -0.0336835 81.1848 0.157498L74.3248 3.30789C74.1138 3.40494 73.9244 3.54331 73.7681 3.71512C73.6117 3.88692 73.4916 4.08865 73.4148 4.30789L70.7948 11.3977C70.706 11.6082 70.6602 11.8343 70.6602 12.0628C70.6602 12.2912 70.706 12.5174 70.7948 12.7278L73.9448 19.5877C74.0419 19.7987 74.1804 19.988 74.3522 20.1443C74.524 20.3007 74.7256 20.4211 74.9448 20.4978L82.0348 23.1175C82.2468 23.1987 82.4731 23.2364 82.7 23.2278C82.9268 23.2192 83.1495 23.1647 83.3547 23.0677L90.2247 19.9178C90.4342 19.8201 90.622 19.6814 90.7766 19.5095C90.9312 19.3377 91.0496 19.1364 91.1248 18.9178L93.7548 11.8279C93.9292 11.4052 93.9292 10.9303 93.7548 10.5076L90.6047 3.63748C90.5071 3.42796 90.3682 3.24035 90.1964 3.08572C90.0246 2.93109 89.8233 2.8127 89.6047 2.73758" fill="#F4AA00"/>
</svg>
