<svg width="557" height="698" viewBox="0 0 557 698" fill="none" xmlns="http://www.w3.org/2000/svg">
<path opacity="0.69" d="M157.173 587.576L210.147 418.62C211.74 413.539 212.314 408.194 211.837 402.89C211.36 397.587 209.84 392.43 207.365 387.715L125.353 230.79C122.895 226.062 119.526 221.867 115.44 218.447C111.353 215.027 106.631 212.449 101.544 210.862L-67.3799 157.855C-77.6398 154.64 -88.7566 155.632 -98.2849 160.613L-255.202 242.625C-264.729 247.615 -271.888 256.182 -275.107 266.444L-328.149 435.423C-331.351 445.681 -330.371 456.788 -325.425 466.327L-243.401 623.242C-238.394 632.779 -229.813 639.944 -219.535 643.17L-50.5768 696.142C-40.3191 699.356 -29.2055 698.373 -19.6718 693.407L137.257 611.395C146.788 606.406 153.95 597.84 157.173 587.576Z" fill="#F7EBD3"/>
<path opacity="0.69" d="M519.771 293.004L555.736 178.292C556.822 174.843 557.214 171.213 556.89 167.612C556.566 164.01 555.532 160.509 553.847 157.309L498.175 50.7641C496.504 47.5548 494.216 44.7069 491.442 42.3837C488.669 40.0606 485.463 38.3081 482.011 37.2265L367.293 1.26093C363.838 0.178189 360.203 -0.21304 356.596 0.109653C352.989 0.432345 349.481 1.46257 346.272 3.14154L239.73 58.8386C236.527 60.5145 233.685 62.8056 231.367 65.5805C229.05 68.3554 227.302 71.5599 226.224 75.0108L190.259 189.731C188.082 196.696 188.747 204.238 192.108 210.714L247.789 317.251C251.189 323.721 257.011 328.582 263.984 330.773L378.701 366.739C385.666 368.922 393.213 368.251 399.683 364.874L506.218 309.192C509.43 307.519 512.28 305.227 514.605 302.449C516.929 299.671 518.682 296.461 519.763 293.004" fill="#F7EBD3"/>
</svg>
