<svg width="270" height="241" viewBox="0 0 270 241" fill="none" xmlns="http://www.w3.org/2000/svg">
<path d="M62.2001 222.13C61.8973 218.873 60.6355 215.778 58.5742 213.238C56.5129 210.698 53.7447 208.826 50.6196 207.86C47.4945 206.893 44.1529 206.874 41.0173 207.807C37.8818 208.739 35.0931 210.58 33.0038 213.097C30.9146 215.614 29.6187 218.694 29.28 221.948C28.9412 225.202 29.5749 228.483 31.1008 231.376C32.6268 234.27 34.9765 236.646 37.8528 238.204C40.7291 239.762 44.0028 240.432 47.2601 240.13C49.423 239.929 51.5251 239.304 53.4465 238.291C55.3679 237.277 57.0709 235.896 58.4582 234.224C59.8456 232.553 60.8901 230.624 61.5321 228.549C62.1741 226.474 62.4011 224.293 62.2001 222.13Z" fill="#F4AA00"/>
<path d="M97.7101 204.92L96.18 203.26C88.08 194.52 79.4101 186.4 66.8401 185.77C50.7601 184.96 36.95 188.77 22.61 178.67C2.73002 164.73 -2.13997 135.59 1.37003 113.06C5.25159 89.444 16.8577 67.7828 34.37 51.4701C39.5291 46.6366 45.2343 42.4215 51.37 38.9101C100.37 11.2201 157.67 31.6901 188.55 75.4401C194.493 83.8986 199.606 92.9103 203.82 102.35C204.19 103.19 204.56 104.02 204.92 104.86C211 119.19 214.49 134.86 213.19 150.34C211.706 166.763 205.209 182.333 194.58 194.94C178.87 213.69 150 229.14 125 223.43C113.06 220.68 105.61 213.4 97.7101 204.92Z" fill="#F4AA00"/>
<path d="M84.6401 231.31L238.36 231.31L238.36 83.0601L84.6401 83.0601L84.6401 231.31Z" fill="white"/>
<path d="M238.35 231.94H84.63C84.4647 231.937 84.307 231.87 84.191 231.752C84.075 231.634 84.01 231.475 84.01 231.31V83.0699C84.01 82.9046 84.075 82.7458 84.191 82.628C84.307 82.5101 84.4647 82.4426 84.63 82.4399H238.35C238.517 82.4399 238.677 82.5063 238.795 82.6245C238.914 82.7426 238.98 82.9029 238.98 83.0699V231.31C238.98 231.477 238.914 231.637 238.795 231.755C238.677 231.874 238.517 231.94 238.35 231.94V231.94ZM85.26 230.69H237.73V83.6899H85.26V230.69Z" fill="black"/>
<path d="M238.35 98.0201H84.6301C84.478 98.0009 84.3381 97.9267 84.2367 97.8117C84.1353 97.6966 84.0793 97.5485 84.0793 97.3951C84.0793 97.2418 84.1353 97.0937 84.2367 96.9786C84.3381 96.8636 84.478 96.7894 84.6301 96.7701H238.35C238.439 96.7589 238.529 96.7667 238.614 96.7929C238.7 96.8192 238.779 96.8634 238.846 96.9225C238.913 96.9816 238.967 97.0543 239.003 97.1358C239.04 97.2173 239.059 97.3057 239.059 97.3951C239.059 97.4846 239.04 97.573 239.003 97.6545C238.967 97.736 238.913 97.8087 238.846 97.8678C238.779 97.9269 238.7 97.9711 238.614 97.9973C238.529 98.0236 238.439 98.0314 238.35 98.0201V98.0201Z" fill="black"/>
<path d="M95 89.74C95 90.229 94.8549 90.7069 94.5831 91.1133C94.3112 91.5197 93.9249 91.8363 93.4729 92.023C93.021 92.2096 92.5239 92.2579 92.0445 92.1618C91.5651 92.0657 91.125 91.8295 90.78 91.483C90.4349 91.1366 90.2005 90.6956 90.1063 90.2158C90.0121 89.736 90.0625 89.239 90.251 88.7879C90.4394 88.3367 90.7576 87.9516 91.1651 87.6814C91.5726 87.4112 92.0511 87.2681 92.54 87.27C93.1934 87.2727 93.8191 87.5341 94.2801 87.997C94.7412 88.4599 95.0001 89.0867 95 89.74V89.74Z" fill="black"/>
<path d="M104.16 89.74C104.16 90.2285 104.015 90.7061 103.744 91.1123C103.472 91.5184 103.087 91.835 102.635 92.022C102.184 92.2089 101.687 92.2579 101.208 92.1626C100.729 92.0672 100.289 91.832 99.9434 91.4866C99.598 91.1411 99.3627 90.701 99.2674 90.2219C99.1721 89.7427 99.221 89.2461 99.408 88.7948C99.5949 88.3435 99.9115 87.9577 100.318 87.6863C100.724 87.4149 101.201 87.27 101.69 87.27C102.344 87.2727 102.971 87.5337 103.434 87.9964C103.896 88.459 104.157 89.0857 104.16 89.74V89.74Z" fill="#FB5F2F"/>
<path d="M92.65 129.62C86.76 135.62 79.36 144.78 73.14 141.87C68.95 139.87 66.62 121.7 66.42 114.71C66.23 108.27 67.09 98.3397 64.79 88.9897C62.49 79.6397 47 77.9097 47 77.9097C47 77.9097 42.42 63.5497 35.37 64.3297C28.32 65.1097 32.63 75.6697 32.63 75.6697C32.63 75.6697 22.11 60.7397 16.96 61.5997C13.78 62.1297 13.12 64.9797 13.07 67.0797C10.81 66.0097 7.94002 65.3197 6.20002 67.4197C3.00002 71.2997 9.25 76.1997 9.25 76.1997C8.70933 75.9363 8.12187 75.7825 7.52149 75.747C6.92111 75.7116 6.31968 75.7953 5.75177 75.9932C5.18387 76.1912 4.66071 76.4996 4.21247 76.9006C3.76423 77.3016 3.39976 77.7873 3.14002 78.3297C1.04002 82.3297 6.45002 87.2697 6.45002 87.2697C5.78002 88.0797 6.45 92.0897 10.18 92.9997C14.48 94.0497 30.18 97.7297 30.18 97.7297C30.18 97.7297 29.7 133.88 30 147.5C31.21 199.73 79 207.85 115.26 175.07L92.65 129.62Z" fill="white"/>
<path d="M70.5401 195.2C64.9064 195.25 59.322 194.147 54.1301 191.96C38.6801 185.32 29.9001 169.5 29.3901 147.5C29.1001 134.9 29.4801 102.64 29.5401 98.21C26.8501 97.58 13.8201 94.53 9.99011 93.6C9.02591 93.3732 8.13649 92.9015 7.40777 92.2306C6.67906 91.5597 6.13571 90.7122 5.83014 89.77C5.54118 89.0177 5.47862 88.1974 5.65015 87.41C4.44015 86.2 0.550099 81.88 2.5401 78.03C2.93481 77.14 3.58424 76.3868 4.40643 75.8654C5.22862 75.3439 6.18675 75.0776 7.16009 75.1C5.86291 73.8145 4.98754 72.1648 4.65015 70.37C4.57788 69.7728 4.62934 69.1672 4.80139 68.5909C4.97344 68.0145 5.26237 67.4798 5.65015 67.02C6.65015 65.76 8.70011 64.64 12.4301 66.14C12.7501 63.22 14.2701 61.4 16.7901 60.98C20.8801 60.29 27.5301 67.98 30.9601 72.47C30.5401 70.38 30.3601 67.78 31.4501 65.93C31.8525 65.2799 32.4067 64.7374 33.0652 64.3489C33.7236 63.9605 34.4665 63.7378 35.2301 63.7C42.1101 62.95 46.5901 74.97 47.4001 77.33C49.9301 77.68 63.1601 79.91 65.4001 88.83C67.1701 95.97 67.1001 103.43 67.0401 109.43C67.0401 111.33 67.0401 113.12 67.0401 114.68C67.2901 123.13 69.9001 139.68 73.4101 141.3C78.4101 143.65 84.5301 137.23 89.9101 131.56C90.6901 130.74 91.4601 129.93 92.2001 129.17C92.2717 129.1 92.3586 129.047 92.454 129.015C92.5494 128.984 92.6508 128.975 92.7501 128.99C92.8485 129.006 92.9416 129.045 93.0217 129.104C93.1017 129.163 93.1664 129.241 93.2101 129.33L115.83 174.78C115.894 174.903 115.915 175.043 115.889 175.179C115.864 175.315 115.794 175.438 115.69 175.53C105.92 184.37 94.9401 190.53 83.9501 193.41C79.5741 194.573 75.0679 195.174 70.5401 195.2V195.2ZM7.07013 76.37C6.3422 76.3681 5.62979 76.5805 5.02167 76.9806C4.41354 77.3807 3.9366 77.9508 3.65014 78.62C1.79014 82.2 6.77014 86.76 6.83014 86.81C6.94756 86.9189 7.01913 87.0684 7.03027 87.2281C7.04142 87.3879 6.99131 87.5459 6.89014 87.67C6.72889 88.306 6.79614 88.9785 7.08014 89.57C7.33802 90.2702 7.7667 90.8948 8.32727 91.3873C8.88784 91.8798 9.56253 92.2245 10.2901 92.39C14.5401 93.39 30.1501 97.08 30.2901 97.12C30.4302 97.1504 30.5552 97.2293 30.6429 97.3426C30.7307 97.456 30.7758 97.5967 30.7701 97.74C30.7701 98.1 30.3101 134.03 30.6201 147.48C31.1201 168.99 39.6201 184.37 54.6201 190.81C71.9401 198.26 95.4001 192.02 114.5 174.93L92.5001 130.69L90.8401 132.43C85.1701 138.43 78.7501 145.17 72.9001 142.43C68.0701 140.17 65.9701 120.18 65.8101 114.72C65.8101 113.14 65.8101 111.33 65.8101 109.42C65.8701 103.49 65.9301 96.12 64.2101 89.13C62.0001 80.32 47.0001 78.55 46.8901 78.5C46.769 78.4893 46.6538 78.4427 46.5594 78.366C46.4649 78.2894 46.3955 78.1863 46.3601 78.07C46.3601 77.93 41.8501 64.2 35.3601 64.92C34.7893 64.9378 34.2317 65.0958 33.7364 65.3801C33.2412 65.6643 32.8234 66.0661 32.5201 66.55C30.7601 69.5 33.1001 75.34 33.1301 75.4C33.1835 75.5421 33.1847 75.6985 33.1334 75.8414C33.0821 75.9843 32.9817 76.1043 32.8501 76.18C32.7173 76.2577 32.56 76.2823 32.4098 76.2489C32.2596 76.2155 32.1275 76.1266 32.0401 76C29.1701 71.93 20.8901 61.54 16.9801 62.19C14.8101 62.55 13.6801 64.19 13.6201 67.06C13.6156 67.1644 13.586 67.2662 13.5338 67.3567C13.4815 67.4472 13.4083 67.5238 13.3201 67.58C13.2295 67.629 13.1282 67.6547 13.0251 67.6547C12.9221 67.6547 12.8207 67.629 12.7301 67.58C9.8801 66.24 7.82011 66.3 6.61011 67.76C6.32226 68.0881 6.10676 68.4732 5.97754 68.8902C5.84832 69.3071 5.80829 69.7466 5.86011 70.18C6.15011 72.94 9.52012 75.62 9.56012 75.65C9.65091 75.7521 9.70547 75.8813 9.71527 76.0176C9.72507 76.1538 9.68957 76.2895 9.61432 76.4035C9.53906 76.5176 9.42822 76.6036 9.29907 76.6481C9.16992 76.6927 9.02971 76.6933 8.90015 76.65C8.31422 76.4383 7.69255 76.3432 7.07013 76.37V76.37Z" fill="black"/>
<path d="M267.21 78.3301C267.92 75.3901 271.03 66.0701 267.06 64.6801C263.44 63.4101 261.47 68.3401 261.06 69.5701C260.45 71.5001 259.32 74.7201 258.63 77.2001C262.85 62.1301 265.73 52.2001 260.49 50.7501C256.85 49.7501 254.49 53.1501 253.57 55.8901C254.5 51.7401 256.03 46.3501 251.01 45.5101C245.17 44.5101 243.01 56.2201 242.54 59.6001C243.44 52.2101 242.94 46.3601 238.93 46.2301C234.77 46.0901 233.38 51.1101 232.76 53.8401C232.14 56.5701 228.86 78.3301 228.86 78.3301C228.86 78.3301 220.33 61.2301 213.86 65.7001C207.39 70.1701 216.57 81.2001 219.21 86.0801C221.76 90.8101 225.27 98.0001 226.15 102.33C226.76 105.33 225.91 140.94 218.9 144.22C212.68 147.13 205.28 137.98 199.39 131.97L170.84 171.8C207.06 204.57 260.84 202.08 262.05 149.85C262.74 120.38 261.63 109.09 261.74 106.85C261.74 106.9 266.5 81.2601 267.21 78.3301Z" fill="white"/>
<path d="M221.33 194.02C204.68 194.02 185.93 186.29 170.42 172.26C170.308 172.155 170.238 172.014 170.221 171.861C170.204 171.709 170.243 171.556 170.33 171.43L198.91 131.61C198.963 131.535 199.031 131.473 199.111 131.428C199.19 131.383 199.279 131.357 199.37 131.35C199.462 131.34 199.554 131.351 199.641 131.382C199.727 131.414 199.806 131.464 199.87 131.53C200.61 132.29 201.37 133.1 202.16 133.92C207.54 139.59 213.63 146.01 218.66 143.66C221.36 142.39 223.54 135.09 224.79 123.1C225.79 113.21 225.84 103.79 225.57 102.45C224.57 97.5097 220.04 88.8997 218.69 86.3797C218.21 85.4897 217.51 84.3797 216.69 83.1397C213.14 77.5797 207.77 69.1397 213.52 65.1897C214.082 64.7849 214.729 64.5125 215.411 64.393C216.093 64.2735 216.794 64.31 217.46 64.4997C222.08 65.6797 226.64 73.0097 228.53 76.3797C229.35 71.0297 231.65 55.9897 232.16 53.7097C232.62 51.6597 234.04 45.4297 238.96 45.6097C239.506 45.6155 240.044 45.7392 240.538 45.9722C241.031 46.2052 241.469 46.542 241.82 46.9597C242.82 48.0997 243.36 49.9597 243.51 52.5697C244.41 49.8297 245.71 47.1397 247.58 45.7697C248.078 45.3874 248.649 45.1127 249.259 44.9629C249.868 44.8132 250.502 44.7916 251.12 44.8997C251.759 44.9678 252.377 45.1695 252.934 45.4916C253.49 45.8138 253.973 46.2492 254.35 46.7697C255.28 48.1697 255.3 50.0797 255 52.0597C255.646 51.2116 256.532 50.5765 257.542 50.2361C258.553 49.8957 259.642 49.8656 260.67 50.1497C261.192 50.2819 261.681 50.5208 262.106 50.8512C262.531 51.1816 262.883 51.5965 263.14 52.0697C264.57 54.5897 263.95 59.3197 262.37 65.7897C262.857 65.1527 263.479 64.6304 264.19 64.2597C264.662 64.0197 265.178 63.8806 265.707 63.8513C266.236 63.822 266.765 63.9032 267.26 64.0897C271.26 65.4997 269.26 73.0897 268.15 77.1697C268.01 77.6797 267.89 78.1697 267.81 78.4697C267.12 81.2997 262.57 105.79 262.35 106.97C262.35 107.5 262.35 108.6 262.45 110.26C262.69 115.88 263.18 127.59 262.67 149.86C262.21 169.79 253.88 184.24 239.23 190.54C233.562 192.905 227.471 194.089 221.33 194.02V194.02ZM171.67 171.71C192.67 190.52 219.6 197.62 238.74 189.39C252.92 183.29 260.98 169.24 261.43 149.83C261.94 127.6 261.43 115.92 261.21 110.31C261.13 108.52 261.08 107.44 261.11 106.87C261.11 106.87 261.11 106.82 261.11 106.79C261.31 105.74 265.89 81.0997 266.59 78.1797C266.68 77.8197 266.8 77.3697 266.94 76.8397C267.79 73.6897 269.78 66.2997 266.84 65.2697C266.504 65.1379 266.144 65.0795 265.783 65.0985C265.423 65.1175 265.07 65.2134 264.75 65.3797C263.16 66.1697 262.07 68.4997 261.67 69.7497C261.47 70.3897 261.21 71.1597 260.93 71.9997C260.36 73.7397 259.71 75.7097 259.24 77.3697C259.218 77.4488 259.181 77.5227 259.13 77.5872C259.079 77.6517 259.016 77.7055 258.945 77.7455C258.873 77.7855 258.794 77.8109 258.713 77.8202C258.631 77.8295 258.549 77.8226 258.47 77.7997C258.312 77.7532 258.178 77.6465 258.098 77.5025C258.017 77.3586 257.997 77.1888 258.04 77.0297L258.26 76.2497C261.43 64.9397 263.93 55.9997 262.06 52.6797C261.878 52.3517 261.63 52.0645 261.333 51.8358C261.035 51.6071 260.694 51.4417 260.33 51.3497C256.28 50.2297 254.33 55.4797 254.17 56.0897C254.119 56.2416 254.012 56.3681 253.87 56.4426C253.729 56.5172 253.564 56.5341 253.41 56.4897C253.256 56.4452 253.126 56.344 253.044 56.2066C252.962 56.0692 252.936 55.9059 252.97 55.7497L253.13 55.0597C253.75 52.3097 254.46 49.1897 253.31 47.4697C253.029 47.0896 252.671 46.7736 252.259 46.5425C251.847 46.3115 251.391 46.1708 250.92 46.1297C250.465 46.0502 249.999 46.067 249.551 46.1789C249.103 46.2909 248.684 46.4956 248.32 46.7797C244.93 49.2497 243.52 57.2897 243.17 59.6897C243.145 59.8518 243.058 59.9978 242.928 60.0968C242.797 60.1957 242.633 60.2398 242.47 60.2197C242.306 60.1973 242.158 60.1113 242.057 59.9804C241.956 59.8494 241.91 59.6839 241.93 59.5197C242.67 53.4097 242.31 49.4497 240.87 47.7697C240.628 47.4757 240.322 47.2409 239.975 47.0832C239.629 46.9255 239.251 46.8491 238.87 46.8597C235.35 46.7397 234.03 50.8597 233.33 53.9797C232.73 56.6597 229.47 78.2097 229.43 78.4297C229.41 78.5604 229.349 78.6814 229.256 78.775C229.163 78.8686 229.042 78.93 228.911 78.9501C228.781 78.9702 228.647 78.948 228.53 78.8868C228.413 78.8255 228.318 78.7285 228.26 78.6097C228.2 78.4997 222.45 67.0797 217.1 65.7097C216.607 65.5666 216.088 65.5373 215.583 65.6239C215.077 65.7105 214.597 65.9108 214.18 66.2097C209.42 69.5097 214.18 76.9997 217.7 82.4697C218.52 83.7497 219.22 84.8597 219.7 85.7897C221.46 89.0697 225.7 97.2297 226.7 102.2C227.27 104.98 226.7 141.2 219.1 144.79C213.25 147.52 206.83 140.79 201.16 134.79C200.56 134.16 199.98 133.54 199.4 132.95L171.67 171.71Z" fill="black"/>
<path d="M235 29.15C234.918 26.073 234.323 23.0312 233.24 20.15C229.55 10.27 220.36 3.80996 210.35 1.40996C202.399 -0.467101 194.08 -0.0615504 186.35 2.57996C181.35 4.29996 176.45 6.74996 172.77 10.58C168.77 14.83 166.03 20.28 164.03 25.74C161.979 31.7108 160.398 37.8328 159.3 44.05C158.16 49.84 156.95 56.33 152.14 60.29C144.59 66.5 133.48 59.2899 126.2 73.7899C124.2 77.7199 124.69 83.3099 124.26 85.6499C122.35 95.9499 127.87 104.74 138.17 106.65C141.69 107.3 148.47 105.91 148.62 105.95C159.19 108.87 169.25 106.85 176.78 98.48C181.71 93.01 184.4 85.9999 186.78 79.1499C188 75.6299 189.06 71.69 191.88 69.07C194.88 66.29 199.07 64.66 202.88 63.28C209.88 60.71 216.88 58.06 222.88 53.44C230.63 47.5 235.23 38.5 235 29.15Z" fill="black"/>
<path d="M102.92 231.94H102.76C102.6 231.898 102.464 231.794 102.38 231.652C102.295 231.51 102.271 231.34 102.31 231.18L106.2 215.87C106.234 215.736 106.311 215.617 106.419 215.532C106.528 215.447 106.662 215.4 106.8 215.4H183C183.091 215.399 183.182 215.418 183.265 215.456C183.348 215.494 183.421 215.55 183.48 215.62C183.57 215.73 185.67 218.41 187.23 231.26C187.25 231.424 187.204 231.59 187.102 231.72C186.999 231.851 186.85 231.935 186.685 231.955C186.521 231.975 186.355 231.929 186.225 231.826C186.094 231.724 186.01 231.574 185.99 231.41C184.73 221.05 183.14 217.52 182.65 216.65H107.29L103.52 231.5C103.48 231.627 103.4 231.739 103.292 231.818C103.184 231.897 103.054 231.94 102.92 231.94V231.94Z" fill="black"/>
<path d="M182.66 212.93C182.53 212.93 182.404 212.888 182.3 212.81L168.15 202.63C168.082 202.583 168.025 202.523 167.981 202.454C167.937 202.384 167.907 202.306 167.894 202.225C167.881 202.144 167.885 202.061 167.905 201.981C167.925 201.901 167.96 201.826 168.01 201.76C168.107 201.626 168.252 201.535 168.414 201.507C168.577 201.479 168.744 201.516 168.88 201.61L183 211.8C183.067 211.848 183.123 211.908 183.166 211.978C183.21 212.047 183.239 212.125 183.252 212.206C183.265 212.287 183.261 212.369 183.242 212.449C183.223 212.529 183.188 212.604 183.14 212.67C183.085 212.747 183.013 212.81 182.93 212.855C182.847 212.9 182.754 212.926 182.66 212.93Z" fill="black"/>
<path d="M209.15 136.31C193.74 119.44 168.83 116.1 154.15 115.31H133C124.82 115.07 98.33 117.04 82.92 133.91L101.77 153.5C100.2 156.936 99.8846 160.815 100.879 164.46C101.872 168.105 104.113 171.286 107.21 173.45L106.8 216.01L183.59 216.37C183.59 216.37 183.31 186.27 182.79 160.45L209.15 136.31Z" fill="black"/>
<path d="M137.25 65.8497C137.108 65.8506 136.969 65.8024 136.858 65.7131C136.747 65.6239 136.67 65.4991 136.64 65.3597C136.607 65.1969 136.639 65.0275 136.728 64.8876C136.818 64.7476 136.958 64.648 137.12 64.6097C144 63.1097 148.12 60.8297 151.02 56.9697C154.26 52.6097 156.02 45.7797 156.7 35.4697C157.3 25.7997 163.85 14.9197 173 8.38974C177.44 5.15326 182.566 2.98342 187.981 2.04866C193.395 1.1139 198.952 1.43935 204.22 2.99974C204.379 3.04641 204.513 3.15264 204.595 3.29617C204.677 3.43971 204.7 3.60942 204.66 3.76975C204.616 3.92977 204.51 4.06578 204.366 4.14818C204.221 4.23058 204.051 4.25271 203.89 4.20975C198.802 2.6986 193.433 2.38163 188.202 3.28352C182.971 4.18541 178.019 6.28185 173.73 9.40975C164.87 15.7297 158.53 26.2297 157.95 35.5497C156.58 57.6597 149.95 63.0897 137.38 65.8297L137.25 65.8497Z" fill="black"/>
<path d="M154.12 115.35H154L152.52 105.6C144.13 102.85 148.39 91.2898 148.39 91.2898C139.3 91.3698 140.77 83.4798 141.08 79.0998C141.09 78.9013 141.046 78.7038 140.952 78.5284C140.859 78.3529 140.719 78.2061 140.549 78.1036C140.379 78.001 140.184 77.9465 139.985 77.9458C139.786 77.9451 139.591 77.9984 139.42 78.0998C133.77 81.4598 125.57 78.5798 124.97 82.4898C122.88 96.2998 118.67 109.9 133.52 111.11V115.39H133C126.385 115.339 119.788 116.081 113.35 117.6C114.27 118.9 126.19 135.02 146.35 134.82C162.29 134.66 171.64 123.51 175.21 118.17C168.276 116.617 161.219 115.673 154.12 115.35V115.35Z" fill="white"/>
<path d="M183.59 216.98L106.8 216.63C106.635 216.624 106.478 216.556 106.36 216.44C106.302 216.381 106.256 216.31 106.225 216.233C106.194 216.156 106.179 216.073 106.18 215.99L106.58 173.76C103.506 171.531 101.28 168.325 100.267 164.666C99.2528 161.007 99.5114 157.113 101 153.62L82.4401 134.39C82.3318 134.275 82.2715 134.123 82.2715 133.965C82.2715 133.807 82.3318 133.655 82.4401 133.54C100.28 114.01 131.67 114.7 133 114.74C133.152 114.759 133.292 114.833 133.393 114.948C133.495 115.064 133.551 115.212 133.551 115.365C133.551 115.518 133.495 115.666 133.393 115.782C133.292 115.897 133.152 115.971 133 115.99C131.71 115.99 101.32 115.28 83.8 133.99L102.24 153.09C102.328 153.181 102.387 153.297 102.408 153.421C102.429 153.546 102.413 153.675 102.36 153.79C100.845 157.093 100.539 160.823 101.495 164.329C102.451 167.835 104.608 170.893 107.59 172.97C107.674 173.028 107.742 173.106 107.789 173.197C107.836 173.287 107.861 173.388 107.86 173.49L107.45 215.42L182.98 215.77C182.93 211.29 182.66 183.96 182.19 160.49C182.187 160.402 182.203 160.314 182.238 160.233C182.272 160.151 182.324 160.079 182.39 160.02L208.28 136.31C196.83 124.09 178.61 117.31 154.11 116.01C154.021 116.015 153.933 116.001 153.85 115.97C153.767 115.938 153.692 115.889 153.629 115.827C153.566 115.764 153.517 115.689 153.486 115.606C153.454 115.523 153.44 115.434 153.445 115.346C153.45 115.257 153.474 115.171 153.514 115.092C153.555 115.013 153.612 114.944 153.681 114.888C153.751 114.833 153.831 114.793 153.917 114.771C154.003 114.749 154.093 114.745 154.18 114.76C179.32 116.05 197.97 123.17 209.63 135.93C209.688 135.988 209.734 136.056 209.766 136.132C209.797 136.207 209.813 136.288 209.813 136.37C209.813 136.452 209.797 136.533 209.766 136.608C209.734 136.684 209.688 136.752 209.63 136.81L183.48 160.75C183.99 186.21 184.27 216.09 184.27 216.39C184.271 216.473 184.256 216.556 184.225 216.633C184.194 216.71 184.148 216.781 184.09 216.84C184.022 216.898 183.942 216.941 183.855 216.965C183.769 216.989 183.679 216.994 183.59 216.98V216.98Z" fill="black"/>
<path d="M101.63 154.42C101.544 154.423 101.458 154.405 101.38 154.37C101.305 154.337 101.237 154.29 101.18 154.231C101.124 154.172 101.079 154.103 101.049 154.026C101.02 153.95 101.005 153.869 101.007 153.787C101.009 153.705 101.027 153.625 101.06 153.55C102.813 149.554 106.035 146.386 110.06 144.7C110.21 144.652 110.373 144.663 110.516 144.729C110.659 144.796 110.772 144.914 110.832 145.06C110.893 145.205 110.896 145.368 110.842 145.517C110.788 145.665 110.68 145.787 110.54 145.86C106.814 147.414 103.833 150.349 102.22 154.05C102.167 154.161 102.083 154.255 101.979 154.32C101.874 154.386 101.753 154.42 101.63 154.42V154.42Z" fill="white"/>
<path d="M110.3 137.21H110.29C109.948 137.21 109.67 137.488 109.67 137.83V145.29C109.67 145.632 109.948 145.91 110.29 145.91H110.3C110.642 145.91 110.92 145.632 110.92 145.29V137.83C110.92 137.488 110.642 137.21 110.3 137.21Z" fill="white"/>
<path d="M183 161.13C182.835 161.127 182.677 161.06 182.561 160.942C182.445 160.824 182.38 160.665 182.38 160.5V137.79C182.369 137.701 182.377 137.611 182.403 137.526C182.429 137.44 182.473 137.361 182.532 137.294C182.591 137.227 182.664 137.173 182.746 137.136C182.827 137.1 182.916 137.081 183.005 137.081C183.094 137.081 183.183 137.1 183.264 137.136C183.346 137.173 183.419 137.227 183.478 137.294C183.537 137.361 183.581 137.44 183.607 137.526C183.633 137.611 183.641 137.701 183.63 137.79V160.5C183.63 160.667 183.564 160.827 183.445 160.945C183.327 161.063 183.167 161.13 183 161.13V161.13Z" fill="white"/>
<path d="M133.51 118.11C133.345 118.11 133.186 118.045 133.068 117.929C132.95 117.813 132.883 117.655 132.88 117.49V111.65C128.97 111.24 126.21 109.93 124.46 107.65C120.87 103.04 122.19 95.2301 123.59 86.9701L124.1 83.9201C124.28 82.8001 124.52 81.6601 124.81 80.5401L125.43 78.1501C125.451 78.0713 125.487 77.9973 125.537 77.9325C125.586 77.8677 125.648 77.8133 125.719 77.7724C125.789 77.7315 125.867 77.705 125.948 77.6943C126.029 77.6836 126.111 77.689 126.19 77.7102C126.271 77.7287 126.346 77.7634 126.413 77.8122C126.48 77.8609 126.536 77.9227 126.578 77.9938C126.62 78.0648 126.647 78.1437 126.658 78.2256C126.669 78.3075 126.663 78.3907 126.64 78.4701L126.02 80.8601C125.74 81.9401 125.51 83.0401 125.33 84.1201C125.15 85.2001 124.99 86.1701 124.82 87.1801C123.47 95.1801 122.2 102.71 125.44 106.88C127.06 108.96 129.71 110.13 133.56 110.44C133.715 110.455 133.859 110.526 133.964 110.641C134.069 110.755 134.128 110.905 134.13 111.06V117.5C134.128 117.663 134.061 117.818 133.945 117.932C133.829 118.046 133.673 118.11 133.51 118.11Z" fill="black"/>
<path d="M154.12 116.85C153.971 116.851 153.827 116.798 153.715 116.7C153.602 116.603 153.53 116.468 153.51 116.32L151.89 105.69C151.878 105.609 151.881 105.527 151.901 105.447C151.92 105.368 151.955 105.293 152.003 105.227C152.051 105.161 152.112 105.106 152.182 105.063C152.252 105.021 152.329 104.992 152.41 104.98C152.491 104.967 152.573 104.971 152.653 104.99C152.732 105.01 152.807 105.045 152.873 105.093C152.939 105.141 152.994 105.202 153.037 105.272C153.079 105.342 153.108 105.419 153.12 105.5L154.74 116.13C154.753 116.211 154.75 116.293 154.73 116.373C154.711 116.452 154.676 116.527 154.628 116.593C154.58 116.659 154.519 116.715 154.449 116.757C154.379 116.8 154.301 116.828 154.22 116.84L154.12 116.85Z" fill="black"/>
<path d="M153 92.91C153 94.0259 152.669 95.1168 152.049 96.0445C151.429 96.9722 150.547 97.6951 149.516 98.1217C148.485 98.5482 147.35 98.6593 146.256 98.4409C145.162 98.2225 144.157 97.6843 143.368 96.8946C142.58 96.1048 142.044 95.0989 141.827 94.0042C141.611 92.9095 141.724 91.7751 142.152 90.7447C142.581 89.7143 143.305 88.8342 144.234 88.2157C145.163 87.5971 146.254 87.268 147.37 87.27C148.11 87.27 148.843 87.416 149.527 87.6995C150.21 87.9831 150.832 88.3987 151.355 88.9225C151.877 89.4464 152.292 90.0682 152.574 90.7524C152.857 91.4367 153.001 92.1698 153 92.91V92.91Z" fill="white"/>
<path d="M146.31 94.4997C146.182 94.4971 146.058 94.4591 145.95 94.3897C145.815 94.2915 145.724 94.1446 145.696 93.9802C145.668 93.8158 145.706 93.6471 145.8 93.5097L147.87 90.6297C147.917 90.5623 147.977 90.5049 148.046 90.4608C148.115 90.4167 148.193 90.3867 148.274 90.3728C148.355 90.3588 148.438 90.3611 148.518 90.3795C148.598 90.3978 148.673 90.4319 148.74 90.4797C148.807 90.5274 148.863 90.5878 148.907 90.6574C148.95 90.7271 148.979 90.8046 148.992 90.8855C149.005 90.9664 149.001 91.0491 148.982 91.1288C148.963 91.2085 148.928 91.2836 148.88 91.3497L146.82 94.2397C146.762 94.3209 146.686 94.3868 146.597 94.4321C146.508 94.4774 146.41 94.5006 146.31 94.4997V94.4997Z" fill="black"/>
<path d="M152.08 99.2698C152.082 100.004 151.866 100.723 151.459 101.335C151.052 101.946 150.473 102.423 149.795 102.705C149.116 102.988 148.369 103.062 147.649 102.919C146.928 102.776 146.266 102.423 145.747 101.903C145.227 101.384 144.874 100.722 144.731 100.001C144.588 99.2805 144.662 98.5338 144.944 97.8555C145.227 97.1771 145.704 96.5978 146.315 96.1909C146.927 95.784 147.646 95.5679 148.38 95.5698C149.361 95.5698 150.303 95.9597 150.996 96.6535C151.69 97.3474 152.08 98.2885 152.08 99.2698V99.2698Z" fill="#FB5F2F"/>
<path d="M133.51 111.71C133.421 111.721 133.331 111.713 133.246 111.687C133.16 111.661 133.081 111.617 133.014 111.557C132.947 111.498 132.893 111.426 132.857 111.344C132.82 111.263 132.801 111.174 132.801 111.085C132.801 110.995 132.82 110.907 132.857 110.826C132.893 110.744 132.947 110.671 133.014 110.612C133.081 110.553 133.16 110.509 133.246 110.483C133.331 110.456 133.421 110.449 133.51 110.46C135.977 110.456 138.428 110.058 140.77 109.28C140.927 109.222 141.1 109.228 141.252 109.297C141.403 109.367 141.522 109.493 141.58 109.65C141.635 109.805 141.627 109.976 141.558 110.125C141.489 110.275 141.364 110.391 141.21 110.45C138.729 111.287 136.128 111.713 133.51 111.71V111.71Z" fill="black"/>
<path d="M128.21 96.64C128.147 96.6504 128.083 96.6504 128.02 96.64C127.942 96.6161 127.869 96.5768 127.806 96.5246C127.743 96.4723 127.69 96.408 127.652 96.3355C127.614 96.263 127.591 96.1836 127.584 96.102C127.576 96.0204 127.585 95.9381 127.61 95.86L130.14 87.74C130.191 87.581 130.302 87.4485 130.45 87.3716C130.598 87.2947 130.771 87.2798 130.93 87.33C131.008 87.3539 131.081 87.3932 131.144 87.4454C131.208 87.4977 131.26 87.5619 131.298 87.6345C131.336 87.707 131.359 87.7864 131.367 87.868C131.374 87.9496 131.365 88.0319 131.34 88.11L128.8 96.23C128.756 96.3511 128.676 96.4557 128.57 96.5292C128.465 96.6026 128.339 96.6414 128.21 96.64V96.64Z" fill="black"/>
<path d="M136.71 91.2798C137.406 91.2798 137.97 90.7156 137.97 90.0198C137.97 89.3239 137.406 88.7598 136.71 88.7598C136.014 88.7598 135.45 89.3239 135.45 90.0198C135.45 90.7156 136.014 91.2798 136.71 91.2798Z" fill="black"/>
<path d="M127.56 89.3499C127.562 89.6015 127.489 89.848 127.351 90.0581C127.212 90.2683 127.015 90.4326 126.783 90.5303C126.551 90.6279 126.295 90.6545 126.048 90.6067C125.801 90.5588 125.574 90.4386 125.396 90.2614C125.217 90.0842 125.095 89.858 125.045 89.6113C124.995 89.3647 125.02 89.1088 125.116 88.8762C125.212 88.6435 125.374 88.4446 125.583 88.3046C125.792 88.1646 126.038 88.0899 126.29 88.0898C126.625 88.0898 126.947 88.2223 127.185 88.4583C127.422 88.6943 127.557 89.0148 127.56 89.3499V89.3499Z" fill="black"/>
<path d="M130 100.9C129.319 100.896 128.658 100.671 128.116 100.258C127.575 99.8445 127.183 99.2658 127 98.6097C126.977 98.5309 126.97 98.4484 126.98 98.3669C126.989 98.2854 127.014 98.2065 127.054 98.1349C127.094 98.0633 127.148 98.0003 127.213 97.9497C127.277 97.899 127.351 97.8616 127.43 97.8397L132.25 96.4897C132.411 96.4467 132.581 96.4689 132.726 96.5513C132.87 96.6337 132.976 96.7697 133.02 96.9297C133.242 97.728 133.137 98.5815 132.731 99.3031C132.324 100.025 131.648 100.556 130.85 100.78C130.574 100.86 130.288 100.901 130 100.9V100.9ZM128.46 98.8997C128.621 99.1312 128.833 99.3228 129.08 99.4597C129.513 99.6991 130.023 99.7602 130.5 99.6297C130.739 99.5649 130.962 99.4526 131.156 99.2997C131.35 99.1468 131.511 98.9563 131.63 98.7397C131.768 98.494 131.85 98.2208 131.87 97.9397L128.46 98.8997Z" fill="black"/>
<path d="M133.51 116.4C133.51 116.4 135.99 118.55 138.51 116.8C141.03 115.05 141.6 109.58 141.6 109.58L133.52 111.08L133.51 116.4Z" fill="black"/>
<path d="M248.9 96.8499C248.819 96.8486 248.738 96.8313 248.664 96.7989C248.589 96.7665 248.521 96.7197 248.465 96.6612C248.408 96.6027 248.363 96.5337 248.333 96.4579C248.304 96.3822 248.289 96.3013 248.29 96.2199C248.37 91.2199 246.92 87.2199 243.98 84.3499C238.33 78.7599 228.98 78.9599 228.9 78.9599C228.735 78.9601 228.577 78.8968 228.458 78.7832C228.339 78.6696 228.268 78.5144 228.26 78.3499C228.257 78.2676 228.271 78.1857 228.3 78.1088C228.33 78.0319 228.374 77.9616 228.431 77.902C228.488 77.8425 228.556 77.7948 228.631 77.7618C228.707 77.7288 228.788 77.7112 228.87 77.7099C229.27 77.7099 238.87 77.4999 244.87 83.4599C248.07 86.6199 249.64 90.9199 249.55 96.2399C249.547 96.3226 249.529 96.4041 249.495 96.4795C249.46 96.555 249.412 96.623 249.352 96.6796C249.291 96.7363 249.22 96.7805 249.143 96.8097C249.065 96.8389 248.983 96.8526 248.9 96.8499V96.8499Z" fill="black"/>
<path d="M248.91 78.9499H248.78C248.699 78.9345 248.622 78.9029 248.554 78.857C248.485 78.811 248.427 78.7517 248.382 78.6825C248.337 78.6133 248.307 78.5358 248.293 78.4546C248.279 78.3733 248.281 78.2901 248.3 78.2099L252.98 55.7699C252.995 55.6889 253.027 55.6118 253.073 55.5434C253.119 55.475 253.178 55.4165 253.248 55.3717C253.317 55.3268 253.394 55.2964 253.475 55.2824C253.557 55.2683 253.64 55.2709 253.72 55.2899C253.88 55.3236 254.021 55.4192 254.111 55.556C254.2 55.6927 254.233 55.8595 254.2 56.0199L249.52 78.4999C249.483 78.6318 249.402 78.7475 249.292 78.829C249.182 78.9104 249.047 78.9529 248.91 78.9499V78.9499Z" fill="black"/>
<path d="M240.31 77.27H240.22C240.139 77.2602 240.06 77.2342 239.989 77.1934C239.918 77.1526 239.856 77.0979 239.806 77.0325C239.757 76.9672 239.721 76.8926 239.701 76.8131C239.681 76.7336 239.677 76.6509 239.69 76.57L241.95 59.57C241.961 59.4892 241.987 59.4113 242.027 59.3407C242.068 59.2701 242.122 59.2082 242.187 59.1585C242.251 59.1088 242.325 59.0724 242.404 59.0512C242.482 59.03 242.564 59.0245 242.645 59.035C242.726 59.0455 242.804 59.0718 242.874 59.1124C242.945 59.153 243.007 59.2071 243.057 59.2717C243.106 59.3362 243.143 59.4099 243.164 59.4885C243.185 59.5672 243.191 59.6492 243.18 59.73L240.93 76.73C240.909 76.8793 240.834 77.0159 240.72 77.115C240.607 77.2141 240.461 77.2691 240.31 77.27V77.27Z" fill="black"/>
<path d="M35.0001 86.0398C34.9338 86.0495 34.8664 86.0495 34.8001 86.0398L7.34014 76.2898C7.18587 76.2312 7.06018 76.1152 6.98937 75.9661C6.91856 75.8171 6.90811 75.6464 6.96014 75.4898C6.987 75.4118 7.02912 75.34 7.0841 75.2785C7.13907 75.217 7.20576 75.1671 7.28026 75.1317C7.35477 75.0963 7.4356 75.0762 7.518 75.0724C7.60039 75.0687 7.6827 75.0814 7.76012 75.1098L35.2101 84.8598C35.2881 84.8867 35.36 84.9288 35.4214 84.9838C35.4829 85.0388 35.5328 85.1055 35.5682 85.18C35.6036 85.2545 35.6237 85.3353 35.6275 85.4177C35.6313 85.5001 35.6186 85.5824 35.5901 85.6598C35.5406 85.7745 35.458 85.8719 35.3529 85.9396C35.2478 86.0072 35.1251 86.0421 35.0001 86.0398V86.0398Z" fill="black"/>
<path d="M34.81 82.02C34.6861 82.0212 34.5646 81.9865 34.46 81.92L12.69 67.6C12.5511 67.5082 12.4543 67.3651 12.4205 67.2021C12.3868 67.0391 12.419 66.8694 12.51 66.73C12.6035 66.5932 12.7464 66.498 12.9087 66.4644C13.071 66.4309 13.2399 66.4615 13.38 66.55L35.15 80.87C35.2601 80.9452 35.3434 81.0533 35.3881 81.1789C35.4328 81.3045 35.4365 81.441 35.3987 81.5688C35.361 81.6966 35.2836 81.8092 35.1778 81.8902C35.072 81.9713 34.9432 82.0167 34.81 82.02V82.02Z" fill="black"/>
<path d="M59.6101 96.4999C59.4676 96.5007 59.3292 96.4525 59.2181 96.3632C59.107 96.274 59.03 96.1492 59.0001 96.0099C59.0001 95.8999 56.5102 85.0799 46.7802 83.3699C37.0502 81.6599 33.1001 88.3699 33.0601 88.4799C32.9935 88.6006 32.8884 88.6957 32.7616 88.75C32.6348 88.8044 32.4935 88.8149 32.3601 88.7799C32.2201 88.7799 17.9301 85.0399 13.1001 84.2899C11.8672 83.9989 10.5706 84.1636 9.44954 84.7536C8.32847 85.3435 7.45853 86.3189 7.00014 87.4999C6.94151 87.6541 6.82554 87.7798 6.67647 87.8506C6.5274 87.9214 6.35677 87.9319 6.20015 87.8799C6.12254 87.8541 6.05092 87.813 5.98952 87.7589C5.92812 87.7049 5.87818 87.6391 5.84273 87.5654C5.80728 87.4917 5.78704 87.4116 5.78316 87.3299C5.77928 87.2482 5.79184 87.1666 5.82015 87.0899C6.39786 85.6525 7.46276 84.4641 8.82845 83.7328C10.1941 83.0015 11.7735 82.7739 13.2901 83.0899C17.7601 83.7799 29.7601 86.8499 32.2901 87.4899C33.3901 85.9299 37.9101 80.5699 47.0501 82.1699C57.6101 84.0299 60.2402 95.6599 60.2702 95.7799C60.3029 95.9415 60.271 96.1095 60.1812 96.2479C60.0915 96.3862 59.9511 96.4839 59.7901 96.5199L59.6101 96.4999Z" fill="black"/>
<path d="M80.4301 47.6201H16.92V88.9901H80.4301V47.6201Z" fill="#FF5F00"/>
<path d="M80.4301 89.6097H16.92C16.7556 89.6097 16.5979 89.5444 16.4816 89.4281C16.3654 89.3119 16.3 89.1542 16.3 88.9897V47.6197C16.3 47.4544 16.365 47.2956 16.481 47.1778C16.597 47.0599 16.7547 46.9924 16.92 46.9897H80.4301C80.5123 46.9897 80.5938 47.0061 80.6697 47.0379C80.7456 47.0697 80.8144 47.1162 80.8721 47.1749C80.9298 47.2335 80.9752 47.303 81.0057 47.3794C81.0363 47.4558 81.0514 47.5375 81.05 47.6197V88.9897C81.05 89.1542 80.9847 89.3119 80.8685 89.4281C80.7522 89.5444 80.5945 89.6097 80.4301 89.6097V89.6097ZM17.55 88.3597H79.8101V48.2397H17.55V88.3597Z" fill="black"/>
<path d="M80.4301 58.3197H16.92C16.7556 58.3197 16.5979 58.2544 16.4816 58.1382C16.3654 58.0219 16.3 57.8642 16.3 57.6997V47.6197C16.3 47.4544 16.365 47.2956 16.481 47.1778C16.597 47.0599 16.7547 46.9924 16.92 46.9897H80.4301C80.5123 46.9897 80.5938 47.0061 80.6697 47.0379C80.7456 47.0697 80.8144 47.1162 80.8721 47.1749C80.9298 47.2335 80.9752 47.303 81.0057 47.3794C81.0363 47.4558 81.0514 47.5375 81.05 47.6197V57.6997C81.05 57.8642 80.9847 58.0219 80.8685 58.1382C80.7522 58.2544 80.5945 58.3197 80.4301 58.3197V58.3197ZM17.55 57.0697H79.8101V48.2397H17.55V57.0697Z" fill="black"/>
<path d="M48.68 89.6101C48.5147 89.6101 48.356 89.5451 48.2381 89.4291C48.1202 89.3131 48.0527 89.1554 48.05 88.9901V48.0901C48.0388 48.0014 48.0466 47.9113 48.0729 47.8258C48.0991 47.7403 48.1433 47.6614 48.2024 47.5943C48.2615 47.5272 48.3343 47.4735 48.4158 47.4367C48.4973 47.3999 48.5856 47.3809 48.675 47.3809C48.7645 47.3809 48.8529 47.3999 48.9344 47.4367C49.0159 47.4735 49.0886 47.5272 49.1477 47.5943C49.2068 47.6614 49.251 47.7403 49.2773 47.8258C49.3035 47.9113 49.3113 48.0014 49.3 48.0901V88.9901C49.3 89.1545 49.2347 89.3122 49.1185 89.4285C49.0022 89.5448 48.8445 89.6101 48.68 89.6101V89.6101Z" fill="black"/>
<path d="M48.6801 48.1399C48.6007 48.1539 48.5195 48.1539 48.4401 48.1399C47.7001 47.8399 30.1901 40.6599 29.2301 33.5199C28.9801 31.6599 29.8201 29.9899 31.7201 28.5199C32.5152 27.8119 33.4832 27.3262 34.5262 27.112C35.5692 26.8978 36.6502 26.9626 37.6601 27.2999C44.8701 29.8399 49.1101 46.6799 49.2801 47.3899C49.3088 47.5016 49.3052 47.6191 49.2698 47.7289C49.2344 47.8386 49.1686 47.936 49.0801 48.0099C48.9664 48.0993 48.8246 48.1454 48.6801 48.1399V48.1399ZM35.7901 28.1899C34.5739 28.2397 33.4091 28.6936 32.4801 29.4799C30.9401 30.6499 30.2801 31.8999 30.4801 33.2999C31.2101 38.7399 43.7901 44.6899 47.7401 46.4299C46.6301 42.4999 42.7401 30.4299 37.2501 28.4299C36.7819 28.2623 36.2872 28.1809 35.7901 28.1899Z" fill="black"/>
<path d="M50.6401 48.2399C50.4727 48.2392 50.3118 48.1748 50.1901 48.0599C50.0752 47.9423 50.0109 47.7843 50.0109 47.6199C50.0109 47.4555 50.0752 47.2976 50.1901 47.1799C54.1901 43.1299 64.37 31.5399 62.99 26.5499C62.8026 25.9779 62.4571 25.4705 61.9935 25.0865C61.5298 24.7025 60.967 24.4576 60.37 24.3799C59.6209 24.1617 58.8307 24.124 58.0641 24.27C57.2976 24.4161 56.5766 24.7416 55.9601 25.2199C49.9601 29.7799 49.31 47.3499 49.3 47.5299C49.3113 47.6186 49.3035 47.7087 49.2773 47.7942C49.251 47.8797 49.2068 47.9586 49.1477 48.0257C49.0886 48.0928 49.0159 48.1465 48.9344 48.1833C48.8529 48.2201 48.7645 48.2391 48.675 48.2391C48.5856 48.2391 48.4973 48.2201 48.4158 48.1833C48.3343 48.1465 48.2615 48.0928 48.2024 48.0257C48.1433 47.9586 48.0991 47.8797 48.0729 47.7942C48.0466 47.7087 48.0388 47.6186 48.05 47.5299C48.05 46.7899 48.6901 29.1799 55.2101 24.2699C55.9744 23.6759 56.868 23.2703 57.8183 23.0861C58.7687 22.902 59.7491 22.9444 60.68 23.2099C61.4925 23.3403 62.2525 23.6948 62.8744 24.2337C63.4963 24.7725 63.9554 25.4743 64.2001 26.2599C66.0501 32.9599 51.6901 47.4799 51.0801 48.0999C50.9569 48.2015 50.7993 48.2517 50.6401 48.2399V48.2399Z" fill="black"/>
</svg>
