<svg width="41" height="31" viewBox="0 0 41 31" fill="none" xmlns="http://www.w3.org/2000/svg">
<path d="M0.726562 16.6102V14.0998C0.726563 10.3603 2.25329 6.77397 4.97087 4.12974C7.68845 1.48551 11.3743 0 15.2175 0H26.4548C28.3576 -1.00696e-07 30.2417 0.364736 31.9996 1.07338C33.7574 1.78202 35.3546 2.82067 36.6998 4.13002C38.0451 5.43937 39.112 6.99376 39.8397 8.7044C40.5674 10.415 40.9417 12.2484 40.941 14.0998V16.6102C40.9417 18.4616 40.5674 20.295 39.8397 22.0056C39.112 23.7162 38.0451 25.2706 36.6998 26.58C35.3546 27.8893 33.7574 28.928 31.9996 29.6366C30.2417 30.3453 28.3576 30.71 26.4548 30.71H15.2175C11.3743 30.71 7.68845 29.2245 4.97087 26.5803C2.25329 23.936 0.726563 20.3497 0.726563 16.6102" fill="#005A72"/>
<path d="M11.7559 15.4853H30.2358" stroke="white" stroke-linecap="round" stroke-linejoin="round"/>
<path d="M11.7559 9.49164H30.2358" stroke="white" stroke-linecap="round" stroke-linejoin="round"/>
<path d="M11.7559 21.4791H30.2358" stroke="white" stroke-linecap="round" stroke-linejoin="round"/>
</svg>
