   <svg
                                        width="53"
                                        height="53"
                                        viewBox="0 0 53 53"
                                        fill="none"
                                        xmlns="http://www.w3.org/2000/svg"
                                    >
                                        <path
                                            d="M52.5363 15.3819V36.3948C52.5045 36.6279 52.4709 36.861 52.4427 37.1011C52.3049 38.2454 52.2502 39.4072 52.0154 40.532C50.9806 45.5186 48.1642 49.0608 43.363 50.9273C41.0674 51.8225 38.6465 52.0662 36.2097 52.0909C30.6881 52.1474 25.1665 52.1986 19.6448 52.1686C16.9326 52.1545 14.2062 52.1439 11.5381 51.4959C7.21718 50.447 4.00874 47.9978 2.10169 43.9524C0.925669 41.4626 0.567196 38.7839 0.538943 36.0663C0.478906 30.4264 0.417114 24.7847 0.461258 19.1447C0.467062 16.7673 0.636961 14.3932 0.969786 12.0392C1.51012 8.38755 3.26535 5.35568 6.25837 3.11488C8.81877 1.1937 11.7818 0.429119 14.9108 0.208395C16.1627 0.120105 17.4164 0.0688659 18.6684 0H34.2762C35.4946 0.0671001 36.713 0.130651 37.9296 0.203049C40.0627 0.32842 42.1481 0.695754 44.1099 1.57688C48.9093 3.73468 51.4362 7.5806 52.2325 12.6784C52.365 13.5649 52.4338 14.476 52.5363 15.3819ZM26.5244 47.5775V47.4981C27.8999 47.4981 29.279 47.5387 30.6528 47.4892C33.6211 47.3833 36.6124 47.4204 39.5506 47.0478C43.5643 46.541 46.2783 44.2226 47.2583 40.2284C47.6539 38.6127 47.788 36.9034 47.8181 35.2329C47.9134 30.4064 47.9428 25.5799 47.9063 20.7534C47.9125 18.223 47.7804 15.6942 47.5108 13.1782C47.0129 8.96676 44.373 6.12734 40.204 5.29212C38.4188 4.93896 36.5629 4.8312 34.73 4.80472C29.8729 4.73291 25.0134 4.72355 20.1516 4.77652C17.8561 4.80478 15.5235 4.88596 13.2474 5.21616C9.25843 5.79357 6.53734 8.38579 5.74273 12.3111C5.41884 14.0289 5.24984 15.7723 5.23774 17.5202C5.14827 21.7334 5.12297 25.9472 5.16182 30.1615C5.1936 33.0804 5.26776 36.0081 5.55205 38.9111C5.84341 41.8988 7.26485 44.3302 9.94002 45.8771C11.5769 46.8236 13.3904 47.2173 15.2551 47.2897C19.0162 47.4204 22.7703 47.4804 26.5244 47.5775Z"
                                            fill="white"
                                        />
                                        <path
                                            d="M13.115 26.0967C13.1129 24.3357 13.4577 22.5916 14.1297 20.9639C14.8016 19.3362 15.7876 17.8568 17.0313 16.6101C18.275 15.3635 19.7521 14.374 21.3782 13.6982C23.0043 13.0224 24.7476 12.6735 26.5086 12.6714C28.2695 12.6693 30.0136 13.0141 31.6413 13.686C33.269 14.358 34.7485 15.344 35.9951 16.5877C37.2418 17.8314 38.2312 19.3085 38.907 20.9346C39.5829 22.5607 39.9318 24.304 39.9339 26.065C39.971 33.4513 33.9531 39.4849 26.5456 39.5061C22.9877 39.5047 19.5756 38.0922 17.0578 35.5783C14.54 33.0645 13.122 29.6546 13.115 26.0967ZM17.8403 26.049C17.8329 27.7678 18.3356 29.4502 19.2845 30.8834C20.2334 32.3165 21.5861 33.4361 23.1714 34.1003C24.7566 34.7646 26.5033 34.9439 28.1905 34.6153C29.8776 34.2868 31.4294 33.4653 32.6496 32.2547C33.8699 31.0441 34.7036 29.4989 35.0455 27.8145C35.3874 26.13 35.222 24.3819 34.5703 22.7914C33.9186 21.2009 32.8099 19.8394 31.3843 18.8791C29.9587 17.9188 28.2804 17.4029 26.5615 17.3966C25.42 17.3892 24.2882 17.6074 23.2312 18.0387C22.1742 18.47 21.2129 19.106 20.4024 19.91C19.592 20.7141 18.9485 21.6703 18.5088 22.7238C18.0691 23.7774 17.8419 24.9074 17.8403 26.049Z"
                                            fill="white"
                                        />
                                        <path
                                            d="M43.5889 12.1312C43.5941 12.7483 43.4164 13.3531 43.0782 13.8693C42.74 14.3855 42.2565 14.7899 41.6886 15.0316C41.1208 15.2733 40.4941 15.3414 39.8877 15.2272C39.2812 15.1131 38.7221 14.8219 38.281 14.3904C37.8399 13.9588 37.5364 13.4063 37.409 12.8025C37.2816 12.1986 37.3358 11.5706 37.565 10.9976C37.7941 10.4246 38.1878 9.93237 38.6964 9.58291C39.2051 9.23344 39.8058 9.04242 40.4229 9.03403C40.835 9.02606 41.2447 9.1002 41.6279 9.25217C42.0111 9.40413 42.3603 9.63088 42.6549 9.91917C42.9496 10.2074 43.184 10.5515 43.3443 10.9313C43.5047 11.3111 43.5878 11.719 43.5889 12.1312Z"
                                            fill="white"
                                        />
                                    </svg>