         <svg
                                        width="150"
                                        height="52"
                                        viewBox="0 0 150 52"
                                        fill="none"
                                        xmlns="http://www.w3.org/2000/svg"
                                    >
                                        <path
                                            d="M149.322 7.68018V44.1504C149.322 44.3904 149.322 44.6301 149.232 44.8701C148.933 46.6538 147.99 48.2661 146.582 49.4004C145.186 50.5269 143.435 51.1189 141.642 51.0703H7.82188C7.44092 51.0669 7.06038 51.0432 6.68186 51C5.66128 50.8933 4.67515 50.571 3.78892 50.0537C2.90269 49.5365 2.13664 48.8362 1.54185 48C0.561373 46.6473 0.0520189 45.0105 0.091897 43.3403C0.091897 31.7603 0.091897 20.177 0.091897 8.59033C0.0933767 8.02085 0.140206 7.45219 0.231912 6.89014C0.495936 5.39541 1.21318 4.01812 2.28648 2.94482C3.35977 1.87153 4.73719 1.15416 6.23191 0.890137L6.98191 0.760254H142.512L143.302 0.890137C144.769 1.15995 146.12 1.86691 147.178 2.91797C148.236 3.96903 148.952 5.31526 149.232 6.78027C149.242 7.10027 149.272 7.40018 149.322 7.68018ZM74.7119 49.3003H142.002C143.476 49.277 144.884 48.6803 145.925 47.6367C146.967 46.5931 147.561 45.1844 147.582 43.71C147.582 31.8433 147.582 19.9801 147.582 8.12012C147.579 7.86201 147.555 7.60452 147.512 7.3501C147.38 6.41627 147.013 5.53165 146.444 4.7793C145.875 4.02694 145.124 3.43187 144.262 3.05029C143.443 2.6784 142.55 2.50042 141.652 2.53027H7.4719C6.72123 2.54066 5.98 2.69943 5.29099 2.99756C4.60199 3.29569 3.97885 3.72702 3.45738 4.26709C2.9359 4.80716 2.52636 5.44502 2.25254 6.14404C1.97872 6.84307 1.84601 7.58976 1.86192 8.34033V43.7603C1.88133 44.8533 2.22016 45.9166 2.83677 46.8193C3.45338 47.722 4.32078 48.4247 5.33189 48.8403C6.10451 49.1729 6.94121 49.3299 7.78184 49.3003H74.7119Z"
                                            fill="white"
                                        />
                                        <path
                                            d="M11.1818 27.6804V14.0705C11.1818 13.7928 11.2019 13.5153 11.2418 13.2404C11.2838 12.9274 11.4197 12.6347 11.6317 12.4006C11.8517 12.1306 11.9618 12.1206 12.2018 12.4006L13.0918 13.3103L27.2517 27.7903C27.6517 28.1903 27.6517 28.2006 27.2517 28.6106L12.8618 43.0505C12.4518 43.4705 12.2418 43.4705 11.8618 43.0505C11.5042 42.6904 11.2968 42.2077 11.2817 41.7004V27.7004L11.1818 27.6804Z"
                                            fill="white"
                                        />
                                        <path
                                            d="M12.9518 11.8003C13.284 11.8018 13.6093 11.8953 13.8917 12.0703L19.3418 15.1401L32.3418 22.4702C32.4519 22.5276 32.5587 22.591 32.6617 22.6602C32.8817 22.8002 32.8917 22.8701 32.6617 23.0801C32.607 23.1482 32.5468 23.2116 32.4818 23.27L28.6218 27.1304L28.5518 27.21C28.2418 27.51 28.2117 27.51 27.9017 27.21L17.3518 16.4004L13.2218 12.1802L12.9518 11.8003Z"
                                            fill="white"
                                        />
                                        <path
                                            d="M58.1717 29.1001H53.0618C52.9904 28.5357 52.9904 27.9648 53.0618 27.4004H59.9618C60.0539 27.8306 60.0875 28.2708 60.0618 28.71C60.0763 29.6746 59.8784 30.6309 59.4818 31.5103C59.0535 32.4632 58.4017 33.2988 57.5818 33.9463C56.7619 34.5939 55.798 35.0341 54.7717 35.23C53.2774 35.5931 51.7069 35.478 50.2817 34.9004C49.0076 34.421 47.8949 33.591 47.0721 32.5064C46.2494 31.4218 45.75 30.1263 45.6317 28.7701C45.4431 27.3755 45.6583 25.9562 46.2517 24.6802C46.7092 23.6796 47.3835 22.7934 48.2257 22.0855C49.0679 21.3776 50.0571 20.866 51.1215 20.5874C52.1858 20.3089 53.2987 20.2705 54.3798 20.4751C55.4608 20.6797 56.4829 21.1218 57.3718 21.7701C57.6718 21.9901 57.9218 22.2601 58.2318 22.5401L56.9718 23.8101C56.9718 23.7601 56.8718 23.7402 56.8418 23.7002C56.3414 23.1476 55.7199 22.7182 55.026 22.4458C54.332 22.1735 53.5845 22.0657 52.8418 22.1304C51.839 22.1495 50.8615 22.449 50.0203 22.9952C49.179 23.5413 48.5075 24.3121 48.0818 25.2202C47.5897 26.272 47.4028 27.4406 47.5425 28.5933C47.6821 29.746 48.1428 30.8365 48.8718 31.7403C49.3723 32.2986 49.9779 32.7528 50.6542 33.0767C51.3304 33.4006 52.0638 33.5875 52.8125 33.6275C53.5612 33.6674 54.3105 33.5592 55.0173 33.3091C55.7242 33.059 56.3747 32.6723 56.9318 32.1704C57.7126 31.337 58.1547 30.2421 58.1717 29.1001Z"
                                            fill="white"
                                        />
                                        <path
                                            d="M90.2819 26.5398V25.24H92.0619V25.6199C92.0619 28.5399 92.0619 31.4702 92.0619 34.4002C92.072 34.9573 92.0217 35.5135 91.9119 36.0598C91.7545 36.9258 91.3404 37.7246 90.7234 38.3523C90.1064 38.98 89.3151 39.4076 88.4519 39.5798C87.423 39.8737 86.3276 39.8354 85.3219 39.47C84.7374 39.2531 84.2024 38.9207 83.7489 38.4929C83.2954 38.0652 82.9326 37.5506 82.6819 36.9798C82.6785 36.9398 82.6785 36.9001 82.6819 36.8601L84.3119 36.1799C84.3719 36.2799 84.4019 36.3597 84.4419 36.4397C84.676 36.9209 85.0395 37.3274 85.4917 37.6135C85.9439 37.8997 86.4668 38.0543 87.0018 38.0598C87.7079 38.1 88.4084 37.9146 89.0018 37.53C89.3747 37.2702 89.6838 36.9292 89.9055 36.5325C90.1273 36.1358 90.2559 35.6937 90.2819 35.24C90.3069 34.7403 90.3069 34.2397 90.2819 33.74C90.2286 33.7719 90.1783 33.8086 90.1319 33.8499C89.7856 34.2785 89.3582 34.6345 88.874 34.8977C88.3899 35.1609 87.8586 35.3265 87.3106 35.384C86.7625 35.4416 86.2085 35.3905 85.6802 35.2337C85.1519 35.0768 84.6598 34.8173 84.232 34.47C83.087 33.4958 82.3724 32.1093 82.2432 30.6116C82.114 29.1139 82.5807 27.6258 83.5419 26.47C84.073 25.813 84.7859 25.3268 85.5916 25.0725C86.3972 24.8182 87.2599 24.8068 88.0719 25.0398C88.8638 25.2519 89.5656 25.7154 90.0719 26.3601L90.2219 26.5398H90.2819ZM90.2819 30.1301C90.2448 29.7541 90.1881 29.3801 90.112 29.01C90.0186 28.5721 89.8305 28.1596 89.5611 27.802C89.2916 27.4444 88.9471 27.1501 88.5519 26.9397C88.1812 26.7402 87.7727 26.6213 87.3529 26.5901C86.9331 26.5589 86.5114 26.6161 86.1153 26.7586C85.7191 26.901 85.3574 27.1254 85.0536 27.4168C84.7498 27.7082 84.5108 28.0601 84.3519 28.45C84.1195 28.9796 83.9994 29.5518 83.9994 30.1301C83.9994 30.7085 84.1195 31.2802 84.3519 31.8098C84.5691 32.395 84.9634 32.8978 85.4799 33.2483C85.9963 33.5988 86.6092 33.7797 87.2332 33.7654C87.8572 33.7511 88.4612 33.5425 88.9611 33.1687C89.4609 32.7949 89.8317 32.2745 90.0219 31.6799C90.1999 31.1819 90.2978 30.6589 90.3119 30.1301H90.2819Z"
                                            fill="white"
                                        />
                                        <path
                                            d="M40.3419 27.7701C40.3374 27.9774 40.2866 28.1811 40.1931 28.3662C40.0997 28.5514 39.966 28.7136 39.8019 28.8404C39.6089 28.9918 39.405 29.1285 39.1919 29.25L33.6318 32.3404C33.2618 32.5504 33.1919 32.54 32.9019 32.25L29.2419 28.5103L29.1119 28.3604C29.0899 28.3389 29.0723 28.313 29.0603 28.2847C29.0483 28.2564 29.0421 28.2261 29.0421 28.1953C29.0421 28.1646 29.0483 28.1338 29.0603 28.1055C29.0723 28.0772 29.0899 28.0517 29.1119 28.0303L29.2919 27.8301L33.4619 23.6602L33.6619 23.48C33.7127 23.4271 33.7802 23.3934 33.853 23.3843C33.9259 23.3752 33.9996 23.3914 34.0619 23.4302C34.1351 23.4794 34.212 23.5228 34.2919 23.5601L39.2919 26.3604C39.5351 26.4995 39.763 26.6634 39.9719 26.8501C40.0921 26.9708 40.1868 27.1144 40.2504 27.2725C40.3139 27.4305 40.3451 27.5997 40.3419 27.7701Z"
                                            fill="white"
                                        />
                                        <path
                                            d="M14.6219 42.77L14.8419 42.5303L27.7819 29.3604C27.8775 29.2496 27.9812 29.1459 28.0919 29.0503C28.1191 29.0169 28.1533 28.9897 28.1923 28.9712C28.2312 28.9527 28.2738 28.9434 28.3169 28.9434C28.36 28.9434 28.4026 28.9527 28.4415 28.9712C28.4804 28.9897 28.5147 29.0169 28.5419 29.0503C28.62 29.1151 28.6935 29.1852 28.7618 29.2603L32.0619 32.6401C32.1519 32.7401 32.2419 32.8603 32.3619 33.0103L31.8818 33.3101L22.5519 38.46L14.9619 42.6504L14.6418 42.8003L14.6219 42.77Z"
                                            fill="white"
                                        />
                                        <path
                                            d="M113.562 29.2498V35.0198C112.971 35.0933 112.373 35.0933 111.782 35.0198C111.712 34.7898 111.692 21.1402 111.782 20.6502H112.102C113.562 20.6502 115.032 20.6502 116.492 20.6502C117.119 20.6287 117.744 20.7354 118.329 20.9641C118.914 21.1928 119.445 21.5382 119.892 21.9798C120.358 22.4355 120.708 22.9973 120.912 23.617C121.116 24.2367 121.167 24.8961 121.062 25.5398C120.913 26.5138 120.434 27.4074 119.707 28.0716C118.979 28.7357 118.045 29.1302 117.062 29.1897C116.062 29.1897 115.062 29.1897 114.062 29.1897L113.562 29.2498ZM113.562 22.4397V27.4397H113.682C114.682 27.4397 115.782 27.4397 116.832 27.4397C117.088 27.4295 117.341 27.3789 117.582 27.2898C118.105 27.0731 118.543 26.6909 118.829 26.2014C119.114 25.7119 119.231 25.1422 119.162 24.5799C119.076 24.0065 118.795 23.48 118.368 23.0886C117.94 22.6973 117.391 22.4648 116.812 22.43C116.292 22.43 115.812 22.43 115.272 22.43L113.562 22.4397Z"
                                            fill="white"
                                        />
                                        <path
                                            d="M132.162 29.2001C132.197 28.89 132.169 28.5763 132.079 28.2773C131.99 27.9783 131.841 27.7001 131.642 27.4599C131.198 26.96 130.578 26.6518 129.912 26.6C129.532 26.5631 129.149 26.5971 128.782 26.7001C128.445 26.7867 128.132 26.95 127.869 27.1772C127.605 27.4044 127.397 27.6895 127.262 28.0102L125.592 27.3002C125.658 27.142 125.735 26.9884 125.822 26.8403C126.088 26.394 126.442 26.0056 126.861 25.6982C127.28 25.3907 127.756 25.1705 128.262 25.0502C129.323 24.7802 130.442 24.8499 131.462 25.2499C132.145 25.4976 132.741 25.9408 133.174 26.5239C133.608 27.107 133.861 27.8046 133.902 28.5302C133.902 28.7969 133.902 29.0669 133.902 29.3403C133.902 31.1203 133.902 32.9101 133.902 34.7001V35.02C133.321 35.0973 132.733 35.0973 132.152 35.02C132.152 34.81 132.152 34.5901 132.152 34.3701V33.6801L131.972 33.83C131.545 34.4259 130.953 34.8842 130.269 35.1489C129.585 35.4135 128.839 35.4732 128.122 35.3202C127.633 35.2524 127.164 35.0854 126.742 34.83C126.258 34.5633 125.857 34.1684 125.584 33.6884C125.31 33.2085 125.175 32.6624 125.192 32.1103C125.169 31.5715 125.291 31.0361 125.546 30.561C125.801 30.0858 126.18 29.6882 126.642 29.4101C127.108 29.0976 127.631 28.88 128.182 28.77C129.467 28.4817 130.811 28.6187 132.012 29.1601L132.162 29.2001ZM129.882 30.2001C129.389 30.1749 128.897 30.2462 128.432 30.4101C128.179 30.5005 127.947 30.6411 127.749 30.8232C127.551 31.0053 127.393 31.2253 127.282 31.4701C127.108 31.7951 127.071 32.1758 127.178 32.5283C127.285 32.8808 127.527 33.1761 127.852 33.35C128.033 33.4609 128.228 33.5485 128.432 33.6103C129.206 33.7996 130.023 33.6784 130.709 33.2729C131.395 32.8673 131.895 32.2093 132.102 31.4399C132.222 30.7799 132.242 30.81 131.652 30.52C131.096 30.2747 130.489 30.1652 129.882 30.2001Z"
                                            fill="white"
                                        />
                                        <path
                                            d="M106.282 30.4998H98.5617C98.5677 31.296 98.8546 32.0649 99.3718 32.6702C99.8106 33.1633 100.393 33.5064 101.037 33.6517C101.681 33.7969 102.354 33.7366 102.962 33.4798C103.476 33.2776 103.902 32.8983 104.162 32.41L104.372 32.0301L105.992 32.7098C105.922 32.8598 105.872 32.9802 105.812 33.0902C105.468 33.7287 104.971 34.2716 104.366 34.6697C103.76 35.0678 103.064 35.3084 102.342 35.3699C101.494 35.4799 100.632 35.3803 99.8317 35.0799C99.1846 34.8395 98.5997 34.457 98.1203 33.9603C97.6409 33.4635 97.2791 32.865 97.0617 32.2098C96.7928 31.5073 96.6659 30.759 96.6882 30.0071C96.7105 29.2553 96.8816 28.5151 97.1917 27.8299C97.4238 27.2074 97.7921 26.6449 98.2696 26.1829C98.7471 25.721 99.3219 25.3713 99.9517 25.16C100.805 24.8415 101.732 24.7786 102.62 24.9793C103.508 25.18 104.319 25.6355 104.952 26.2899C105.678 27.0626 106.128 28.0546 106.232 29.1102C106.309 29.5693 106.326 30.0363 106.282 30.4998ZM98.7117 28.9398H104.322C104.262 28.3156 103.977 27.7348 103.521 27.3045C103.065 26.8742 102.468 26.6237 101.842 26.5999C101.12 26.5177 100.394 26.7143 99.8124 27.1492C99.2307 27.5841 98.837 28.2243 98.7117 28.9398Z"
                                            fill="white"
                                        />
                                        <path
                                            d="M81.6118 30.1502C81.6143 31.3918 81.2025 32.5986 80.4418 33.5799C79.9768 34.1718 79.3782 34.6454 78.6952 34.9617C78.0121 35.278 77.2639 35.4284 76.5117 35.4002C75.777 35.4244 75.0469 35.2757 74.38 34.9666C73.7131 34.6574 73.128 34.1962 72.6717 33.6199C72.0365 32.8475 71.6435 31.9048 71.5417 30.9099C71.3787 29.8235 71.5422 28.7132 72.0117 27.72C72.3708 26.9067 72.9533 26.2117 73.6914 25.7161C74.4295 25.2205 75.293 24.9447 76.1818 24.9202C76.8564 24.8608 77.5361 24.9353 78.1818 25.1399C78.9831 25.4015 79.7024 25.8672 80.2688 26.4915C80.8352 27.1158 81.2291 27.8771 81.4117 28.7C81.5042 29.1794 81.5711 29.6636 81.6118 30.1502ZM73.3318 30.1502C73.3318 30.3802 73.3318 30.6199 73.3318 30.8499C73.3563 31.0264 73.3964 31.2005 73.4518 31.3699C73.6234 31.9805 73.9709 32.5269 74.451 32.9412C74.9312 33.3555 75.5226 33.6196 76.1517 33.7C76.7968 33.7689 77.4474 33.6344 78.0122 33.3152C78.577 32.996 79.028 32.5084 79.3018 31.9202C79.5718 31.371 79.7123 30.767 79.7123 30.1551C79.7123 29.5431 79.5718 28.9391 79.3018 28.3899C79.0846 27.9138 78.7501 27.5007 78.3296 27.1892C77.9091 26.8778 77.4163 26.6781 76.8976 26.6092C76.3789 26.5402 75.8512 26.6044 75.3639 26.7952C74.8766 26.986 74.4458 27.2972 74.1118 27.7C73.5673 28.3971 73.2905 29.2665 73.3318 30.1502Z"
                                            fill="white"
                                        />
                                        <path
                                            d="M65.8418 35.4005C64.5502 35.417 63.3035 34.9269 62.3689 34.0353C61.4343 33.1437 60.8861 31.9214 60.8418 30.6305C60.7494 29.6366 60.9219 28.6356 61.3418 27.7301C61.7004 26.9156 62.2824 26.2196 63.0204 25.7223C63.7584 25.225 64.6222 24.9471 65.5117 24.9205C66.1447 24.8681 66.782 24.9324 67.3917 25.1105C68.2014 25.3469 68.9343 25.7932 69.5156 26.4044C70.097 27.0156 70.5062 27.7699 70.7018 28.5905C71.0915 29.8873 70.9919 31.2821 70.4217 32.5104C70.0693 33.3411 69.4866 34.0533 68.7424 34.5636C67.9982 35.0739 67.1236 35.3608 66.2218 35.3903L65.8418 35.4005ZM69.0617 30.1305C69.0188 29.7441 68.9554 29.3598 68.8718 28.9801C68.7111 28.359 68.368 27.8003 67.8867 27.3761C67.4054 26.9519 66.8081 26.6817 66.1717 26.6002C65.5329 26.5316 64.8884 26.6618 64.3264 26.9733C63.7644 27.2847 63.3122 27.7624 63.0317 28.3405C62.7471 28.9014 62.5989 29.5215 62.5989 30.1505C62.5989 30.7795 62.7471 31.3992 63.0317 31.9601C63.2737 32.4575 63.644 32.8815 64.1044 33.1881C64.5647 33.4948 65.0986 33.6731 65.6509 33.7047C66.2031 33.7363 66.7537 33.62 67.2461 33.3678C67.7384 33.1156 68.1547 32.7367 68.4518 32.2702C68.8534 31.6289 69.0649 30.8872 69.0617 30.1305Z"
                                            fill="white"
                                        />
                                        <path
                                            d="M137.922 39.4102H136.062C136.122 39.2602 136.162 39.15 136.212 39.04C136.879 37.6 137.545 36.1602 138.212 34.7202C138.257 34.639 138.28 34.5477 138.28 34.4551C138.28 34.3624 138.257 34.2711 138.212 34.1899C136.965 31.3366 135.719 28.4837 134.472 25.6304C134.412 25.5104 134.372 25.3902 134.302 25.2402H136.302L139.242 32.3501C140.242 29.9301 141.152 27.58 142.102 25.23H144.062C143.982 25.49 138.252 38.8302 137.922 39.4102Z"
                                            fill="white"
                                        />
                                        <path
                                            d="M93.8218 20.6802H95.6118V35.02C95.0204 35.087 94.4233 35.087 93.8318 35.02C93.7618 34.8 93.7518 21.0202 93.8218 20.6802Z"
                                            fill="white"
                                        />
                                        <path
                                            d="M122.312 20.6802H124.112V35.0503H122.342C122.272 34.8103 122.242 21.3802 122.312 20.6802Z"
                                            fill="white"
                                        />
                                        <path
                                            d="M62.8219 13.5602C62.808 13.2637 62.8539 12.9674 62.957 12.6891C63.0601 12.4108 63.2182 12.156 63.4219 11.9401C63.6653 11.6636 63.9854 11.4661 64.3414 11.3717C64.6975 11.2773 65.0735 11.2907 65.4219 11.4103C65.7637 11.5114 66.0679 11.7118 66.2958 11.986C66.5236 12.2601 66.665 12.5957 66.7019 12.9503C66.7646 13.2582 66.7641 13.5757 66.7005 13.8834C66.6369 14.1911 66.5116 14.4826 66.3319 14.7404C66.0963 15.069 65.7666 15.3182 65.3863 15.4557C65.0061 15.5932 64.5931 15.6124 64.2019 15.5104C63.8252 15.3995 63.4913 15.1763 63.2447 14.8707C62.9982 14.5652 62.8507 14.192 62.8219 13.8004C62.8319 13.6804 62.8319 13.6202 62.8219 13.5602ZM65.9118 13.4801C65.9273 13.1619 65.851 12.8464 65.6919 12.5704C65.6035 12.401 65.4718 12.2578 65.3102 12.1559C65.1485 12.054 64.9628 11.997 64.7718 11.9904C64.5857 11.9955 64.4047 12.0524 64.2493 12.1549C64.0938 12.2574 63.97 12.4014 63.8918 12.5704C63.7735 12.7928 63.7019 13.0367 63.6813 13.2877C63.6606 13.5388 63.6914 13.7917 63.7718 14.0304C63.8462 14.2881 64.0003 14.5155 64.2119 14.6803C64.3951 14.8286 64.6272 14.9026 64.8624 14.8878C65.0976 14.873 65.3188 14.7703 65.4819 14.6002C65.766 14.2974 65.9203 13.8953 65.9118 13.4801Z"
                                            fill="white"
                                        />
                                        <path
                                            d="M92.3518 13.3804C92.3659 13.689 92.3133 13.9968 92.1977 14.2832C92.0821 14.5697 91.9061 14.8277 91.6817 15.0401C91.4276 15.3005 91.1023 15.4802 90.7465 15.5567C90.3908 15.6331 90.0204 15.6032 89.6817 15.4702C89.3439 15.3606 89.0454 15.1542 88.8233 14.877C88.6012 14.5998 88.4651 14.2638 88.4317 13.9102C88.3263 13.3209 88.4477 12.7134 88.7717 12.21C89.0083 11.8547 89.3524 11.5847 89.7536 11.439C90.1549 11.2932 90.5922 11.2798 91.0017 11.4004C91.3853 11.5367 91.7182 11.7866 91.9559 12.1172C92.1935 12.4478 92.3247 12.8429 92.3317 13.25C92.3434 13.2924 92.3501 13.3364 92.3518 13.3804ZM91.5017 13.5303C91.5223 13.297 91.4909 13.062 91.4096 12.8423C91.3283 12.6227 91.1993 12.4239 91.0317 12.2603C90.9398 12.1705 90.8305 12.1006 90.7104 12.0547C90.5903 12.0088 90.4621 11.9881 90.3337 11.9937C90.2053 11.9993 90.0794 12.0312 89.9638 12.0874C89.8482 12.1436 89.7454 12.2228 89.6617 12.3203C89.4576 12.5456 89.3283 12.8286 89.2917 13.1304C89.2414 13.3842 89.2504 13.6462 89.3181 13.896C89.3857 14.1458 89.5102 14.3766 89.6817 14.5703C89.7826 14.6725 89.9043 14.7518 90.0385 14.8028C90.1728 14.8537 90.3163 14.8752 90.4595 14.8657C90.6028 14.8563 90.7424 14.8158 90.8687 14.7476C90.9951 14.6793 91.1052 14.5848 91.1917 14.4702C91.3992 14.2014 91.5085 13.8698 91.5017 13.5303Z"
                                            fill="white"
                                        />
                                        <path
                                            d="M95.8718 14.2803L95.7917 11.4302H96.5317V15.4302H95.8118L93.9017 12.4302C93.9017 12.6602 93.9017 12.8901 93.9017 13.1201C93.9017 13.3501 93.9017 13.6301 93.9017 13.8901C93.9017 14.1501 93.9017 14.3804 93.9017 14.6304V15.3901H93.1918V11.3901H94.0518L95.8718 14.2803Z"
                                            fill="white"
                                        />
                                        <path
                                            d="M53.6517 15.46H52.9518L51.0518 12.5103L51.1317 15.4399H50.4017V11.4399H51.2517L53.0117 14.29L52.9318 11.4399H53.6517V15.4399V15.46Z"
                                            fill="white"
                                        />
                                        <path
                                            d="M54.8019 15.4798V11.4203H55.4419C55.8316 11.4003 56.2222 11.4003 56.6119 11.4203C57.0468 11.4629 57.4497 11.6674 57.7406 11.9935C58.0315 12.3196 58.189 12.7431 58.1819 13.18C58.2007 13.4876 58.1573 13.7959 58.0542 14.0863C57.9511 14.3767 57.7905 14.6431 57.5819 14.87C57.2833 15.2096 56.8629 15.418 56.4119 15.45C55.8919 15.5 55.3619 15.4798 54.8019 15.4798ZM55.6219 14.7899C55.7852 14.8567 55.9611 14.8871 56.1373 14.8787C56.3136 14.8704 56.4858 14.8235 56.6421 14.7415C56.7983 14.6596 56.9348 14.5448 57.0419 14.4046C57.1489 14.2644 57.2239 14.1023 57.2618 13.93C57.3164 13.7282 57.3367 13.5185 57.3219 13.3099C57.3253 13.104 57.2788 12.9003 57.1866 12.7162C57.0945 12.532 56.9592 12.373 56.7924 12.2523C56.6255 12.1316 56.4319 12.0527 56.2281 12.0228C56.0244 11.9928 55.8165 12.0123 55.6219 12.0799V14.7899Z"
                                            fill="white"
                                        />
                                        <path
                                            d="M69.6219 15.4798V11.4203C70.3528 11.3432 71.0911 11.3765 71.8119 11.5199C72.1024 11.6119 72.3623 11.7819 72.5632 12.0111C72.7642 12.2402 72.8986 12.5201 72.9519 12.8202C73.0223 13.1198 73.0303 13.4304 72.9752 13.7333C72.9202 14.0361 72.8032 14.3243 72.6318 14.5799C72.4837 14.8375 72.2734 15.0539 72.0201 15.2093C71.7669 15.3648 71.4787 15.4546 71.1819 15.4701C70.6719 15.5001 70.1619 15.4798 69.6219 15.4798ZM70.4319 14.7801C70.5938 14.8472 70.7683 14.8784 70.9435 14.8719C71.1186 14.8655 71.2903 14.8213 71.4469 14.7425C71.6035 14.6638 71.7413 14.5522 71.8508 14.4154C71.9604 14.2786 72.0392 14.12 72.0819 13.9501C72.0865 13.8835 72.0865 13.8164 72.0819 13.7499C72.15 13.5148 72.1533 13.266 72.0917 13.0292C72.03 12.7923 71.9055 12.5767 71.7314 12.4046C71.5574 12.2326 71.3402 12.1105 71.1027 12.0516C70.8651 11.9928 70.6161 11.9993 70.3818 12.0702L70.4319 14.7801Z"
                                            fill="white"
                                        />
                                        <path
                                            d="M59.0619 11.4202H59.7219H60.8918C60.9682 11.4107 61.0456 11.4107 61.1219 11.4202C61.3122 11.4416 61.4903 11.5243 61.6293 11.6561C61.7682 11.7878 61.8604 11.9613 61.8918 12.1502C61.9407 12.3536 61.9245 12.5668 61.8456 12.7606C61.7666 12.9543 61.629 13.1184 61.4519 13.2298L61.1119 13.4398C61.2981 13.5483 61.461 13.693 61.5914 13.8646C61.7218 14.0361 61.8172 14.2313 61.8719 14.4398L62.2819 15.4398H61.3719C61.3119 15.2798 61.2519 15.1 61.1819 14.93C61.1119 14.76 61.0319 14.5401 60.9519 14.3401C60.8979 14.1786 60.7898 14.0406 60.6459 13.9495C60.502 13.8584 60.331 13.8198 60.1619 13.8401H59.8719V15.4202H59.0619V11.4202ZM59.8619 13.24C60.1647 13.3087 60.4808 13.2878 60.7719 13.18C60.8886 13.1245 60.9851 13.0342 61.0479 12.9212C61.1106 12.8082 61.1365 12.6785 61.1219 12.5501C61.1214 12.4255 61.0769 12.3049 60.9965 12.2098C60.916 12.1147 60.8046 12.0512 60.6819 12.0301C60.413 11.9602 60.1308 11.9602 59.8619 12.0301V13.24Z"
                                            fill="white"
                                        />
                                        <path
                                            d="M49.7319 15.46H48.7319L48.4319 14.3301H46.9819L46.6719 15.4502H45.7618C46.2218 14.0902 46.7619 12.8002 47.2219 11.4502H48.3519L49.7319 15.46ZM48.2618 13.7002L47.7119 11.96L47.1619 13.7002H48.2618Z"
                                            fill="white"
                                        />
                                        <path
                                            d="M75.9419 15.4502H75.0619L76.5519 11.4502H77.6719C78.0819 12.8002 78.6018 14.1002 79.0118 15.4502H78.0118L77.7219 14.3701C77.235 14.293 76.7388 14.293 76.2518 14.3701L75.9419 15.4502ZM77.5219 13.7002L76.9919 12.0303C76.771 12.5748 76.5839 13.1325 76.4319 13.7002H77.5219Z"
                                            fill="white"
                                        />
                                        <path
                                            d="M83.3817 11.4401H83.5417H84.9218C85.2337 11.4356 85.5411 11.5155 85.8118 11.6706C85.9406 11.7399 86.0501 11.8399 86.1304 11.9621C86.2107 12.0843 86.2593 12.2246 86.2717 12.3703C86.3248 12.6476 86.2801 12.9348 86.1451 13.1828C86.0102 13.4308 85.7934 13.6241 85.5317 13.7302C85.2289 13.8359 84.9179 13.9164 84.6018 13.9704C84.472 13.9804 84.3416 13.9804 84.2118 13.9704C84.1818 14.48 84.1818 14.9906 84.2118 15.5002H83.3917L83.3817 11.4401ZM84.1818 13.3405C84.5001 13.3939 84.8271 13.352 85.1218 13.2204C85.2473 13.1697 85.3515 13.0775 85.417 12.9592C85.4825 12.8408 85.5054 12.7037 85.4818 12.5705C85.477 12.4403 85.4277 12.3157 85.3422 12.2175C85.2566 12.1192 85.14 12.0532 85.0117 12.0305C84.7401 11.9555 84.4534 11.9555 84.1818 12.0305V13.3405Z"
                                            fill="white"
                                        />
                                        <path
                                            d="M80.4918 13.9304V15.4402H79.6617V11.4402C79.7383 11.4353 79.8151 11.4353 79.8917 11.4402H81.1918C81.5432 11.4284 81.8906 11.519 82.1918 11.7004C82.3117 11.7728 82.4119 11.8735 82.4834 11.9939C82.5549 12.1143 82.5956 12.2505 82.6018 12.3904C82.6489 12.6801 82.5924 12.9769 82.4425 13.2292C82.2926 13.4816 82.0587 13.6731 81.7817 13.7703C81.3686 13.9172 80.9283 13.972 80.4918 13.9304ZM80.4918 13.3406C80.8326 13.4 81.1835 13.347 81.4918 13.1902C81.5849 13.1329 81.6617 13.0532 81.715 12.9578C81.7683 12.8624 81.7963 12.7545 81.7963 12.6453C81.7963 12.536 81.7683 12.4286 81.715 12.3332C81.6617 12.2378 81.5849 12.1576 81.4918 12.1003C81.1768 11.9628 80.8247 11.9346 80.4918 12.0203V13.3406Z"
                                            fill="white"
                                        />
                                        <path
                                            d="M67.6818 11.4204H68.4818V15.4204H67.6818V11.4204Z"
                                            fill="white"
                                        />
                                    </svg>