 <svg width="51"
                                        height="52"
                                        viewBox="0 0 51 52"
                                        fill="none"
                                        xmlns="http://www.w3.org/2000/svg"
                                    >
                                        <path
                                            d="M48.2973 1.22176C47.107 0.340061 45.7433 0.00981653 44.3097 0.00803171C31.7821 -0.00267724 19.2552 -0.00267724 6.72881 0.00803171C2.90752 0.00803171 0.680905 2.59425 0.189022 5.3286C0.127755 5.67129 0.063017 6.01402 0 6.35671V45.5924C0.0805217 46.0172 0.155772 46.442 0.241545 46.8668C0.527497 48.1971 1.2228 49.3994 2.22604 50.2984C3.22928 51.1974 4.488 51.746 5.81857 51.8643C5.97722 51.8937 6.13259 51.9392 6.28243 52H25.5271C25.5096 51.7823 25.4798 51.5645 25.4798 51.3467C25.4798 45.8423 25.4798 40.3373 25.4798 34.8317C25.4798 34.1606 25.4798 34.1606 24.8217 34.1606H19.1431V25.9505C19.3182 25.9415 19.5073 25.9254 19.6981 25.9254C21.3925 25.9254 23.0847 25.9254 24.7744 25.9254C25.4746 25.9254 25.4746 25.9254 25.4746 25.2383C25.4746 23.2232 25.4746 21.2082 25.4746 19.1913C25.4834 14.5704 29.1121 10.3618 33.6091 9.76391C34.0688 9.70267 34.5318 9.66984 34.9954 9.66569C36.956 9.65498 38.9165 9.66569 40.877 9.66569H41.4932V17.8973C41.0731 17.8973 40.681 17.8973 40.2871 17.8973C39.109 17.9205 37.9275 17.8974 36.7547 17.9884C35.5293 18.0794 35.1932 18.4149 35.1617 19.6625C35.111 21.6258 35.1495 23.5891 35.1425 25.5524C35.1425 25.9398 35.3875 25.9254 35.6484 25.9254C37.924 25.9254 40.1996 25.9254 42.4752 25.9254H43.1334C43.0599 26.1664 43.0231 26.3271 42.9583 26.4788C42.0236 28.8669 41.0748 31.2532 40.1576 33.6484C40.0053 34.0446 39.7987 34.1749 39.3874 34.166C38.1761 34.1392 36.9612 34.1767 35.7499 34.1464C35.2685 34.1339 35.1285 34.2856 35.1285 34.7764C35.1436 40.2987 35.1436 45.8209 35.1285 51.3432C35.1285 51.5609 35.097 51.7787 35.0812 51.9964H44.7526C45.1534 51.9161 45.5561 51.8393 45.9552 51.7572C47.2872 51.4806 48.4934 50.7662 49.3891 49.7237C50.2849 48.6811 50.8206 47.3678 50.9142 45.9851C50.9667 45.1944 51 44.3984 51 43.6042C51 31.3924 51 19.1812 51 6.97067C51.0017 4.62185 50.2175 2.64605 48.2973 1.22176Z"
                                            fill="white"
                                        />
                                    </svg>