        <svg
                                        width="52"
                                        height="52"
                                        viewBox="0 0 52 52"
                                        fill="none"
                                        xmlns="http://www.w3.org/2000/svg"
                                    >
                                        <path
                                            d="M30.8342 20.2897C30.4052 20.2756 30.0873 20.6041 30.082 21.1126C30.0697 22.1509 30.0591 24.9637 30.0591 24.9637C30.0591 24.9637 27.7388 22.0114 26.8171 20.8195C26.5716 20.5034 26.3226 20.1432 25.8317 20.3215C25.3409 20.4999 25.2667 20.8724 25.2685 21.3315C25.2808 23.2245 25.2685 25.1174 25.2685 27.0121C25.2685 27.6124 25.5669 28.008 26.0172 28.0203C26.4674 28.0327 26.7977 27.6195 26.7994 26.9909C26.7994 25.9861 26.7994 23.3499 26.7994 23.3499C26.7994 23.3499 29.185 26.4117 30.1685 27.6178C30.2644 27.7336 30.3875 27.8239 30.5268 27.8806C30.666 27.9373 30.8172 27.9586 30.9667 27.9427C31.3552 27.9179 31.5423 27.5895 31.5406 27.1851C31.5406 25.158 31.5406 23.1238 31.5406 21.102C31.5423 20.6164 31.251 20.3039 30.8342 20.2897Z"
                                            fill="white"
                                        />
                                        <path
                                            d="M20.5979 26.4961C19.9781 26.4961 19.3619 26.4696 18.7403 26.4961C18.2971 26.519 18.1576 26.3637 18.1647 25.924C18.1841 24.3507 18.1735 22.7774 18.1647 21.2041C18.1647 20.6143 17.8857 20.2646 17.4337 20.2593C16.9816 20.254 16.6938 20.6125 16.6885 21.1952C16.6797 22.1664 16.6885 23.1375 16.6885 24.1087C16.6885 25.1117 16.6885 26.1164 16.6885 27.1212C16.6973 27.7286 16.9781 28.0041 17.5855 28.0199C18.5885 28.0323 19.5932 28.0341 20.5962 28.0199C21.1259 28.0199 21.4702 27.6792 21.4685 27.2413C21.4667 26.8034 21.14 26.5014 20.5979 26.4961Z"
                                            fill="white"
                                        />
                                        <path
                                            d="M23.2061 20.2634C22.6763 20.244 22.385 20.4646 22.3797 20.9785C22.362 23.0857 22.362 25.1928 22.3797 27.3C22.3797 27.8138 22.6922 28.0487 23.2008 28.0275C23.7093 28.0063 23.8965 27.798 23.9071 27.2594C23.9071 26.2388 23.9071 25.2182 23.9071 24.1975C23.9071 23.1451 23.9036 22.0915 23.8965 21.0368C23.893 20.4894 23.7005 20.2793 23.2061 20.2634Z"
                                            fill="white"
                                        />
                                        <path
                                            d="M36.965 26.5021C36.4971 26.488 36.0274 26.5021 35.5524 26.5021C34.2722 26.4703 34.4735 26.7705 34.4435 25.3402C34.4435 24.9959 34.5847 24.9111 34.8955 24.9182C35.5489 24.9323 36.2022 24.927 36.8556 24.9182C37.3765 24.9182 37.682 24.6356 37.6943 24.1871C37.7067 23.7386 37.3977 23.4084 36.8609 23.3908C36.4265 23.3749 35.9885 23.3908 35.5542 23.3908C34.2722 23.3555 34.4735 23.6627 34.4435 22.2289C34.4435 21.8863 34.5812 21.798 34.8938 21.8051C35.5471 21.8192 36.2005 21.8139 36.8538 21.8051C37.4383 21.8051 37.7702 21.5137 37.7649 21.0352C37.7596 20.5566 37.4206 20.2777 36.8379 20.2742C35.849 20.2742 34.8602 20.2742 33.8714 20.2742C33.2215 20.2742 32.9178 20.5778 32.9143 21.2223C32.9143 22.1953 32.9143 23.1647 32.9143 24.1394C32.9143 25.1442 32.9143 26.1489 32.9143 27.1554C32.9143 27.7205 33.2233 28.0383 33.7813 28.0383C34.8408 28.0489 35.9003 28.0507 36.9474 28.0383C37.4559 28.0383 37.7649 27.7276 37.7667 27.2826C37.7685 26.8376 37.4683 26.518 36.965 26.5021Z"
                                            fill="white"
                                        />
                                        <path
                                            d="M48.72 1.20865C47.5192 0.334583 46.1437 0.00971186 44.6975 0.00794607C32.0615 -0.00264869 19.4249 -0.00264869 6.7877 0.00794607C2.93474 0.00794607 0.68863 2.5665 0.190676 5.2717C0.128874 5.61073 0.0635686 5.94981 0 6.28884V45.1063C0.0812265 45.5265 0.158902 45.9468 0.245426 46.3671C0.533531 47.683 1.23458 48.8724 2.2463 49.7618C3.25802 50.6513 4.5275 51.1942 5.86949 51.3113C6.02953 51.3404 6.18627 51.3853 6.33741 51.4455H45.1619C45.5663 51.366 45.9724 51.2901 46.3768 51.2071C47.7154 50.9302 48.9269 50.2235 49.8268 49.1945C50.7266 48.1655 51.2656 46.8707 51.3616 45.5071C51.4128 44.7231 51.4464 43.9373 51.4464 43.1515C51.4464 31.0699 51.4464 18.989 51.4464 6.90859C51.4428 4.56362 50.6518 2.62129 48.72 1.20865ZM41.4361 26.8126C41.1145 27.8588 40.6472 28.8544 40.0482 29.7704C37.5937 33.558 34.221 36.3497 30.4246 38.6647C28.8689 39.6111 27.3221 40.607 25.634 41.3028C25.129 41.5094 24.797 41.6647 24.3697 41.3451C23.9424 41.0255 23.9741 40.5681 24.0271 40.109C24.1225 39.2632 24.2355 38.4175 24.2973 37.5681C24.345 36.9183 24.0536 36.6393 23.3968 36.5616C20.2819 36.1978 17.4036 35.1878 14.8574 33.3338C12.3429 31.5009 10.5012 29.1612 9.83899 26.0622C9.12208 22.7072 9.94315 19.6806 12.0639 17.0213C14.536 13.9241 17.8416 12.1795 21.661 11.4202C26.9954 10.3608 32.0227 11.1553 36.5448 14.3055C39.7038 16.5057 41.8422 20.0815 41.8652 23.862C41.8692 24.8618 41.7227 25.8565 41.4308 26.8126H41.4361Z"
                                            fill="white"
                                        />
                                    </svg>