    <svg
                                        width="150"
                                        height="52"
                                        viewBox="0 0 150 52"
                                        fill="none"
                                        xmlns="http://www.w3.org/2000/svg"
                                    >
                                        <path
                                            d="M149.212 6.07031V45.75C149.202 45.8364 149.202 45.9239 149.212 46.0103C149.212 46.1303 149.212 46.2501 149.212 46.3701C149.07 47.4324 148.658 48.4405 148.016 49.2983C147.373 50.1562 146.521 50.835 145.542 51.27C144.659 51.665 143.699 51.8564 142.732 51.8301H6.56186C6.49195 51.8351 6.42181 51.8351 6.3519 51.8301C5.96988 51.8187 5.58903 51.7821 5.21189 51.7202C3.72423 51.4512 2.38168 50.6595 1.42636 49.4878C0.471044 48.3161 -0.0342471 46.8414 0.00180402 45.3301C0.00180402 35.9967 0.00180402 26.6634 0.00180402 17.3301V6.47998C-0.000101217 6.04797 0.0334413 5.61649 0.101902 5.18994C0.353093 3.79385 1.06667 2.52294 2.12778 1.58154C3.18889 0.640149 4.5358 0.0830728 5.95188 0H6.18186H143.002C143.065 0.00558181 143.129 0.00558181 143.192 0C143.422 0 143.662 0.0003125 143.892 0.0703125C144.844 0.217961 145.749 0.584544 146.535 1.1416C147.321 1.69866 147.967 2.43092 148.422 3.28027C148.881 4.06538 149.138 4.95171 149.172 5.86035C149.176 5.93176 149.19 6.00227 149.212 6.07031ZM74.6119 2.77002H6.32187C5.63652 2.76325 4.9646 2.96028 4.39133 3.33594C3.81806 3.71159 3.36929 4.24929 3.1019 4.88037C2.88748 5.36817 2.78493 5.89759 2.80185 6.43018V45.3701C2.79668 45.4634 2.79668 45.5566 2.80185 45.6499C2.82501 46.286 3.02419 46.9035 3.37729 47.4331C3.73039 47.9628 4.22356 48.3839 4.80185 48.6499C5.33711 48.8964 5.92299 49.0132 6.51181 48.9902H142.892C143.172 48.9902 143.452 48.9404 143.722 48.8804C144.495 48.6881 145.18 48.2391 145.665 47.6069C146.15 46.9748 146.406 46.1965 146.392 45.3999C146.392 32.3732 146.392 19.347 146.392 6.32031C146.407 6.15064 146.407 5.97973 146.392 5.81006C146.319 5.15892 146.063 4.54193 145.652 4.03174C145.241 3.52154 144.693 3.13947 144.072 2.93018C143.614 2.77851 143.133 2.71056 142.652 2.72998L74.6119 2.77002Z"
                                            fill="white"
                                        />
                                        <path
                                            d="M34.6019 19.75L34.4319 19.8701C33.1833 20.6888 32.2518 21.9096 31.7919 23.3301C31.3166 24.8032 31.3994 26.3999 32.0244 27.8159C32.6495 29.232 33.7732 30.3687 35.1819 31.0103L35.372 31.1104C35.3499 31.1984 35.3231 31.2849 35.2919 31.3701C34.949 32.4251 34.4753 33.4329 33.8818 34.3701C33.4118 35.1101 32.8819 35.83 32.3919 36.54C32.1009 36.9583 31.7657 37.3438 31.3919 37.6899C30.9353 38.1298 30.3744 38.4468 29.7619 38.6104C28.9939 38.7891 28.1903 38.7365 27.4519 38.46C27.1019 38.33 26.7719 38.1903 26.4519 38.0503C25.7506 37.7488 24.9953 37.5933 24.2319 37.5933C23.4686 37.5933 22.7131 37.7488 22.0119 38.0503C21.6619 38.2003 21.3119 38.35 20.9519 38.48C20.5449 38.6397 20.1173 38.741 19.6819 38.7803C19.0549 38.8281 18.4287 38.6775 17.8919 38.3501C17.373 38.0354 16.9072 37.6406 16.5119 37.1802C15.1764 35.6812 14.0986 33.9713 13.3219 32.1201C12.7337 30.7223 12.3173 29.2584 12.0819 27.7603C11.8233 26.2285 11.8504 24.662 12.1619 23.1401C12.4637 21.5491 13.2372 20.0855 14.3818 18.9399C15.3983 17.9391 16.6963 17.273 18.1019 17.0303C19.0318 16.8575 19.9907 16.9331 20.8818 17.25L22.5719 17.8901L23.3319 18.1401C23.6964 18.2552 24.0874 18.2552 24.4519 18.1401L25.742 17.6704L27.0419 17.2002C27.8942 16.9147 28.798 16.8158 29.6919 16.9102C30.5891 16.9948 31.4633 17.2422 32.2719 17.6401C33.1667 18.0918 33.9439 18.7459 34.5419 19.5503L34.6519 19.71C34.6329 19.7202 34.6161 19.7338 34.6019 19.75Z"
                                            fill="white"
                                        />
                                        <path
                                            d="M61.4919 30.96V36.5801H59.0619C59.0019 31.5001 59.1219 26.4204 58.9819 21.3404H61.0719L61.2119 23.0703L61.3519 22.9102C61.6433 22.4504 62.0296 22.0582 62.4849 21.7598C62.9402 21.4614 63.454 21.2638 63.9919 21.1802C64.7969 20.9986 65.6377 21.0591 66.4082 21.3545C67.1788 21.6499 67.8446 22.1671 68.3219 22.8404C68.7337 23.397 69.0327 24.0288 69.2019 24.7002C69.4147 25.5868 69.4789 26.5026 69.3918 27.4102C69.3439 28.1633 69.161 28.9019 68.8519 29.5904C68.4008 30.6537 67.5753 31.5147 66.5319 32.0103C65.7817 32.3663 64.9469 32.5048 64.1219 32.4102C63.7841 32.3735 63.4497 32.31 63.1219 32.2202C62.495 32.0352 61.9511 31.6395 61.5819 31.1001L61.4719 30.9702L61.4919 30.96ZM67.0118 26.73C67.0205 26.2379 66.9634 25.747 66.8419 25.27C66.7446 24.9171 66.5963 24.5802 66.4019 24.27C66.2026 23.937 65.9304 23.6533 65.6058 23.4404C65.2813 23.2276 64.9127 23.0911 64.5278 23.041C64.1429 22.991 63.7517 23.0291 63.3835 23.1519C63.0153 23.2747 62.6797 23.479 62.4019 23.75C62.1083 24.0385 61.875 24.3824 61.7153 24.7617C61.5557 25.1411 61.473 25.5484 61.4719 25.96C61.4719 26.49 61.4719 27.0303 61.4719 27.5703C61.457 27.7834 61.457 27.9969 61.4719 28.21C61.525 28.8011 61.7793 29.3563 62.1925 29.7822C62.6057 30.2082 63.1528 30.4794 63.7419 30.5503C64.2129 30.6274 64.696 30.5676 65.1339 30.3779C65.5718 30.1882 65.946 29.8763 66.2119 29.48C66.3879 29.2164 66.5353 28.9349 66.6519 28.6402C66.9128 28.0366 67.0521 27.3874 67.0619 26.73H67.0118Z"
                                            fill="white"
                                        />
                                        <path
                                            d="M74.0618 30.9801V36.5505C73.2626 36.601 72.4609 36.601 71.6617 36.5505C71.6617 36.4705 71.6617 36.3802 71.6617 36.2902V27.4601C71.6617 25.9801 71.6617 24.4602 71.6617 23.0202C71.6617 22.5302 71.6617 22.0202 71.6617 21.5402V21.3205H73.7617L73.9017 23.0002L74.0518 22.8005C74.5972 21.969 75.449 21.3867 76.4218 21.1803C77.3069 20.9642 78.2364 21.0163 79.0918 21.3302C79.9673 21.6793 80.7023 22.3088 81.1818 23.1203C81.6181 23.8069 81.8949 24.5826 81.9918 25.3903C82.1537 26.4669 82.0993 27.5649 81.8318 28.6203C81.5769 29.6732 81.0001 30.6204 80.1818 31.3302C79.715 31.7196 79.1734 32.0093 78.5903 32.1813C78.0073 32.3533 77.3951 32.4039 76.7917 32.3302C76.4061 32.3077 76.0255 32.2303 75.6617 32.1003C75.1048 31.8954 74.621 31.5302 74.2717 31.0505L74.1517 30.8805L74.0618 30.9801ZM74.0618 26.8805C74.0618 27.1505 74.0618 27.4304 74.0618 27.7004C74.0647 27.9287 74.0881 28.1564 74.1317 28.3805C74.2189 28.9352 74.4866 29.4453 74.8934 29.8322C75.3003 30.2191 75.8234 30.4609 76.3817 30.5202C76.8595 30.5935 77.3483 30.528 77.7898 30.3312C78.2313 30.1344 78.607 29.8147 78.8718 29.4103C79.079 29.1032 79.2375 28.7659 79.3418 28.4103C79.5779 27.6267 79.646 26.8022 79.5417 25.9904C79.4861 25.3423 79.2733 24.7178 78.9218 24.1706C78.6844 23.7728 78.3375 23.4515 77.9225 23.2458C77.5075 23.04 77.0421 22.9585 76.5818 23.0104C76.0943 23.0396 75.6252 23.2077 75.2301 23.4948C74.835 23.7818 74.5303 24.1759 74.3518 24.6305C74.1566 25.0571 74.0576 25.5213 74.0618 25.9904V26.8805Z"
                                            fill="white"
                                        />
                                        <path
                                            d="M46.7618 32.1704H44.2719C45.8919 27.1371 47.5086 22.117 49.1219 17.1104H52.1219L56.9919 32.1704H54.4319L53.0319 27.77H48.0619L46.7618 32.1704ZM52.5919 25.8901C51.8819 23.6601 51.1019 21.4902 50.5919 19.2402C50.5976 19.2139 50.5976 19.1865 50.5919 19.1602L50.5018 19.5303C50.2618 20.4203 50.0519 21.33 49.7919 22.21C49.4519 23.37 49.0719 24.5102 48.7019 25.6602C48.6726 25.7417 48.6492 25.8253 48.6318 25.9102L52.5919 25.8901Z"
                                            fill="white"
                                        />
                                        <path
                                            d="M86.6317 31.4703L87.1818 29.4703L87.3618 29.5503C88.4154 30.1261 89.6014 30.4156 90.8018 30.3902C91.2775 30.3932 91.7493 30.3052 92.1918 30.1304C92.5043 30.0203 92.7857 29.8363 93.012 29.5943C93.2383 29.3523 93.4029 29.0594 93.4918 28.7403C93.6172 28.3283 93.6166 27.8882 93.4901 27.4766C93.3636 27.065 93.1169 26.7006 92.7817 26.4302C92.3505 26.0818 91.8683 25.8018 91.3518 25.6001C90.9218 25.4301 90.4918 25.2701 90.0718 25.0801C89.4592 24.8318 88.8865 24.4949 88.3718 24.0801C87.7512 23.6041 87.2934 22.9474 87.0618 22.2002C86.831 21.4436 86.8377 20.6346 87.0808 19.8819C87.324 19.1292 87.792 18.4689 88.4218 17.9903C89.1025 17.4607 89.9085 17.1162 90.7617 16.9903C92.0142 16.7942 93.2945 16.8759 94.5117 17.23C94.8245 17.3195 95.1264 17.4438 95.4117 17.6001L94.8218 19.5503L94.1918 19.2701C93.2685 18.9173 92.2733 18.7939 91.2917 18.9102C90.8748 18.9591 90.4747 19.1027 90.1218 19.3301C89.896 19.4836 89.7065 19.6845 89.5667 19.919C89.4268 20.1535 89.34 20.4159 89.3124 20.6875C89.2847 20.9592 89.3169 21.2334 89.4066 21.4913C89.4963 21.7491 89.6415 21.9844 89.8318 22.1802C90.0313 22.3781 90.2527 22.5526 90.4918 22.7002C90.9762 22.9966 91.4886 23.2443 92.0217 23.44C92.6031 23.6632 93.1651 23.9342 93.7018 24.25C94.1041 24.4892 94.4795 24.7712 94.8218 25.0904C95.4919 25.7255 95.8988 26.5892 95.9618 27.5103C96.0417 28.2556 95.9315 29.009 95.6417 29.7002C95.2244 30.6525 94.464 31.4128 93.5117 31.8301C92.8808 32.1213 92.204 32.3009 91.5117 32.3604C90.5103 32.4608 89.4995 32.4135 88.5117 32.2203C87.9192 32.1039 87.3489 31.8946 86.8218 31.6001C86.7818 31.5701 86.7217 31.5203 86.6317 31.4703Z"
                                            fill="white"
                                        />
                                        <path
                                            d="M116.002 26.6802C116.014 27.5953 115.83 28.5025 115.462 29.3404C115.104 30.1833 114.519 30.9102 113.772 31.44C113.025 31.9697 112.146 32.2815 111.232 32.3404C110.453 32.4296 109.664 32.3614 108.912 32.1402C108.303 31.9597 107.738 31.6586 107.248 31.2549C106.758 30.8512 106.355 30.3529 106.062 29.7901C105.654 29.0416 105.418 28.2117 105.372 27.3604C105.298 26.4785 105.386 25.5905 105.632 24.7403C106.002 23.4792 106.839 22.4065 107.972 21.7403C108.629 21.3614 109.365 21.1391 110.122 21.0904C110.968 20.996 111.824 21.0844 112.632 21.3501C113.366 21.6017 114.028 22.0266 114.563 22.5889C115.097 23.1512 115.488 23.8344 115.702 24.5801C115.916 25.2591 116.017 25.9686 116.002 26.6802ZM113.502 26.5904C113.502 26.4904 113.502 26.2801 113.502 26.0801C113.447 25.325 113.203 24.5957 112.792 23.96C112.561 23.5766 112.226 23.2666 111.826 23.065C111.426 22.8633 110.978 22.7785 110.532 22.8203C110.164 22.8288 109.802 22.9235 109.478 23.0972C109.153 23.2709 108.873 23.5188 108.662 23.8203C108.422 24.145 108.236 24.5062 108.112 24.8902C107.819 25.8075 107.754 26.7819 107.922 27.73C108.03 28.4401 108.323 29.1096 108.772 29.6704C109.02 29.9757 109.338 30.2166 109.698 30.3731C110.059 30.5296 110.452 30.5968 110.845 30.5694C111.237 30.5419 111.617 30.4206 111.952 30.2154C112.288 30.0101 112.569 29.727 112.772 29.3902C113.274 28.5771 113.527 27.6353 113.502 26.6802V26.5904Z"
                                            fill="white"
                                        />
                                        <path
                                            d="M134.572 27.3202H127.362C127.358 27.3834 127.358 27.4468 127.362 27.5101C127.357 28.2517 127.628 28.9688 128.121 29.5228C128.614 30.0768 129.295 30.4285 130.032 30.5101C131.191 30.6565 132.368 30.5334 133.472 30.1502L133.712 30.0702L134.092 31.7201C133.742 31.8836 133.377 32.0108 133.002 32.0999C131.891 32.3773 130.741 32.4618 129.602 32.3499C129.021 32.2981 128.453 32.1495 127.922 31.91C127.33 31.6601 126.799 31.286 126.364 30.8133C125.93 30.3406 125.601 29.7806 125.402 29.1703C124.813 27.4762 124.902 25.6196 125.652 23.9901C125.961 23.2907 126.426 22.6714 127.012 22.18C127.747 21.5565 128.661 21.182 129.622 21.1102C130.245 21.0531 130.873 21.0969 131.482 21.2401C132.338 21.4571 133.094 21.9622 133.622 22.6703C134.15 23.3783 134.493 24.2062 134.622 25.0799C134.712 25.7268 134.712 26.3832 134.622 27.0301C134.627 27.08 134.627 27.1301 134.622 27.18C134.61 27.2284 134.594 27.2755 134.572 27.3202ZM127.342 25.5799C127.552 25.6299 132.192 25.6299 132.342 25.5799C132.362 24.9154 132.174 24.2611 131.802 23.7098C131.603 23.4173 131.331 23.183 131.012 23.0301C130.538 22.8049 130.004 22.7395 129.49 22.8441C128.976 22.9487 128.51 23.2177 128.162 23.6102C127.748 24.0846 127.468 24.6612 127.352 25.2801C127.372 25.3301 127.352 25.4599 127.342 25.5799Z"
                                            fill="white"
                                        />
                                        <path
                                            d="M103.822 30.3701L103.882 32.1304C103.649 32.2297 103.403 32.2937 103.152 32.3203C102.549 32.4154 101.935 32.4154 101.332 32.3203C100.854 32.2594 100.403 32.0631 100.033 31.7549C99.663 31.4466 99.3885 31.039 99.242 30.5801C99.0468 29.9319 98.9556 29.2568 98.9719 28.5801C98.9719 26.8701 98.9719 25.1502 98.9719 23.4302V23.1401H97.4419C97.3949 22.5377 97.3949 21.9325 97.4419 21.3301H99.0018V19.3301L101.362 18.6104V21.3101C101.602 21.3101 101.822 21.3101 102.042 21.3101H104.042C104.042 21.9101 104.042 22.5001 104.042 23.1201H101.372V28.3301C101.366 28.6674 101.406 29.0039 101.492 29.3301C101.529 29.4695 101.582 29.6037 101.652 29.73C101.741 29.9204 101.882 30.082 102.059 30.1953C102.236 30.3086 102.442 30.3691 102.652 30.3701C102.992 30.4201 103.392 30.3801 103.822 30.3701Z"
                                            fill="white"
                                        />
                                        <path
                                            d="M120.532 32.1705H118.132C118.132 28.5605 118.132 24.9604 118.062 21.3604C118.754 21.3138 119.449 21.3138 120.142 21.3604L120.232 23.4205C120.352 23.4205 120.352 23.3003 120.382 23.2403C120.548 22.8177 120.789 22.4284 121.092 22.0904C121.416 21.7199 121.826 21.4347 122.287 21.2603C122.747 21.0859 123.244 21.0277 123.732 21.0904C123.772 21.087 123.812 21.087 123.852 21.0904V23.3604H123.312C123.01 23.3338 122.706 23.3573 122.412 23.4302C121.851 23.5742 121.37 23.9336 121.072 24.4302C120.754 24.9316 120.571 25.507 120.542 26.1002C120.542 26.3002 120.542 26.5003 120.542 26.7003V32.1802L120.532 32.1705Z"
                                            fill="white"
                                        />
                                        <path
                                            d="M29.352 9.90063C29.3565 9.98056 29.3565 10.0604 29.352 10.1404C29.4001 11.2349 29.1549 12.3223 28.6419 13.2903C27.9911 14.6116 26.877 15.6475 25.5119 16.2004C24.9738 16.4381 24.39 16.5541 23.8019 16.5403H23.5619C23.5619 16.4403 23.5619 16.3605 23.5619 16.2805C23.5214 15.3199 23.7316 14.3652 24.1719 13.5105C24.6007 12.6218 25.226 11.8422 26.0004 11.2307C26.7748 10.6192 27.678 10.1914 28.6419 9.98022C28.8722 9.91319 29.1125 9.88654 29.352 9.90063Z"
                                            fill="white"
                                        />
                                    </svg>