<svg width="503" height="125" viewBox="0 0 503 125" fill="none" xmlns="http://www.w3.org/2000/svg">
<path d="M0 55.7499V28.1499H5.34V56.0499C5.34 57.4699 5.93 57.9499 6.44 57.9499C6.68648 57.9568 6.93258 57.9265 7.17 57.8599L7.83 62.5499C6.95893 62.9485 6.00746 63.1402 5.05 63.1099C1.32 63.1499 0 60.2299 0 55.7499Z" fill="#F4AA00"/>
<path d="M35.12 71.4998C35.12 63.6698 39.77 58.7998 44.68 58.7998C50.31 58.7998 53.24 63.6698 53.24 70.3398C53.2571 71.3097 53.1699 72.2786 52.98 73.2298H40.36C40.8 77.2298 42.99 79.2298 46.03 79.2298C47.7099 79.1934 49.3306 78.6028 50.64 77.5498L52.47 81.4198C50.4584 83.116 47.9303 84.0786 45.3 84.1498C39.59 84.1498 35.12 79.4298 35.12 71.4998ZM48.63 69.0498C48.63 65.7798 47.38 63.7098 44.75 63.7098C42.59 63.7098 40.69 65.5198 40.28 69.0498H48.63Z" fill="#F4AA00"/>
<path d="M82.1 50.7899V40.1499H79.21V35.4499L82.35 35.1499L83 28.6499H87.5V35.1499H92.5V40.1499H87.5V50.8299C87.5 53.5899 88.5 54.8799 90.28 54.8799C90.9748 54.8421 91.6549 54.6653 92.28 54.3599L93.16 58.9699C91.7916 59.546 90.3246 59.8516 88.84 59.8699C84 59.8299 82.1 56.2199 82.1 50.7899Z" fill="#F4AA00"/>
<path d="M100.85 31.6299L100.67 25.6299H106.16L105.98 31.6299L104.92 40.8899H101.92L100.85 31.6299Z" fill="#F4AA00"/>
<path d="M117.18 87.5198L119.63 83.5198C121.46 85.1998 123.22 86.1498 125.12 86.1498C127.02 86.1498 128.12 85.1498 128.12 83.6098C128.12 81.7998 125.99 80.9798 123.83 79.9898C121.24 78.8298 118.24 76.9898 118.24 72.9898C118.24 68.6398 121.24 65.5798 125.85 65.5798C128.477 65.6676 130.975 66.7382 132.85 68.5798L130.44 72.4198C129.244 71.2377 127.675 70.5062 126 70.3498C124.17 70.3498 123.3 71.2998 123.3 72.6698C123.3 74.4398 125.3 75.0898 127.47 76.0298C130.18 77.2398 133.18 78.8298 133.18 83.3098C133.18 87.5298 130.36 90.9398 125.02 90.9398C122.072 90.8147 119.277 89.5953 117.18 87.5198Z" fill="#F4AA00"/>
<path d="M239.75 118.15C239.776 117.137 240.059 116.147 240.571 115.273C241.084 114.398 241.809 113.668 242.68 113.15V112.94C242.066 112.466 241.575 111.849 241.251 111.144C240.928 110.438 240.779 109.665 240.82 108.89C240.861 108.021 241.084 107.17 241.473 106.391C241.862 105.613 242.409 104.924 243.08 104.37V104.2C242.22 103.395 241.535 102.421 241.071 101.338C240.606 100.255 240.371 99.0881 240.38 97.9099C240.38 92.2199 244.29 89.1699 248.65 89.1699C249.702 89.1716 250.745 89.3752 251.72 89.7699H259.12V94.4199H255.6C256.273 95.5206 256.62 96.7898 256.6 98.0799C256.6 103.51 253.08 106.26 248.69 106.26C247.786 106.235 246.895 106.046 246.06 105.7C245.764 105.954 245.529 106.273 245.375 106.632C245.221 106.991 245.151 107.38 245.17 107.77C245.17 109.06 245.98 109.77 248.4 109.77H251.87C256.81 109.77 259.49 111.58 259.49 115.77C259.49 120.64 255.2 124.34 248.36 124.34C243.49 124.39 239.75 122.45 239.75 118.15ZM254.32 116.86C254.32 115.14 253.11 114.71 250.92 114.71H248.43C247.465 114.735 246.501 114.617 245.57 114.36C245.162 114.706 244.831 115.135 244.598 115.617C244.366 116.099 244.237 116.625 244.22 117.16C244.22 119.16 246.12 120.35 249.12 120.35C252.12 120.35 254.32 118.79 254.32 116.9V116.86ZM251.83 97.9099C251.83 95.0699 250.48 93.4699 248.65 93.4699C246.82 93.4699 245.43 95.0699 245.43 97.9099C245.43 100.75 246.86 102.35 248.65 102.35C250.44 102.35 251.83 100.79 251.83 97.9499V97.9099Z" fill="#F4AA00"/>
<path d="M292.6 90.97C292.6 82.91 297.32 78.26 302.44 78.26C307.56 78.26 312.29 82.91 312.29 90.97C312.29 99.03 307.57 103.58 302.44 103.58C297.31 103.58 292.6 98.93 292.6 90.97ZM306.8 90.97C306.8 86.4 305.23 83.43 302.44 83.43C299.65 83.43 298.09 86.43 298.09 90.97C298.09 95.51 299.66 98.42 302.44 98.42C305.22 98.42 306.8 95.49 306.8 90.97Z" fill="#F4AA00"/>
<path d="M216.17 97.51C206.01 97.51 197.29 92.06 188.85 86.78L185.42 84.65C173.74 77.51 164.22 75.65 157.13 79.16C156.473 79.4416 155.733 79.4604 155.063 79.2124C154.392 78.9645 153.843 78.4687 153.527 77.8274C153.212 77.1861 153.154 76.4481 153.367 75.7657C153.58 75.0833 154.046 74.5086 154.67 74.16C163.58 69.77 174.91 71.7 188.33 79.9C189.48 80.61 190.65 81.33 191.81 82.06C199.74 87.06 207.92 92.22 216.72 91.94C217.087 91.928 217.452 91.9892 217.795 92.12C218.137 92.2508 218.45 92.4487 218.716 92.7019C218.981 92.9551 219.193 93.2587 219.34 93.595C219.487 93.9312 219.565 94.2932 219.57 94.66C219.579 95.0264 219.516 95.3911 219.385 95.7331C219.253 96.0752 219.055 96.388 218.803 96.6536C218.55 96.9192 218.248 97.1324 217.913 97.2811C217.577 97.4297 217.216 97.5109 216.85 97.52L216.17 97.51Z" fill="#F4AA00"/>
<path d="M498.28 0.150002L485.13 8.51L471.44 3.59L468 5.79L478.48 12.68L459.53 24.87C450.62 31.07 442.63 38.56 434.87 45.87C425.73 54.46 416.28 63.35 405.56 69.82C386.02 81.62 362.63 85.57 338.38 88.88C337.686 88.9822 337.056 89.3421 336.615 89.888C336.175 90.434 335.956 91.1258 336.003 91.8258C336.049 92.5258 336.358 93.1825 336.867 93.6651C337.376 94.1478 338.049 94.4208 338.75 94.43H339.13C363.99 91.04 387.99 86.97 408.44 74.62C419.67 67.83 429.34 58.74 438.69 49.95C446.26 42.83 454.06 35.53 462.6 29.56L481.28 16.87L483.49 29.35L486.91 27.11L487.81 12.43L500.62 3.71L502.36 0L498.28 0.150002Z" fill="#F4AA00"/>
</svg>
