<svg width="339" height="253" viewBox="0 0 339 253" fill="none" xmlns="http://www.w3.org/2000/svg">
<path d="M247.51 252.38H261.29C303.998 252.38 338.62 217.758 338.62 175.05V115.08C338.62 72.372 303.998 37.7502 261.29 37.7502H247.51C204.802 37.7502 170.18 72.372 170.18 115.08L170.18 175.05C170.18 217.758 204.802 252.38 247.51 252.38Z" fill="#F4AA00"/>
<path d="M0 82.48L0 97.1901C0 142.743 36.9275 179.67 82.48 179.67H146.46C192.012 179.67 228.94 142.743 228.94 97.1901V82.48C228.94 36.9276 192.012 0 146.46 0H82.48C36.9275 0 0 36.9276 0 82.48Z" fill="#F7EBD3"/>
</svg>
