<svg width="1835" height="668" viewBox="0 0 1835 668" fill="none" xmlns="http://www.w3.org/2000/svg">
<path opacity="0.69" d="M209.69 42.6363L190.644 106.593C190.067 108.517 189.875 110.535 190.079 112.533C190.283 114.531 190.88 116.468 191.835 118.235L223.569 176.919C224.522 178.688 225.814 180.252 227.373 181.521C228.932 182.789 230.725 183.737 232.651 184.311L296.597 203.356C298.522 203.933 300.542 204.125 302.542 203.921C304.542 203.717 306.481 203.12 308.25 202.166L366.946 170.431C370.508 168.5 373.158 165.233 374.314 161.349L393.36 97.4039C394.52 93.5149 394.092 89.3246 392.17 85.7504L360.447 27.0548C358.51 23.4918 355.24 20.8421 351.353 19.6865L287.407 0.640988C285.486 0.0659499 283.47 -0.124858 281.474 0.0793825C279.479 0.283624 277.543 0.878913 275.778 1.83133L217.082 33.5659C215.312 34.5185 213.748 35.8112 212.48 37.3698C211.211 38.9284 210.263 40.7222 209.69 42.6482" fill="#F7EDDC"/>
<path opacity="0.69" d="M9.37418 343.279L0.302126 373.677C0.02877 374.594 -0.0603511 375.556 0.0398987 376.507C0.140149 377.458 0.427786 378.38 0.886218 379.22L15.9732 407.12C16.4241 407.962 17.0374 408.706 17.7776 409.31C18.5177 409.914 19.3701 410.365 20.2855 410.637L50.6831 419.697C52.5335 420.248 54.5266 420.042 56.2257 419.126L84.1254 404.038C84.9662 403.585 85.7088 402.969 86.3103 402.227C86.9119 401.484 87.3604 400.63 87.6299 399.713L96.702 369.315C97.2455 367.464 97.0402 365.474 96.1303 363.772L81.0434 335.872C80.1227 334.177 78.5674 332.917 76.7186 332.367L46.321 323.308C45.4077 323.033 44.4492 322.941 43.5003 323.037C42.5513 323.133 41.6306 323.415 40.7908 323.867L12.8787 338.954C12.0379 339.408 11.2953 340.024 10.6937 340.766C10.0922 341.508 9.64374 342.362 9.37418 343.279Z" fill="#F7EDDC"/>
<path d="M1068.51 442.578L1158.36 408.514C1161.06 407.488 1163.54 405.939 1165.64 403.955C1167.74 401.972 1169.42 399.593 1170.6 396.955L1210.05 309.344C1211.24 306.712 1211.9 303.87 1211.99 300.982C1212.08 298.094 1211.6 295.216 1210.57 292.515L1176.51 202.663C1175.48 199.956 1173.93 197.477 1171.95 195.369C1169.96 193.261 1167.58 191.565 1164.94 190.377L1077.33 150.936C1072.01 148.543 1065.96 148.361 1060.5 150.431L970.654 184.495C965.193 186.568 960.774 190.718 958.362 196.038L918.921 283.649C916.545 288.974 916.366 295.022 918.424 300.478L952.54 390.377C954.614 395.822 958.762 400.224 964.076 402.616L1051.69 442.058C1057.01 444.453 1063.06 444.64 1068.52 442.578" fill="#F7EBD3"/>
<path d="M1598.14 665.669L1746.43 609.428C1750.89 607.739 1754.98 605.184 1758.45 601.91C1761.93 598.635 1764.72 594.706 1766.67 590.348L1831.78 445.714C1833.74 441.365 1834.83 436.67 1834.98 431.898C1835.13 427.125 1834.33 422.371 1832.64 417.908L1776.41 269.611C1774.72 265.143 1772.16 261.052 1768.88 257.573C1765.61 254.093 1761.68 251.293 1757.32 249.332L1612.69 184.21C1603.91 180.252 1593.92 179.942 1584.91 183.348L1436.58 239.58C1427.56 243.005 1420.27 249.858 1416.29 258.644L1351.18 403.277C1347.24 412.083 1346.95 422.089 1350.37 431.109L1406.6 579.406C1408.28 583.867 1410.84 587.952 1414.1 591.427C1417.37 594.902 1421.29 597.699 1425.64 599.659L1570.26 664.781C1574.62 666.747 1579.32 667.835 1584.09 667.983C1588.87 668.13 1593.63 667.336 1598.1 665.643" fill="#F7EBD3"/>
</svg>
