<svg width="136" height="181" viewBox="0 0 136 181" fill="none" xmlns="http://www.w3.org/2000/svg">
<path d="M-9.89094 55.9075L-25.209 44.827C-25.6711 44.4961 -26.0625 44.0764 -26.3606 43.5925C-26.6587 43.1086 -26.8574 42.5703 -26.9452 42.0088L-29.9451 23.3307C-30.1271 22.1971 -29.8525 21.0376 -29.1814 20.106L-18.0994 4.78992C-17.7663 4.32825 -17.3454 3.93679 -16.8608 3.63796C-16.3762 3.33914 -15.8375 3.13879 -15.2753 3.04844L3.40522 0.0544738C3.96697 -0.0354875 4.54095 -0.0138532 5.09434 0.118114C5.64773 0.250081 6.16969 0.489806 6.63037 0.823586L21.9264 11.9151C22.3884 12.2479 22.7801 12.6687 23.0789 13.1533C23.3778 13.6378 23.5781 14.1766 23.6681 14.7388L26.668 33.4169C26.8476 34.5529 26.5711 35.7139 25.8988 36.6471L14.8168 51.9357C14.4842 52.3956 14.064 52.7852 13.5803 53.0822C13.0966 53.3792 12.5589 53.5776 11.9983 53.6661L-6.68229 56.6601C-7.24367 56.7515 -7.81757 56.7311 -8.37104 56.6C-8.9245 56.469 -9.44663 56.2299 -9.90743 55.8966" fill="white"/>
<path d="M28.1794 158.972L13.603 121.995C13.1625 120.882 12.9464 119.694 12.9672 118.497C12.9879 117.301 13.2451 116.12 13.7239 115.024L29.5694 78.5739C30.0427 77.476 30.7286 76.4827 31.5877 75.6511C32.4467 74.8194 33.4619 74.1661 34.5747 73.7286L71.5567 59.1597C72.6704 58.7191 73.8602 58.503 75.0577 58.5237C76.2552 58.5444 77.4367 58.8016 78.5345 59.2805L114.989 75.091C116.086 75.567 117.078 76.2545 117.908 77.1142C118.739 77.9739 119.392 78.9889 119.829 80.1012L134.406 117.078C135.291 119.327 135.251 121.835 134.296 124.055L118.45 160.505C117.485 162.719 115.681 164.459 113.434 165.345L76.4521 179.919C75.3404 180.359 74.1528 180.575 72.9573 180.556C71.7618 180.536 70.5819 180.28 69.4854 179.804L33.0308 163.988C31.932 163.512 30.9379 162.824 30.1054 161.963C29.2729 161.103 28.6184 160.086 28.1794 158.972Z" fill="white"/>
</svg>
