<svg width="71" height="165" viewBox="0 0 71 165" fill="none" xmlns="http://www.w3.org/2000/svg">
<path d="M48.9978 152.761L48.6627 159.251C48.6545 159.447 48.6088 159.64 48.5283 159.817C48.4479 159.994 48.3344 160.152 48.1946 160.282L43.6119 164.619C43.4754 164.751 43.3149 164.853 43.1401 164.918C42.9653 164.983 42.7797 165.01 42.5948 164.997L36.446 164.649C36.0719 164.625 35.7215 164.448 35.4694 164.155L31.3606 159.312C31.2365 159.167 31.141 158.997 31.0795 158.813C31.0179 158.629 30.9917 158.433 31.0023 158.238L31.3375 151.748C31.357 151.354 31.5231 150.983 31.7998 150.717L36.3882 146.38C36.6671 146.118 37.0324 145.982 37.4053 146.002L43.5541 146.356C43.9282 146.38 44.2786 146.557 44.5307 146.85L48.6396 151.687C48.7634 151.832 48.8587 152.002 48.9202 152.186C48.9817 152.37 49.0081 152.565 48.9978 152.761Z" fill="white"/>
<path d="M27 84.2518L26.5145 93.1351C26.483 93.6735 26.2319 94.178 25.816 94.5386L18.9426 100.478C18.5249 100.839 17.9755 101.026 17.4152 100.997L8.16186 100.512C7.88395 100.499 7.61151 100.433 7.36044 100.317C7.10938 100.202 6.88475 100.039 6.69959 99.839L0.53662 93.215C0.351215 93.0169 0.208622 92.7853 0.117139 92.5335C0.0256571 92.2817 -0.0128949 92.0149 0.00378653 91.7487L0.501101 82.8654C0.532331 82.3253 0.783357 81.8189 1.19968 81.4561L8.07305 75.5168C8.28018 75.3388 8.52169 75.2018 8.78377 75.1137C9.04584 75.0256 9.32336 74.9881 9.60047 75.0033L18.8123 75.4826C19.3722 75.5145 19.8971 75.7561 20.2746 76.1558L26.4376 82.7798C26.8117 83.1827 27.0054 83.7118 26.9763 84.2518" fill="white"/>
<path d="M82.966 14.2433L82.2252 27.9032C82.2034 28.314 82.1001 28.7163 81.9212 29.0868C81.7424 29.4573 81.4916 29.7885 81.1835 30.0612L70.9978 39.1967C70.6922 39.4728 70.3348 39.6855 69.9464 39.8226C69.558 39.9596 69.1462 40.0182 68.735 39.9951L55.1001 39.2429C54.2695 39.1948 53.4915 38.8205 52.9357 38.2015L43.8033 28.0188C43.5277 27.713 43.3152 27.3557 43.1782 26.9674C43.0411 26.5792 42.9821 26.1678 43.0047 25.7567L43.7513 12.0968C43.7719 11.6855 43.8741 11.2824 44.0519 10.9109C44.2297 10.5395 44.4797 10.2071 44.7872 9.93303L54.9728 0.79752C55.2794 0.523251 55.637 0.312093 56.0253 0.176089C56.4136 0.0400841 56.8249 -0.0180969 57.2356 0.00489316L70.8994 0.745469C71.3106 0.767327 71.7134 0.870037 72.0848 1.04774C72.4562 1.22545 72.7889 1.47465 73.0639 1.78108L82.1962 11.9638C82.4729 12.2701 82.6859 12.6284 82.823 13.0177C82.9601 13.407 83.0185 13.8197 82.9949 14.2317" fill="white"/>
</svg>
