<svg width="161" height="215" viewBox="0 0 161 215" fill="none" xmlns="http://www.w3.org/2000/svg">
<path d="M106.19 167.59L100.61 186.3C100.276 187.436 100.405 188.659 100.97 189.7L110.25 206.87C110.815 207.914 111.772 208.691 112.91 209.03L131.61 214.61C132.75 214.945 133.975 214.815 135.02 214.25L152.19 204.97C153.234 204.405 154.011 203.448 154.35 202.31L159.92 183.61C160.258 182.472 160.132 181.246 159.57 180.2L150.29 163.03C149.723 161.987 148.767 161.211 147.63 160.87L128.92 155.3C128.358 155.13 127.769 155.074 127.185 155.134C126.601 155.194 126.035 155.369 125.52 155.65L108.37 164.93C107.853 165.21 107.396 165.588 107.025 166.045C106.654 166.501 106.377 167.026 106.21 167.59" fill="white"/>
<path d="M-3.26005 18.93L-11.7201 47.3C-11.9737 48.1534 -12.0566 49.0484 -11.964 49.9338C-11.8713 50.8193 -11.6049 51.6777 -11.1801 52.4601L2.89995 78.4601C3.74568 80.0405 5.18448 81.2202 6.89994 81.74L35.2699 90.2001C36.9968 90.7118 38.8561 90.5176 40.4399 89.66L66.4399 75.5801C68.0151 74.7306 69.1906 73.2927 69.7099 71.5801L78.1699 43.2101C78.6793 41.484 78.4889 39.6268 77.6399 38.04L63.5599 12.04C62.7096 10.4655 61.2721 9.29034 59.5599 8.77001L31.1899 0.309989C29.4673 -0.199869 27.613 -0.00938165 26.0299 0.840018L0.0299444 14.92C-1.54764 15.7692 -2.72636 17.2067 -3.25006 18.92" fill="white"/>
</svg>
