<svg width="134" height="211" viewBox="0 0 134 211" fill="none" xmlns="http://www.w3.org/2000/svg">
<g clip-path="url(#clip0_274_1593)">
<path opacity="0.69" d="M182.268 94.9459L145.735 82.3843C144.636 82.0044 143.473 81.8454 142.312 81.9166C141.151 81.9877 140.016 82.2875 138.972 82.7987L104.267 99.7442C103.219 100.251 102.283 100.96 101.512 101.832C100.741 102.703 100.151 103.719 99.7753 104.82L87.2065 141.354C86.8274 142.454 86.6694 143.618 86.7417 144.779C86.8139 145.94 87.1149 147.075 87.6274 148.119L104.569 182.832C105.598 184.939 107.422 186.552 109.64 187.315L146.172 199.883C148.394 200.644 150.827 200.495 152.941 199.471L187.646 182.525C189.753 181.491 191.366 179.666 192.131 177.447L204.7 140.914C205.08 139.815 205.239 138.651 205.168 137.49C205.096 136.33 204.797 135.195 204.286 134.15L187.349 99.446C186.319 97.3316 184.491 95.7129 182.268 94.9459" fill="#F7EDDC"/>
<path opacity="0.69" d="M79.6939 10.7699L63.0578 5.05131C62.558 4.87773 62.0288 4.80527 61.5007 4.8382C60.9726 4.87114 60.4564 5.00882 59.982 5.24316L44.1795 12.9598C43.2254 13.42 42.4926 14.2395 42.1415 15.2389L36.4161 31.8741C36.0715 32.8866 36.1397 33.9941 36.606 34.9566L44.3218 50.7597C44.7913 51.7212 45.6226 52.4574 46.6338 52.8072L63.2633 58.5239C63.7635 58.6975 64.2932 58.7708 64.8218 58.7393C65.3504 58.7078 65.8676 58.5723 66.3438 58.3406L82.1529 50.6258C83.1016 50.1596 83.8306 49.341 84.1842 48.3448L89.9097 31.7097C90.2549 30.6993 90.186 29.5933 89.7179 28.6337L82.004 12.824C81.5345 11.8625 80.7032 11.1263 79.692 10.7765" fill="#F7EDDC"/>
</g>
<defs>
<clipPath id="clip0_274_1593">
<rect width="192" height="164" fill="white" transform="translate(45.6543) rotate(16.1636)"/>
</clipPath>
</defs>
</svg>
