<svg width="384" height="394" viewBox="0 0 384 394" fill="none" xmlns="http://www.w3.org/2000/svg">
<path d="M395.346 111.513L420.136 79.7033C420.88 78.7471 421.429 77.6533 421.749 76.4847C422.07 75.3161 422.157 74.0957 422.006 72.8934L417.006 32.8934C416.857 31.6891 416.473 30.5259 415.874 29.4705C415.275 28.4152 414.474 27.4884 413.516 26.7434L381.716 1.95333C380.76 1.20446 379.665 0.652749 378.494 0.33004C377.324 0.00733224 376.1 -0.0798394 374.896 0.0734486L334.896 5.07345C333.693 5.22259 332.532 5.60762 331.478 6.20651C330.424 6.80539 329.499 7.60634 328.756 8.56344L303.966 40.3734C302.458 42.3032 301.775 44.7516 302.066 47.1834L307.066 87.1834C307.378 89.6142 308.635 91.8239 310.566 93.3333L342.366 118.123C344.296 119.631 346.745 120.311 349.176 120.013L389.176 115.013C391.61 114.712 393.826 113.457 395.336 111.523" fill="white"/>
<path d="M242.603 321.854L250.473 237.424C250.713 234.882 250.447 232.318 249.692 229.88C248.937 227.441 247.707 225.176 246.073 223.214L191.943 157.954C190.324 155.977 188.329 154.341 186.074 153.139C183.818 151.938 181.347 151.195 178.803 150.954L94.3734 143.084C91.8287 142.847 89.2624 143.114 86.8208 143.868C84.3792 144.623 82.1102 145.852 80.1434 147.484L14.8834 201.614C12.9217 203.241 11.2999 205.24 10.1108 207.494C8.92172 209.749 8.18858 212.216 7.95334 214.754L0.0833407 299.184C-0.392426 304.316 1.18223 309.429 4.46335 313.404L58.5933 378.664C61.8876 382.629 66.6207 385.125 71.7534 385.604L156.183 393.474C161.31 393.953 166.417 392.378 170.383 389.094L235.643 334.964C237.62 333.34 239.256 331.341 240.457 329.083C241.658 326.824 242.401 324.351 242.643 321.804" fill="white"/>
</svg>
