<svg width="375" height="189" viewBox="0 0 375 189" fill="none" xmlns="http://www.w3.org/2000/svg">
<path d="M138.058 25.0237L95.7244 1.4117C94.4521 0.698428 93.0512 0.244033 91.6025 0.0747183C90.1537 -0.0945965 88.6857 0.0245186 87.2833 0.425194L40.6623 13.6641C39.2569 14.0626 37.9441 14.7349 36.7994 15.6423C35.6548 16.5497 34.7008 17.6744 33.9923 18.9517L10.4105 61.2777C9.69805 62.5519 9.24418 63.9541 9.07486 65.4041C8.90554 66.854 9.02411 68.3231 9.42378 69.7271L22.6503 116.339C23.4566 119.17 25.3533 121.565 27.9242 122.998L70.258 146.596C72.8328 148.026 75.8688 148.381 78.704 147.582L125.325 134.338C128.158 133.528 130.555 131.629 131.99 129.055L155.592 86.7443C156.303 85.4723 156.756 84.0725 156.925 82.6252C157.094 81.1779 156.976 79.7114 156.578 78.3097L143.337 31.6974C142.939 30.2933 142.268 28.9815 141.362 27.8371C140.456 26.6928 139.334 25.7384 138.058 25.0286" fill="#FFF9EF"/>
<path d="M381.936 31.3685L378.821 13.7015C378.728 13.1702 378.531 12.6624 378.242 12.2076C377.952 11.7527 377.575 11.3598 377.133 11.0515L362.441 0.745723C362 0.434701 361.501 0.214281 360.974 0.0971965C360.446 -0.0198875 359.901 -0.0313131 359.37 0.0635818L341.705 3.17493C340.63 3.36656 339.674 3.97507 339.045 4.86802L328.741 19.5611C328.431 20.0035 328.212 20.5026 328.096 21.0297C327.98 21.5568 327.969 22.1017 328.063 22.6332L331.179 40.3001C331.272 40.832 331.469 41.3403 331.759 41.7959C332.048 42.2515 332.425 42.6454 332.867 42.9551L347.554 53.2608C348.45 53.8826 349.556 54.1259 350.63 53.9381L368.295 50.8218C368.827 50.7295 369.336 50.5328 369.791 50.243C370.247 49.9533 370.641 49.5762 370.95 49.1336L381.254 34.4406C381.565 33.999 381.786 33.5001 381.903 32.9728C382.02 32.4455 382.031 31.9002 381.936 31.3685Z" fill="#FFF9EF"/>
<path d="M418.982 149.626V158.78C370.313 171.938 291.252 188.544 191.584 188.991C87.6822 189.453 5.49021 172.152 -44 158.78V149.626C-44 145.538 -43.9656 142.505 -44 140.23C-44 139.972 -30.0629 142.626 -22.9592 143.671C-18.7707 144.284 -14.5625 144.814 -10.3691 145.324C7.23116 147.413 25.0711 146.232 42.233 141.844C65.255 135.962 85.5289 121.427 110.291 121.461C120.615 121.461 130.85 123.158 140.933 125.083C142.932 125.468 144.928 125.859 146.921 126.254C150.854 127.026 154.805 127.703 158.774 128.286C175.557 130.717 192.768 131.295 209.537 128.568C231.168 125.058 249.638 115.725 269.7 108.599C299.688 97.963 332.626 95.095 364.772 96.2324C374.034 96.5581 384.638 98.0165 394.549 100.009C398.934 100.889 403.187 101.876 407.124 102.926C408.786 103.364 418.795 105.673 418.987 107.559C419.011 107.938 418.997 135.291 418.982 149.626Z" fill="#FFAA00"/>
</svg>
