<svg width="1920" height="777" viewBox="0 0 1920 777" fill="none" xmlns="http://www.w3.org/2000/svg">
<path d="M-11 777V399H1932V777C1727.69 713.065 1395.96 632.382 977.704 630.218C541.642 627.962 196.709 712.013 -11 777Z" fill="#FFF1D8"/>
<path d="M564.765 75.2486L454.318 13.6656C450.996 11.8095 447.339 10.6288 443.559 10.1913C439.778 9.75387 435.949 10.0683 432.29 11.1166L310.654 45.6646C306.991 46.6963 303.568 48.4422 300.582 50.8018C297.595 53.1614 295.105 56.0881 293.254 59.4136L231.671 169.861C229.816 173.188 228.634 176.848 228.194 180.632C227.754 184.416 228.064 188.25 229.107 191.914L263.657 313.547C265.759 320.934 270.71 327.183 277.419 330.92L387.867 392.503C394.582 396.245 402.505 397.176 409.905 395.093L531.539 360.543C538.93 358.426 545.181 353.468 548.925 346.755L610.508 236.308C614.252 229.601 615.179 221.683 613.085 214.294L578.534 92.6616C577.496 88.9962 575.745 85.5715 573.381 82.5836C571.018 79.5956 568.088 77.1031 564.761 75.2486" fill="#FFF9EF"/>
<path d="M1360.42 82.2249L1352.25 35.8929C1352.01 34.4983 1351.49 33.1659 1350.73 31.9723C1349.96 30.7787 1348.97 29.7474 1347.81 28.9379L1309.28 1.95588C1308.12 1.14114 1306.81 0.563453 1305.43 0.256079C1304.05 -0.0512957 1302.62 -0.0822918 1301.22 0.164877L1254.89 8.33387C1253.5 8.57984 1252.16 9.0986 1250.97 9.86046C1249.77 10.6223 1248.74 11.6123 1247.93 12.7739L1220.94 51.3089C1220.13 52.4682 1219.56 53.7759 1219.25 55.1573C1218.95 56.5387 1218.92 57.9668 1219.16 59.3599L1227.33 105.691C1227.83 108.508 1229.42 111.013 1231.76 112.659L1270.3 139.641C1272.64 141.276 1275.54 141.915 1278.36 141.42L1324.69 133.25C1327.51 132.755 1330.01 131.162 1331.65 128.823L1358.63 90.2879C1359.44 89.1274 1360.02 87.818 1360.33 86.4345C1360.63 85.051 1360.67 83.6205 1360.42 82.2249Z" fill="#FFF9EF"/>
<path d="M1920.94 414.9H1921V453.29C1719.11 508.475 1391.31 578.123 977.98 579.99C547.1 581.928 206.25 509.381 1.00001 453.29V414.9H1.11012C1.17012 397.765 1.25001 385.038 1.00001 375.5C0.970012 374.418 58.81 385.547 88.26 389.929C105.64 392.496 123.08 394.722 140.48 396.851C213.43 405.608 287.375 400.664 358.51 382.274C453.99 357.597 538.06 296.634 640.75 296.791C683.65 296.861 726.01 303.891 767.83 311.98C776.12 313.586 784.4 315.235 792.66 316.88C808.91 320.118 825.293 322.964 841.81 325.416C911.4 335.656 982.78 338.021 1052.32 326.595C1142.04 311.869 1218.63 272.72 1301.82 242.849C1426.07 198.235 1562.78 186.207 1696.08 190.973C1734.5 192.343 1778.46 198.462 1819.58 206.816C1837.76 210.508 1855.39 214.637 1871.73 218.984C1878.61 220.817 1920.12 230.515 1920.91 238.415C1921.06 240.067 1920.99 354.775 1920.94 414.9Z" fill="#FFAA00"/>
</svg>
